<?xml version="1.0" encoding="utf-8"?>
<!-- Generator: Adobe Illustrator 16.0.3, SVG Export Plug-In . SVG Version: 6.00 Build 0)  -->
<!DOCTYPE svg PUBLIC "-//W3C//DTD SVG 1.1//EN" "http://www.w3.org/Graphics/SVG/1.1/DTD/svg11.dtd">
<svg version="1.1" xmlns="http://www.w3.org/2000/svg" xmlns:xlink="http://www.w3.org/1999/xlink" x="0px" y="0px" viewBox="0 0 140 140" enable-background="new 0 0 140 140" xml:space="preserve">
<g id="bg">
	<ellipse fill="#91D9ED" cx="-197.92" cy="-42.875" rx="65.08" ry="54.625"/>
	<circle fill="#E0693B" cx="69.937" cy="70.495" r="67.937"/>
</g>
<g id="accents">
	<polygon fill="#66FF00" points="68.008,92.076 57.219,89.072 60.496,87.57 65.543,82.443 69.578,76.147 74.973,59.644 
		73.895,50.888 84.153,46.739 82.551,79.786 73.988,91.115 	"/>
	<polygon fill="#66FF00" points="117.137,56.818 108,61.124 108,45.647 111.572,46.458 116.852,52.293 	"/>
	<polygon fill="#66FF00" points="105.233,41.928 65.436,30.866 70.686,21.249 99.849,32.316 	"/>
</g>
<g id="color">
	<path fill="#FFFBB0" d="M40.4,57.072c-1.435,1.434-4,0.677-4,0.677l-1.61-4.831l6.384,1.468
		C41.174,54.387,41.834,55.639,40.4,57.072z"/>
	<polygon fill="#FFFBB0" points="34.482,43.28 33.342,45.158 31.433,44.281 29.962,50.865 25.477,46.754 31.98,40.916 	"/>
	<polygon fill="#FFFBB0" points="74.062,19.974 67.143,15.171 74.225,4.125 74.357,9.664 73.333,13.556 80.298,10.278 87.126,4.475 
		88.763,4.655 83.097,13.487 	"/>
	<path fill="#006837" d="M116.037,81.331l-9.666,2.711l6.951-11.952l3.926-15.272l-9.115,3.577l1.479-7.25l-1.388-7.771l2.458,0.546
		l4.986,4.867l-4.051-9.526l-4.644-5.583l-8.764-7.875l-12.816-6.545l-10.581-2.65c-1.684,0.501-5.795-1.281-7.324-3.952
		l-6.555,3.524l-6.695,6.346L42.22,28.16l-3.595,5.879l-4.644,1.912l-4.2,0.079l-6.905,3.914l1.94,5.937l1.4,1.445
		c0.481-2.498,3.031-3.271,4.886-3.283c0.33-1.218,2.104-2.114,3.141-1.81c1.095-0.431,6.248-2.458,6.248-2.458l6.487,1.486
		c0,0-5.379,12.653-5.623,13.444c-0.545,1.775-2.914,3.044-4.955,3.044l1.359,1.599l5.554,3.324l3.665-6.896l6.531-5.805
		l7.783-1.639l12.7,2.23l10.742-3.619l-10.104,6.964l-1.229,11.402l9.444-0.226l-9.854,3.299l-3.277,8.876L79,79.24l-6.077,1.502
		l-5.17-0.568l-5.55,6.031l6.009,3.55l7.034,1.639l-7.493,0.328l-9.964-2.488L46.707,96.25l-2.824,13.621l4.528-3.956l4.097,11.16
		l8.926,11.325l11.287,6.994l0.271-5.491l9.141,4.492l14.074,3.214l16.424,0.822l-7.502-6.207l10.908-30.639l-13.275,3.145
		l6.827-8.739L116.037,81.331z M94.55,35.022l-9.438-3.825l-9.068-1.536l-8.473,0.378l2.883-4.367l7.285,0.306l8.212,2.313
		l9.43,4.48l9.854,9.156L94.55,35.022z"/>
	<polygon fill="#FF4E1F" points="48.563,33.74 44.52,35.678 46.695,31.293 55.079,28.955 	"/>
	<polygon fill="#FF7BAC" points="37.009,47.117 32.912,51.655 45.68,45.101 46.979,41.261 	"/>
</g>
<g id="main">
	<path fill="none" stroke="#000000" stroke-miterlimit="10" d="M111.612,113.752l5.021-12.32l-13.815,3.567l6.502-7.982
		l7.548-15.918l-10.496,2.943l7.102-12.211l3.775-15.013l-8.748,3.678l1.111-7.35l-1.582-7.621l2.499,0.66l5.14,4.603l-3.682-9.082
		l-5.768-6.933l-8.282-7.055l-8.466-4.97l-7.791-2.846l-6.281-0.964l7.626-5.468l7.104-10.911l-9.705,7.356l-7.332,3.483
		l0.978-3.796l0.156-5.478L68.17,14.291l-7.553,4.06l-6.334,6.184L42.22,28.16l-3.626,5.709l-4.403,1.949l-4.233,0.43l-7.081,3.695
		l1.94,5.937l5.146,5.307l1.249-6.79l2.13,0.761l1.037-2.569l6.135-2.682l5.869,1.354l-9.355,5.833l-2.868,3.531l10.874-4.991
		l-3.951,8.729l-6.055-1.143l1.063,4.183l2.174,2.425l4.873,2.516l3.985-6.815l6.011-5.43l7.314-1.7l8.348,0.672l5.1,1.818
		l7.261-2.507l3.867-2.117l-2.909,2.923l-4.301,3.34l-3.738,1.693l0.608,5.465l-1.66,5.69l10.465-0.572l-5.144,2.258l-5.664,1.381
		l-3.479,8.643l4.544,1.305l7.384,1.205l-7.969,1.15l-5.455-0.577l-5.843,6.145l6.175,3.079l6.871,1.989l-7.45,0.354l-9.669-2.502
		L46.707,96.25l-2.824,13.621l4.664-4.193l3.993,11.49l8.894,11.232l11.287,6.994l0.22-5.458l9.192,4.459l12.719,3.146l17.779,0.891
		l-7.308-5.966L111.612,113.752z M48.563,33.74l-3.441,1.466l1.574-3.913l7.619-2.003L48.563,33.74z M76.043,29.662l-8.473,0.378
		l2.883-4.367l7.285,0.306l8.212,2.313l9.43,4.48l9.854,9.156L94.55,35.022l-9.438-3.825L76.043,29.662z"/>
</g>
</svg>
