<?xml version="1.0" encoding="utf-8"?>
<!-- Generator: Adobe Illustrator 16.0.3, SVG Export Plug-In . SVG Version: 6.00 Build 0)  -->
<!DOCTYPE svg PUBLIC "-//W3C//DTD SVG 1.1//EN" "http://www.w3.org/Graphics/SVG/1.1/DTD/svg11.dtd">
<svg version="1.1" id="all_in_one" xmlns="http://www.w3.org/2000/svg" xmlns:xlink="http://www.w3.org/1999/xlink" x="0px" y="0px"
	viewBox="0 0 140 140" enable-background="new 0 0 140 140" xml:space="preserve">
<polygon fill="#E9AD8D" points="104.74,72.473 69.688,88.856 33.594,73.82 43.401,44 93.429,44 "/>
<path fill="#FFC033" d="M97.291,43H41.162c0,0,1.268-7.891,7.316-15.572c4.3-5.463,11.83-11.84,21.208-11.809
	c9.378,0.03,17.008,6.435,22.276,12.246C98.861,35.475,97.291,43,97.291,43z"/>
<path fill="#FFFFFF" d="M63.363,56.565c-0.162,0.848-2.193,1.204-4.533,0.796c-2.342-0.408-4.107-1.426-3.945-2.272
	c0.162-0.848,2.191-1.203,4.534-0.795S63.526,55.719,63.363,56.565z"/>
<path fill="#FFFFFF" d="M85.398,54.939c0.194,0.842-1.378,1.888-3.512,2.338c-2.137,0.451-4.026,0.132-4.221-0.708
	c-0.196-0.841,1.375-1.886,3.512-2.337C83.313,53.782,85.201,54.099,85.398,54.939z"/>
<path fill="#E29017" d="M32.311,107.242c0.863-0.59,18.483,7.012,18.944,8.529c0.458,1.52-0.806,3.101-2.281,4.268
	c-2.289,1.812-16.899-5.166-17.982-6.546C29.911,112.113,31.449,107.831,32.311,107.242z"/>
<path fill="#E29017" d="M88.666,114.863c0.043-1.01,16.25-9.118,17.795-8.527c1.547,0.592,1.486,5.089,1.547,6.908
	c0.097,2.824-14.986,7.815-16.803,7.776C89.392,120.979,88.623,115.869,88.666,114.863z"/>
<ellipse fill="#A36D48" cx="38.961" cy="50.607" rx="1.385" ry="2.33"/>
<ellipse fill="#A36D48" cx="99.639" cy="50.607" rx="1.384" ry="2.33"/>
<path fill="#E9AD8D" d="M97.736,50.701c0,0,0.523,2.222,0.596-0.225c0.111-2.45,0.788-1.872,1.603-0.055
	c0.85,1.811-0.082,1.634-0.743,2.162c-0.658,0.527-0.612,3.105,0.835,4.913c1.42,1.886,2.048-5.062,0.523-10.405
	c-1.535-5.415-3.347-3.115-3.375-1.857c-0.032,1.259,0.176,0.729-0.266,2.283C96.402,49.158,97.736,50.701,97.736,50.701z"/>
<path fill="#E9AD8D" d="M38.021,57.545c1.947-1.832,1.869-4.448,0.923-4.946c-0.937-0.569-1.755-0.312-0.679-2.107
	c1.074-1.795,1.497-2.478,1.797,0.018c0.299,2.5,0.878,0.267,0.878,0.267s1.357-0.698,0.945-3.103
	c-0.226-1.67-0.419-1.225-0.499-2.428c-0.079-1.202-2.83-3.65-4.775,1.68C34.766,52.272,36.088,59.3,38.021,57.545z"/>
<path fill="#E29017" d="M42.32,44.28l-7.414,19.396l9.189,7.574l3.243-7.869c-6.487-5.074-2.238-19.101-2.238-19.101H42.32z"/>
<path fill="#E29017" d="M91.359,63.381l3.242,7.869l9.191-7.574L96.38,44.28h-2.781C93.599,44.28,97.847,58.307,91.359,63.381z"/>
<rect x="41.162" y="40.288" fill="#E29017" width="56.376" height="5.147"/>
<path d="M92.949,106.805l4.079-1.738c0,0,2.725-4.211,0.817-6.784c-0.092-1.589,3.378,0.981,2.92,3.608
	c-0.535,2.622,13.485-13.483,5.378-18.852c0,0,0.78-3.016,2.943,0c0,0,0.621-21.108-5.327-19.122
	c-5.947,1.984-10.592,9.707-10.977,13.09c-0.386,3.383,1.666,1.598-1.501-1.418c-3.165-3.016-10.195-10.738-20.774-3.383
	c0,0-4.248,0.662-5.251-1.03c-1.082-1.691-1.775,0-4.942-1.03c-3.167-1.029-13.746,2.354-16.527,9.047l0.442-8.269l-4.093,2.647
	v-5.369c0,0,1.83-0.768-1.7-2.647s-6.568,2.662-8.345,10.017c0,0,1.24-3.03,5.102-0.971c0,0-6.797,0.955-3.94,13.679
	c0,0-0.925-8.971,3.323-9.633c0,0-3.404,17.236,1.141,22.292l1.555,2.247l1.884-2.884l3.175,5.541c0,0,3.375,2.781,5.266-0.01
	c1.888-2.789,2.775,2.014,2.775,2.014s2.375-8.354,3.069-10.415c0.694-2.06,0.976,8.447,0.976,8.447l5.814,25.979l1.936,1.635
	l2.08-4.452l2.41,7.452l2.41-7.635l3.346,6.452l2.808-3.225l8.113-24.836l0.071-9.155c0,0,6.581,10.531,7.911,11.636
	C92.721,110.842,92.949,106.805,92.949,106.805z M68.655,86.695c0,0-0.696-4.046-4.942-4.046c0,0,10.193-1.029,12.665,0.663
	C76.453,83.386,68.346,84.415,68.655,86.695z M79.93,78.017c-4.557-1.029-2.471,3.383-2.471,3.383
	c-6.719-4.34-16.912-1.323-16.912-1.323c-3.555,1.029-3.861-1.324-3.861-1.324c-1.084-2.354-3.168,0-3.168,0
	c0-4.045,5.252-2.647,6.719-4.706c1.004-1.472,3.014,1.028,4.017,2.426c-0.309-1.397,2.316-2.133,2.316-2.133
	c-1.39,0.662,1.39,2.648,1.39,2.648l2.781-0.663c0-3.383,3.552-3.015,3.552-3.015c-3.552,1.029-0.386,2.647-0.386,2.647l4.942-1.029
	C78.849,75.001,84.484,79.046,79.93,78.017z"/>
<ellipse fill="#E29017" cx="69.35" cy="28.08" rx="3.166" ry="3.015"/>
<path fill="#E29017" d="M57.456,21.975c-7.953,2.794-13.513,8.017-14.055,14.636h18.458C62.398,33.668,62.785,28.079,57.456,21.975z
	"/>
<path fill="#E29017" d="M96.766,36.611c-0.542-6.619-6.564-12.282-15.139-15.004c-5.637,6.252-5.326,12.062-4.633,15.004H96.766z"/>
<path fill="#E29017" d="M65.102,33.081v3.53h7.414l-0.54-3.751C71.976,32.86,68.191,34.404,65.102,33.081z"/>
<path fill="#E29017" d="M73.984,26.388c2.085-4.339,2.469-7.722,2.469-7.722c-8.107,5.001-14.055,0.367-14.055,0.367l1.776,8.385
	C67.65,19.033,73.984,26.388,73.984,26.388z"/>
<path fill="#E29017" d="M69.725,3.368c-0.826,0.007-4.247,13.385-4.247,13.385h8.418C73.896,16.753,70.551,3.361,69.725,3.368z"/>
<path d="M51.077,110.082c-14.02,1.01-16.373-6.932-16.373-6.932c-2.634-2.171-1.529,3.502-1.529,3.502
	c-1.866-1.193-0.264,1.715-0.264,1.715c1.37,3.956,12.589,8.163,16.415,7.52c3.825-0.646,1.196-2.742,1.196-2.742
	C52.626,112.256,51.077,110.082,51.077,110.082z"/>
<path d="M31.549,113.111c0,0-7.131,4.198-4.344,12.771c0,0,0.766-4.404,3.513-4.971c2.746-0.565-6.295,6.132-1.833,13.258
	c0,0,1.815-9.201,5.668-9.479c0,0,0.623,8.657-6.098,13.196c0,0,10.86-6.164,11.603-10.936c0,0,0.934,3.322-4.038,7.369
	c0,0,12.874-2.918,13.03-14.729C48.974,119.598,40.218,120.597,31.549,113.111z"/>
<path d="M106.26,108.304c0,0,1.559-2.932-0.291-1.711c0,0,1.014-5.614-1.582-3.478c0,0-2.228,7.901-16.259,7.107
	c0,0-1.521,2.273,0.522,3.053c0,0-2.6,2.208,1.238,2.722C93.797,116.659,105.033,112.21,106.26,108.304z"/>
<path d="M108.721,120.818c2.756,0.523,3.592,4.917,3.592,4.917c2.572-8.547-4.542-12.705-4.542-12.705
	c-8.548,7.547-17.321,6.755-17.321,6.755c0.415,11.809,13.255,14.525,13.255,14.525c-5.034-3.971-4.149-7.307-4.149-7.307
	c0.813,4.76,11.768,10.757,11.768,10.757c-6.787-4.436-6.297-13.102-6.297-13.102c3.854,0.219,5.811,9.392,5.811,9.392
	C115.107,126.926,105.963,120.367,108.721,120.818z"/>
<g>
	<path d="M64.562,54.335c2.008,1.177,3.938,3.309-1.157,5.884c-8.033,3.972-9.113,0.294-11.972-0.588c0,0,5.067,6.798,13.942,1.453
		l-1.354,8.108l3.242-2.648l1.546-12.576L64.562,54.335z"/>
	<path d="M51.896,49.627l6.023,4.708l0.695,0.073c-0.539,0.221-0.928,0.598-0.928,1.259c0,0.735,0.618,1.333,1.391,1.333h-0.541
		l-4.246-1.7l4.17,3.084l5.252-1.362l-4.094,0.164c0.695-0.146,1.235-0.727,1.235-1.461c0-0.516-0.231-0.952-0.618-1.173
		l3.477,0.371l0.849-0.587l2.24-1.618l-1.236-0.441l-5.868-0.662l-4.943-5.147l-5.482,2.132l1.93,0.515L49.58,51.54L51.896,49.627z"
		/>
</g>
<path d="M85.798,46.466l-4.942,5.147l-5.868,0.662l-1.234,0.441l1.157,0.809l-3.63,0.367l1.546,12.577l3.243,2.647l1.08-7.501
	c8.805,4.265,11.507-2.06,11.507-2.06c-2.935,0.883-4.016,4.56-11.971,0.588c-5.327-2.648-3.011-4.854-0.849-6.104l1.08,0.735
	l3.477-0.368c-0.387,0.294-0.619,0.736-0.619,1.177c0,0.735,0.543,1.323,1.236,1.471l-4.017-0.147l5.253,1.398l4.169-3.016
	l-4.247,1.839h-0.542c0.774-0.074,1.393-0.735,1.393-1.471c0-0.588-0.387-1.104-0.929-1.397l0.696-0.074l6.024-4.707l2.315,1.912
	l-1.62-2.427l2.007-0.588L85.798,46.466z"/>
<path fill="#E29017" d="M34.961,99.719c0.827-0.639,17.403,4.421,17.96,5.91c0.553,1.488-0.23,3.326-1.631,4.576
	c-2.17,1.938-16.998-2.62-18.37-5.496C32.168,103.139,34.138,100.357,34.961,99.719z"/>
<path fill="#E29017" d="M86.371,105.356c0.17-0.996,14.814-9.036,16.275-8.271c1.46,0.763,4.051,4.157,3.303,5.83
	c-2.309,5.15-13.666,9.239-17.6,7.45C86.707,109.617,86.203,106.351,86.371,105.356z"/>
</svg>
