<?xml version="1.0" encoding="utf-8"?>
<!-- Generator: Adobe Illustrator 16.0.3, SVG Export Plug-In . SVG Version: 6.00 Build 0)  -->
<!DOCTYPE svg PUBLIC "-//W3C//DTD SVG 1.1//EN" "http://www.w3.org/Graphics/SVG/1.1/DTD/svg11.dtd">
<svg version="1.1" xmlns="http://www.w3.org/2000/svg" xmlns:xlink="http://www.w3.org/1999/xlink" x="0px" y="0px" viewBox="0 0 140 140" enable-background="new 0 0 140 140" xml:space="preserve">
<g id="hydra_bg" display="none">
	<rect x="13" y="7" display="inline" fill="#0071BC" width="118" height="126"/>
</g>
<g id="hydra" display="none">
	<g display="inline">
		<path fill="#FFFFFF" d="M102.99,121.759c-0.035-0.021,0.091,0.595-0.424,1.527c-0.501,0.923-1.664,1.985-3.36,2.9
			c-1.701,0.905-3.875,1.809-6.458,2.54c-2.58,0.737-5.544,1.404-8.817,1.856c-3.271,0.458-6.844,0.771-10.628,0.812
			c-3.786,0.087-7.771-0.109-11.875-0.521c-4.097-0.44-8.321-1.066-12.51-2.17c-2.092-0.552-4.186-1.213-6.166-2.188
			c-0.989-0.482-1.957-1.043-2.812-1.78c-0.833-0.738-1.604-1.716-1.635-3.004c-0.012-0.517,0.191-1.204,0.479-1.684
			c0.284-0.521,0.686-0.943,1.095-1.341c0.844-0.771,1.805-1.365,2.791-1.879c1.984-1.014,4.081-1.71,6.177-2.296
			c4.207-1.132,8.449-1.757,12.561-2.143c4.115-0.384,8.117-0.442,11.897-0.356c3.789,0.074,7.358,0.399,10.631,0.869
			c3.272,0.465,6.236,1.133,8.815,1.874c2.584,0.733,4.758,1.636,6.459,2.545c1.695,0.917,2.857,1.982,3.358,2.906
			C103.081,121.155,102.955,121.775,102.99,121.759z M102.891,121.755c-0.034,0.015,0.078-0.576-0.433-1.466
			c-0.498-0.885-1.651-1.912-3.344-2.791c-1.687-0.896-3.898-1.65-6.48-2.285c-2.584-0.636-5.553-1.119-8.805-1.484
			c-3.252-0.371-6.798-0.586-10.544-0.676c-3.754-0.085-7.711,0.044-11.788,0.369c-4.074,0.33-8.274,0.913-12.425,1.962
			c-2.069,0.533-4.138,1.177-6.067,2.113c-0.962,0.466-1.894,1.007-2.692,1.691c-0.788,0.699-1.425,1.529-1.462,2.591
			c-0.002,0.953,0.622,1.915,1.397,2.614c0.787,0.717,1.713,1.292,2.671,1.789c1.934,0.976,4.005,1.654,6.078,2.222
			c4.168,1.076,8.388,1.657,12.477,1.933c4.088,0.297,8.062,0.288,11.81,0.204c3.751-0.122,7.295-0.35,10.547-0.733
			c3.252-0.376,6.221-0.86,8.805-1.499c2.581-0.636,4.795-1.39,6.48-2.288c1.692-0.881,2.845-1.909,3.343-2.796
			C102.969,122.34,102.856,121.744,102.891,121.755z"/>
	</g>
	<g display="inline">
		<path fill="#FFFFFF" d="M122,123.519c0,0,0.184,0.192,0.1,0.569c-0.112,0.397-0.307,0.912-0.84,1.441
			c-1.086,1.037-2.991,2.048-5.572,2.969c-2.592,0.901-5.782,1.813-9.529,2.567c-3.745,0.767-7.995,1.461-12.673,1.965
			c-4.678,0.503-9.766,0.779-15.152,0.82c-5.392,0.043-11.059-0.227-16.914-0.687c-5.849-0.503-11.877-1.155-17.956-2.188
			c-3.039-0.511-6.092-1.131-9.092-2.052c-1.502-0.451-2.997-0.969-4.434-1.69c-0.708-0.384-1.422-0.775-2.052-1.354
			c-0.612-0.586-1.244-1.272-1.272-2.443c0.032-0.207,0.014-0.359,0.088-0.611c0.083-0.243,0.164-0.542,0.292-0.715
			c0.226-0.413,0.522-0.746,0.83-1.051c0.619-0.611,1.325-1.035,2.028-1.451c1.424-0.786,2.911-1.371,4.409-1.882
			c3.007-0.992,6.064-1.68,9.108-2.257c6.097-1.124,12.158-1.722,18.026-2.123c5.87-0.38,11.563-0.483,16.946-0.355
			c5.394,0.107,10.483,0.414,15.161,0.938c4.678,0.522,8.94,1.224,12.685,1.995c3.748,0.758,6.962,1.669,9.553,2.574
			c2.582,0.923,4.534,1.94,5.618,2.98c0.532,0.529,0.82,1.051,0.929,1.434c0.063,0.187-0.135,0.344-0.115,0.441
			c0.012,0.101-0.171,0.151-0.171,0.151V123.519z M122,123.506c0,0,0.08-0.188-0.002-0.535c-0.104-0.345-0.33-0.825-0.844-1.325
			c-1.051-0.985-2.964-1.983-5.559-2.788c-2.587-0.843-5.829-1.487-9.577-2.041c-3.75-0.558-8.013-0.92-12.666-1.208
			c-4.654-0.265-9.702-0.488-15.041-0.532c-5.349-0.035-10.979,0.043-16.798,0.339c-5.816,0.295-11.823,0.814-17.843,1.79
			c-3.008,0.481-6.029,1.073-8.958,1.949c-1.463,0.432-2.911,0.932-4.249,1.598c-1.281,0.68-2.675,1.532-2.764,2.82
			c0.01-0.117,0.007-0.002,0.011-0.015l0.007,0.053l0.011,0.105c0.011,0.069-0.001,0.143,0.036,0.212
			c0.064,0.138,0.074,0.288,0.178,0.423c0.15,0.281,0.379,0.545,0.629,0.793c0.502,0.504,1.154,0.899,1.8,1.28
			c1.327,0.729,2.767,1.297,4.226,1.789c2.936,0.946,5.96,1.605,8.974,2.154c6.039,1.065,12.078,1.53,17.913,1.722
			c5.834,0.216,11.489,0.13,16.828,0.009c5.347-0.11,10.393-0.364,15.049-0.649c4.653-0.308,8.92-0.674,12.67-1.236
			c3.748-0.556,7.004-1.2,9.591-2.046c2.595-0.807,4.529-1.81,5.579-2.797c0.515-0.5,0.783-0.987,0.885-1.317
			c0.06-0.167-0.036-0.324-0.016-0.415c0.013-0.095-0.07-0.144-0.07-0.144V123.506z"/>
	</g>
	<path display="inline" fill="#391C42" d="M138.908,47.986c-4.854-7.515-0.998-13.633-0.998-13.633
		c-5.14-2.97-5.425-9.437-5.425-9.437c-4.995-2.096-7.42-7.688-7.42-7.688c-4.569,1.396-9.421-2.097-9.421-2.097
		c-1.569,6.466-4.424,8.038-4.424,8.038c0.854-4.544-0.999-6.292-0.999-6.292C111.507,26.314,93.81,45.16,93.81,49.18
		c0,4.02-3.283,6.99-2.709,9.088c0.569,2.098,0,2.446-0.574,5.942c-0.714,3.496,1.144,7.165,2.285,7.165s5.281-4.543,6.139-6.641
		c0.853-2.272,2.854-1.747,2.569,1.397c-0.146,3.15-7.852,11.363-7.852,11.363l-1.998-2.626c0,2.1,3.284,8.741,4.994,7.514
		c1.715-1.219,7.135-13.626,13.845-17.473c6.707-3.671,3.137-6.961,2.996-7.136c2.424,4.194,2.853,9.612,1.283,14.33
		c-1.568,4.722-4.994,8.736-8.991,9.611c-8.297,2.578-14.773,3.582-23.119,21.323c0.712-9.261-1.997-21.673-6.424-29.359
		c-0.284-0.526-0.569-1.049-1.001-1.575c-2.424-3.67-3.994-8.389-4.708-13.106l0,0c-0.855-1.924-1.428-4.195-1.572-6.467
		c-0.14-1.048-0.14-2.272-0.281-3.494c0-1.225,0-2.271,0-3.496v-1.747l0.281,1.747c0.145,1.049,0.431,2.271,0.572,3.32
		c0.145-0.873,0.145-1.748,0.145-2.621c0-1.224,0-2.273-0.145-3.496c0-1.224-0.142-2.271-0.286-3.495
		c-0.142-1.222-0.286-2.271-0.426-3.496c-0.286-0.349-0.286-0.699-0.429-1.046c0-0.352-0.143-0.701-0.143-1.05
		c-0.142-0.7-0.285-1.398-0.428-2.096c-0.143-0.7-0.428-1.399-0.713-2.098c-0.286-0.7-0.572-1.398-0.716-2.098
		c0.144,0.7,0.43,1.398,0.716,2.098c0.285,0.699,0.57,1.398,0.855,2.098c0.285,0.698,0.428,1.396,0.57,2.096
		c0,0.349,0.145,0.698,0.286,1.05c0.14,0.347,0.14,0.697,0.426,0.872l0,0l0,0v0.174c0.286,2.274,0.572,4.545,0.714,6.816
		c0.145,1.225,0.145,2.447,0.145,3.497c0,0.524,0,1.223-0.145,1.746c0,0.524-0.142,1.225-0.283,1.749l-0.145,0.349l-0.142,0.349
		l0.142-0.173c-0.142-0.699-0.286-1.574-0.428-2.274c0,0.524,0,0.874,0,1.398c0,1.049,0,2.272,0.142,3.321
		c0.145,1.049,0.286,2.272,0.431,3.32c0.283,1.049,0.572,2.098,0.855,3.147c0.143,0.35,0.287,0.698,0.43,1.049
		c0.571,1.047,1.854,1.047,2.281,0c1.428-2.797,1.997-7.167,2.143-8.915c0.142-1.746,0.142-5.416,0.142-5.416
		c-0.287,1.921-0.712,4.019-0.712,4.193c-1.144-3.144,0.425-13.981,0.425-13.981l0,0l0,0c0.146-0.176,0.146-0.35,0.287-0.525l0,0
		c0.145-0.35,0.145-0.697,0.285-1.049l0,0c0.145-1.047,0.429-2.794,1.429-4.719c0.143-0.173,0.143-0.349,0.285-0.698l0,0
		c0.142-0.351,0.285-0.873,0.429-1.223l1.284,0.872l3.712,2.448c-1.571-7.865,4.708-8.039,4.708-8.039
		c-1.285-5.593,2.143-15.03,2.283-15.206l-15.411,8.039l0,0l0,0c-1-0.348-1.857-0.174-2.002-0.174c-0.283,0-1.138-0.174-2.14,0.174
		L54.988,7.789c0.143,0.35,3.568,9.788,2.285,15.206c0,0,6.28,0.174,4.709,8.039l4.996-3.32
		c-9.135,12.233-11.276,29.883-5.424,44.916c2.57,9.608,0.713,20.272-4.852,27.787c-4.854-8.912-14.42-18.906-23.836-21.702
		c-4.141-0.875-5.423-1.89-6.992-6.611c-1.568-4.718-1.143-10.136,1.283-14.33c0,0.175-3.568,3.465,2.998,7.136
		c6.848,3.847,12.127,16.254,13.843,17.473c1.71,1.228,4.993-5.414,4.993-7.514l-1.996,2.626c0,0-7.709-8.213-7.851-11.363
		c-0.143-3.144,1.715-3.669,2.568-1.397c0.857,2.271,4.995,6.641,6.14,6.641c1.139,0,2.996-3.495,2.279-7.165
		c-0.713-3.496-1.141-3.844-0.568-5.942c0.568-2.098-2.711-5.068-2.711-9.088c0-4.021-17.696-22.866-16.41-32.304
		c0,0-1.859,1.923-0.857,6.467c0,0-2.854-1.572-4.426-8.039c0,0-4.852,3.495-9.562,1.924c0,0-2.427,5.417-7.421,7.688
		c0,0-0.285,6.467-5.422,9.437c0,0,3.851,6.118-1,13.633c0,0,5.137,1.398,2.283,11.01c0,0,4.568-0.875,1.144,11.183l1.853-2.096
		c3.567,15.206,12.42,27.614,24.119,33.905c4.427,1.745,8.227,11.238,8.369,16.836c1.965,10.188,19.245,11.289,31.235,11.289
		c11.986,0,32.182-1.237,31.108-10.726c0.146-5.594,3.358-15.826,7.782-17.399c11.705-6.291,20.695-18.699,24.119-33.905
		l1.858,2.096c-3.425-11.882,1.139-11.183,1.139-11.183C133.769,49.385,138.908,47.986,138.908,47.986z M76.539,24.917
		c0.143-0.524,0.143-1.047,0.284-1.047c0.143,0,0.286,0.349,0.286,0.874c0,0.873-0.286,1.747-0.57,2.096
		C75.97,27.19,76.11,26.838,76.539,24.917z M74.114,36.276c0.142,0,0.142,0,0.286,0c0,0,0,0,0.144,0c0,0,0,0,0.14,0
		c0,0,0.145,0,0.286,0h0.145l0,0l-0.57,1.224L74.114,36.276L74.114,36.276z M73.113,36.451c0.288,0,0.571,0,0.857,0l0,0
		l-0.715,2.098L73.113,36.451L73.113,36.451z M71.829,36.451c0.287,0,0.713,0,1,0l0,0l-0.57,2.271L71.829,36.451L71.829,36.451z
		 M70.832,36.451c0.285,0,0.572,0,0.854,0l0,0l-0.282,2.098L70.832,36.451L70.832,36.451z M70.117,36.276L70.117,36.276h0.145l0,0
		c0.141,0,0,1.224,0,1.224L70.117,36.276z M67.834,23.869c0.143,0,0.143,0.349,0.286,1.047c0.427,1.922,0.427,2.274,0,1.922
		c-0.286-0.174-0.571-1.223-0.571-2.096C67.549,24.393,67.691,24.042,67.834,23.869z"/>
	<path display="inline" fill="#FF7BAC" d="M73.41,56.198c-0.575,1.341-2.044,1.181-2.572,0.008C70.578,55.628,70.332,43,70.332,43
		h3.91C74.242,43,73.679,55.574,73.41,56.198z"/>
	<polygon display="inline" points="74.242,43 70.332,43 70.117,38 74.675,38 	"/>
	<path display="inline" fill="#A82DE2" d="M1.756,47.986c3.307-4.923,2.689-8.882,1-13.633c2.926-3.026,5.26-5.23,5.422-9.437
		c3.513-1.863,5.279-3.503,7.421-7.688c4.475,1.672,9.562-1.924,9.562-1.924s1.152,6.281,4.426,8.039
		C18.893,28.71,7.34,53.08,7.035,68.083l-1.853,2.096c0,0,3.591-11.214-1.144-11.183C4.85,54.962,6.412,50.5,1.756,47.986z"/>
	<g display="inline">
		<path fill="#662D91" d="M26.28,9.203c0,0-0.745,5.122-1.578,10.227c-0.196,1.278-0.378,2.56-0.587,3.753
			c-0.237,1.188-0.482,2.293-0.734,3.232c-0.259,0.938-0.471,1.72-0.656,2.261c-0.172,0.543-0.289,0.85-0.289,0.85l-0.098-0.019
			c0,0,0.003-0.328,0.042-0.896c0.026-0.571,0.114-1.376,0.215-2.344c0.108-0.966,0.283-2.084,0.497-3.277
			c0.241-1.188,0.54-2.447,0.824-3.709c1.088-5.057,2.266-10.096,2.266-10.096L26.28,9.203z"/>
	</g>
	<g display="inline">
		<path fill="#662D91" d="M14.903,14.912c0,0,1.572,4.251,3.058,8.53c0.383,1.066,0.781,2.127,1.116,3.134
			c0.308,1.016,0.572,1.971,0.758,2.802c0.179,0.834,0.332,1.527,0.403,2.024c0.084,0.493,0.114,0.78,0.114,0.78l-0.096,0.03
			c0,0-0.14-0.252-0.354-0.704c-0.226-0.448-0.499-1.104-0.831-1.889c-0.326-0.788-0.658-1.721-0.988-2.729
			c-0.304-1.017-0.587-2.114-0.885-3.207c-1.239-4.356-2.391-8.74-2.391-8.74L14.903,14.912z"/>
	</g>
	<g display="inline">
		<path fill="#662D91" d="M7.292,23.834c0,0,2.917,2.669,5.77,5.402c0.722,0.675,1.454,1.339,2.113,1.989
			c0.639,0.67,1.217,1.313,1.682,1.893c0.46,0.586,0.847,1.071,1.09,1.436c0.253,0.356,0.384,0.574,0.384,0.573l-0.071,0.07
			c0,0-0.214-0.136-0.564-0.397c-0.36-0.252-0.836-0.649-1.411-1.123c-0.57-0.478-1.199-1.071-1.854-1.725
			c-0.635-0.673-1.283-1.42-1.94-2.158c-2.667-2.914-5.269-5.892-5.269-5.892L7.292,23.834z"/>
	</g>
	<g display="inline">
		<path fill="#662D91" d="M2.781,34.31c0,0,3.134,1.526,6.222,3.13c0.774,0.398,1.565,0.766,2.281,1.156
			c0.708,0.404,1.344,0.825,1.878,1.205c1.071,0.755,1.718,1.378,1.718,1.378l-0.05,0.087c0,0-0.866-0.236-2.063-0.769
			c-0.601-0.263-1.288-0.594-1.998-0.995c-0.702-0.415-1.424-0.905-2.162-1.366c-2.961-1.83-5.877-3.739-5.877-3.739L2.781,34.31z"
			/>
	</g>
	<g display="inline">
		<path fill="#662D91" d="M1.754,47.949c0,0,2.55-0.285,5.102-0.501c0.638-0.063,1.275-0.138,1.874-0.179
			c0.6-0.019,1.16-0.019,1.642,0.014c0.482,0.038,0.884,0.066,1.167,0.113c0.282,0.038,0.444,0.074,0.444,0.074l0.004,0.075
			c0,0-0.158,0.051-0.435,0.115c-0.277,0.074-0.674,0.14-1.151,0.222c-0.477,0.078-1.035,0.13-1.634,0.167
			c-0.6,0.016-1.241,0.001-1.882-0.002c-2.562,0.023-5.126-0.022-5.126-0.022L1.754,47.949z"/>
	</g>
	<g display="inline">
		<path fill="#662D91" d="M4.016,58.967c0,0,1.241-1.189,2.523-2.325c0.315-0.292,0.623-0.591,0.93-0.849
			c0.32-0.242,0.63-0.453,0.917-0.608c0.289-0.151,0.528-0.28,0.712-0.348c0.179-0.076,0.289-0.108,0.289-0.108l0.047,0.059
			c0,0-0.057,0.1-0.172,0.256c-0.109,0.164-0.29,0.366-0.504,0.612c-0.218,0.242-0.495,0.495-0.804,0.75
			c-0.322,0.239-0.686,0.469-1.042,0.707c-1.403,0.983-2.848,1.913-2.848,1.913L4.016,58.967z"/>
	</g>
	<g display="inline">
		<path fill="#662D91" d="M5.171,70.174c0,0,0.447-1.017,0.894-2.033c0.217-0.511,0.452-1.014,0.669-1.371
			c0.211-0.36,0.382-0.585,0.382-0.585l0.022,0.011c0,0-0.073,0.273-0.226,0.662c-0.147,0.391-0.399,0.886-0.668,1.372
			c-0.525,0.979-1.051,1.957-1.051,1.957L5.171,70.174z"/>
	</g>
	<g display="inline">
		<path fill="#A82DE2" d="M138.975,47.986c-3.291-4.923-2.676-8.882-0.995-13.633c-2.914-3.026-5.234-5.23-5.396-9.437
			c-3.494-1.863-5.253-3.503-7.383-7.688c-4.459,1.672-9.517-1.924-9.517-1.924s-1.882,6.59-4.404,8.039
			c10.642,5.366,22.136,29.736,22.442,44.739l1.843,2.097c0,0-3.573-11.214,1.139-11.184C135.897,54.962,134.34,50.5,138.975,47.986
			z"/>
		<g>
			<path fill="#662D91" d="M114.669,9.184c0,0,1.173,5.04,2.256,10.097c0.282,1.262,0.58,2.521,0.82,3.709
				c0.212,1.193,0.386,2.311,0.493,3.277c0.101,0.968,0.188,1.773,0.213,2.344c0.037,0.568,0.04,0.896,0.04,0.896l-0.098,0.019
				c0,0-0.116-0.307-0.288-0.85c-0.185-0.541-0.396-1.323-0.653-2.261c-0.252-0.939-0.495-2.044-0.73-3.232
				c-0.208-1.194-0.389-2.475-0.584-3.753c-0.828-5.104-1.566-10.226-1.566-10.226L114.669,9.184z"/>
		</g>
		<g>
			<path fill="#662D91" d="M125.989,14.942c0,0-1.146,4.383-2.38,8.74c-0.297,1.093-0.579,2.19-0.882,3.207
				c-0.329,1.008-0.659,1.942-0.984,2.729c-0.331,0.786-0.603,1.441-0.828,1.889c-0.214,0.452-0.354,0.705-0.354,0.705l-0.096-0.03
				c0,0,0.03-0.287,0.113-0.78c0.071-0.497,0.224-1.19,0.401-2.023c0.184-0.832,0.447-1.787,0.754-2.802
				c0.334-1.007,0.729-2.068,1.111-3.134c1.48-4.279,3.048-8.53,3.048-8.53L125.989,14.942z"/>
		</g>
		<g>
			<path fill="#662D91" d="M133.537,23.904c0,0-2.589,2.978-5.242,5.891c-0.654,0.737-1.299,1.484-1.931,2.158
				c-0.651,0.654-1.277,1.247-1.846,1.725c-0.572,0.474-1.047,0.871-1.405,1.123c-0.349,0.261-0.562,0.397-0.562,0.397l-0.072-0.069
				c0,0,0.131-0.217,0.382-0.573c0.242-0.365,0.627-0.85,1.084-1.436c0.462-0.581,1.037-1.223,1.673-1.893
				c0.655-0.65,1.385-1.315,2.104-1.989c2.839-2.733,5.743-5.403,5.743-5.403L133.537,23.904z"/>
		</g>
		<g>
			<path fill="#662D91" d="M138.004,34.397c0,0-2.899,1.909-5.845,3.739c-0.734,0.461-1.452,0.951-2.15,1.366
				c-0.707,0.401-1.391,0.732-1.988,0.995c-1.191,0.533-2.055,0.77-2.055,0.77l-0.049-0.087c0,0,0.642-0.623,1.707-1.377
				c0.531-0.38,1.164-0.801,1.868-1.205c0.713-0.39,1.5-0.758,2.27-1.156c3.074-1.605,6.193-3.131,6.193-3.131L138.004,34.397z"/>
		</g>
		<g>
			<path fill="#662D91" d="M138.973,48.024c0,0-2.552,0.045-5.1,0.022c-0.638,0.004-1.276,0.018-1.873,0.002
				c-0.596-0.037-1.151-0.089-1.625-0.167c-0.475-0.083-0.87-0.148-1.146-0.222c-0.275-0.064-0.433-0.115-0.433-0.115l0.004-0.075
				c0,0,0.161-0.036,0.441-0.074c0.281-0.047,0.681-0.076,1.161-0.113c0.479-0.033,1.037-0.033,1.634-0.014
				c0.596,0.041,1.229,0.115,1.863,0.179c2.54,0.217,5.076,0.501,5.076,0.501L138.973,48.024z"/>
		</g>
		<g>
			<path fill="#662D91" d="M136.681,59.025c0,0-1.438-0.93-2.835-1.913c-0.355-0.238-0.717-0.468-1.038-0.707
				c-0.308-0.255-0.583-0.508-0.8-0.75c-0.213-0.246-0.393-0.448-0.501-0.611c-0.114-0.156-0.171-0.256-0.171-0.256l0.047-0.059
				c0,0,0.11,0.032,0.288,0.108c0.184,0.068,0.422,0.197,0.71,0.348c0.285,0.156,0.594,0.366,0.912,0.608
				c0.306,0.258,0.612,0.558,0.925,0.849c1.276,1.135,2.51,2.324,2.51,2.324L136.681,59.025z"/>
		</g>
		<g>
			<path fill="#662D91" d="M135.554,70.185c0,0-0.523-0.978-1.047-1.957c-0.268-0.486-0.518-0.981-0.665-1.372
				c-0.152-0.388-0.224-0.661-0.225-0.661l0.023-0.011c-0.001,0,0.169,0.226,0.38,0.585c0.217,0.357,0.45,0.86,0.667,1.371
				c0.444,1.017,0.89,2.033,0.89,2.033L135.554,70.185z"/>
		</g>
	</g>
	<g display="inline">
		<path fill="#FFFFFF" d="M49.52,74.416c0,0-0.43,1.173-0.92,2.313c-0.114,0.29-0.219,0.584-0.343,0.847
			c-0.143,0.253-0.292,0.48-0.449,0.66c-0.161,0.177-0.293,0.326-0.41,0.418c-0.108,0.096-0.183,0.145-0.183,0.145l-0.066-0.035
			c0,0-0.002-0.089,0.016-0.232c0.009-0.147,0.058-0.341,0.112-0.574c0.059-0.231,0.162-0.483,0.289-0.744
			c0.146-0.251,0.329-0.505,0.503-0.763c0.662-1.051,1.385-2.069,1.385-2.069L49.52,74.416z"/>
	</g>
	<g display="inline">
		<path fill="#FFFFFF" d="M91.17,74.071c0,0,0.738,1.099,1.415,2.229c0.178,0.278,0.365,0.552,0.515,0.821
			c0.131,0.278,0.236,0.547,0.298,0.792c0.057,0.247,0.106,0.451,0.117,0.607c0.019,0.151,0.017,0.244,0.017,0.244l-0.066,0.033
			c0,0-0.076-0.054-0.187-0.159c-0.118-0.101-0.253-0.263-0.417-0.456c-0.16-0.195-0.313-0.439-0.459-0.711
			c-0.128-0.28-0.235-0.594-0.353-0.902c-0.504-1.217-0.946-2.465-0.946-2.465L91.17,74.071z"/>
	</g>
	<g display="inline">
		<path fill="#FFFFFF" d="M75.553,45.716c0,0-0.038,1.139-0.076,2.277c-0.013,0.57-0.044,1.139-0.113,1.562
			c-0.063,0.423-0.138,0.704-0.138,0.704L75.2,50.256c0,0-0.033-0.288-0.035-0.716c-0.008-0.429,0.042-0.996,0.111-1.562
			c0.126-1.133,0.251-2.265,0.251-2.265L75.553,45.716z"/>
	</g>
	<g display="inline">
		<path fill="#FFFFFF" d="M69.06,47.219c0,0,0.116,0.881,0.232,1.763c0.065,0.44,0.11,0.882,0.099,1.217
			c-0.005,0.335-0.041,0.561-0.041,0.561l-0.025,0.002c0,0-0.072-0.217-0.132-0.546c-0.065-0.329-0.093-0.772-0.101-1.217
			c-0.029-0.889-0.059-1.777-0.059-1.777L69.06,47.219z"/>
	</g>
	<g display="inline">
		<path fill="#FFFFFF" d="M70.307,39.838c0,0-0.164-0.883-0.282-1.77c-0.036-0.221-0.079-0.442-0.1-0.65
			c-0.012-0.208,0.011-0.405,0.027-0.574c0.047-0.338,0.14-0.567,0.14-0.567l0.05-0.003c0,0,0.119,0.216,0.207,0.546
			c0.037,0.165,0.083,0.358,0.096,0.566c0.004,0.209-0.012,0.434-0.021,0.657c-0.011,0.894-0.067,1.791-0.067,1.791L70.307,39.838z"
			/>
	</g>
	<g display="inline">
		<path fill="#FFFFFF" d="M71.341,41c0,0-0.109-1.189-0.175-2.274c-0.022-0.271-0.052-0.595-0.061-0.849
			c0.001-0.254,0.036-0.744,0.063-0.947c0.067-0.407,0.173-0.93,0.173-0.93h0.051c0,0,0.105,0.497,0.173,0.904
			c0.026,0.203,0.062,0.553,0.063,0.808c-0.009,0.254-0.038,0.686-0.061,0.958C71.501,39.755,71.392,41,71.392,41H71.341z"/>
	</g>
	<g display="inline">
		<path fill="#FFFFFF" d="M72.309,41c0,0-0.109-1.035-0.175-2.275c-0.022-0.31-0.052-0.517-0.061-0.808
			c0.001-0.29,0.036-0.735,0.063-0.968C72.203,36.484,72.309,36,72.309,36h0.051c0,0,0.105,0.535,0.173,1
			c0.026,0.233,0.062,0.617,0.063,0.907c-0.009,0.291-0.038,0.452-0.061,0.762C72.469,39.909,72.359,41,72.359,41H72.309z"/>
	</g>
	<g display="inline">
		<path fill="#FFFFFF" d="M73.174,41.41c0,0-0.057-1.245-0.069-2.488c-0.009-0.311-0.025-0.622-0.021-0.913
			c0.013-0.291,0.06-0.561,0.096-0.792c0.088-0.462,0.206-0.768,0.206-0.768l0.051,0.002c0,0,0.092,0.314,0.14,0.783
			c0.017,0.233,0.04,0.506,0.028,0.797c-0.021,0.291-0.063,0.599-0.099,0.908c-0.118,1.237-0.28,2.473-0.28,2.473L73.174,41.41z"/>
	</g>
	<g display="inline">
		<path fill="#FFFFFF" d="M74.217,39.835c0,0-0.07-0.895-0.096-1.788c-0.012-0.224-0.032-0.447-0.031-0.656
			c0.01-0.209,0.054-0.402,0.088-0.568c0.082-0.331,0.197-0.548,0.197-0.548l0.051,0.002c0,0,0.096,0.228,0.148,0.564
			c0.019,0.168,0.045,0.365,0.036,0.573c-0.018,0.208-0.057,0.429-0.089,0.651c-0.104,0.887-0.254,1.772-0.254,1.772L74.217,39.835z
			"/>
	</g>
	<path display="inline" fill="#FF7BAC" d="M74.4,37.564c-0.211,0.181-3.773,0.181-4.068,0.026c-0.295-0.155-0.719-1.554-0.719-1.554
		c1.455,0.372,4.325,0.471,5.625,0C75.238,36.036,74.608,37.385,74.4,37.564z"/>
	<g display="inline">
		<path fill="#FFFFFF" d="M45.164,74.876c0,0,0.482-0.95,1.002-1.876c0.125-0.234,0.243-0.474,0.371-0.687
			c0.135-0.209,0.29-0.385,0.42-0.537c0.272-0.298,0.505-0.463,0.505-0.463l0.042,0.027c0,0-0.055,0.28-0.213,0.65
			c-0.085,0.182-0.182,0.396-0.316,0.604c-0.142,0.204-0.31,0.41-0.473,0.621c-0.629,0.855-1.296,1.687-1.296,1.687L45.164,74.876z"
			/>
	</g>
	<g display="inline">
		<path fill="#FFFFFF" d="M44.489,73.918c0,0,0.436-0.836,0.909-1.646c0.113-0.206,0.221-0.417,0.337-0.603
			c0.124-0.182,0.268-0.331,0.389-0.461c0.254-0.252,0.473-0.386,0.473-0.386l0.041,0.028c0,0-0.044,0.253-0.186,0.582
			c-0.077,0.16-0.163,0.349-0.287,0.53c-0.13,0.177-0.287,0.354-0.437,0.534c-0.581,0.737-1.199,1.449-1.199,1.449L44.489,73.918z"
			/>
	</g>
	<g display="inline">
		<path fill="#FFFFFF" d="M43.884,72.819c0,0,0.35-0.756,0.737-1.488c0.092-0.187,0.177-0.376,0.274-0.544
			c0.104-0.164,0.23-0.297,0.335-0.414c0.223-0.226,0.423-0.343,0.423-0.343l0.042,0.026c0,0-0.021,0.231-0.13,0.529
			c-0.061,0.145-0.128,0.316-0.231,0.48c-0.111,0.158-0.247,0.317-0.376,0.479c-0.498,0.662-1.033,1.301-1.033,1.301L43.884,72.819z
			"/>
	</g>
	<g display="inline">
		<path fill="#FFFFFF" d="M43.183,71.646c0,0,0.339-0.666,0.715-1.305c0.089-0.163,0.172-0.331,0.266-0.477
			c0.101-0.141,0.223-0.252,0.325-0.35c0.216-0.186,0.409-0.275,0.409-0.275l0.041,0.029c0,0-0.021,0.212-0.127,0.477
			c-0.059,0.128-0.124,0.28-0.224,0.421c-0.107,0.136-0.238,0.27-0.364,0.407c-0.481,0.564-1,1.102-1,1.102L43.183,71.646z"/>
	</g>
	<g display="inline">
		<path fill="#FFFFFF" d="M42.551,70.304c0,0,0.292-0.564,0.62-1.101c0.077-0.138,0.148-0.28,0.231-0.401
			c0.089-0.116,0.2-0.204,0.292-0.281c0.196-0.146,0.375-0.206,0.375-0.206l0.04,0.03c0,0-0.011,0.188-0.1,0.416
			c-0.05,0.109-0.105,0.239-0.194,0.356c-0.095,0.111-0.214,0.218-0.326,0.329c-0.431,0.458-0.898,0.888-0.898,0.888L42.551,70.304z
			"/>
	</g>
	<g display="inline">
		<path fill="#FFFFFF" d="M41.791,69.425c0,0,0.286-0.568,0.608-1.11c0.076-0.139,0.146-0.282,0.227-0.405
			c0.088-0.118,0.198-0.207,0.29-0.285c0.194-0.148,0.373-0.211,0.373-0.211l0.04,0.03c0,0-0.009,0.189-0.095,0.418
			c-0.049,0.11-0.103,0.241-0.19,0.359c-0.094,0.113-0.212,0.221-0.323,0.333c-0.427,0.464-0.89,0.901-0.89,0.901L41.791,69.425z"/>
	</g>
	<g display="inline">
		<path fill="#FFFFFF" d="M95.783,74.292c0,0-0.686-0.725-1.334-1.477c-0.168-0.185-0.341-0.364-0.487-0.545
			c-0.14-0.186-0.242-0.38-0.333-0.544c-0.17-0.338-0.234-0.6-0.234-0.6l0.039-0.029c0,0,0.234,0.134,0.512,0.39
			c0.134,0.133,0.292,0.284,0.433,0.47c0.133,0.19,0.259,0.406,0.39,0.617c0.546,0.83,1.055,1.688,1.055,1.688L95.783,74.292z"/>
	</g>
	<g display="inline">
		<path fill="#FFFFFF" d="M96.198,73.355c0,0-0.585-0.633-1.134-1.292c-0.143-0.161-0.29-0.318-0.413-0.477
			c-0.116-0.164-0.195-0.337-0.267-0.482c-0.131-0.301-0.169-0.536-0.169-0.536l0.041-0.029c0,0,0.21,0.113,0.451,0.335
			c0.114,0.116,0.251,0.247,0.368,0.411c0.109,0.168,0.209,0.359,0.314,0.546c0.442,0.734,0.849,1.495,0.849,1.495L96.198,73.355z"
			/>
	</g>
	<g display="inline">
		<path fill="#FFFFFF" d="M96.853,72.349c0,0-0.58-0.51-1.124-1.048c-0.142-0.131-0.287-0.257-0.41-0.387
			c-0.116-0.136-0.197-0.286-0.271-0.412c-0.134-0.262-0.177-0.476-0.177-0.476l0.037-0.032c0,0,0.205,0.076,0.442,0.25
			c0.112,0.092,0.248,0.196,0.364,0.332c0.109,0.141,0.211,0.306,0.317,0.465c0.446,0.623,0.857,1.274,0.857,1.274L96.853,72.349z"
			/>
	</g>
	<g display="inline">
		<path fill="#FFFFFF" d="M97.294,71.059c0,0-0.476-0.408-0.916-0.844c-0.114-0.105-0.235-0.206-0.333-0.313
			c-0.091-0.112-0.149-0.239-0.202-0.345c-0.094-0.222-0.109-0.408-0.109-0.408l0.039-0.031c0,0,0.18,0.052,0.378,0.188
			c0.094,0.073,0.206,0.155,0.298,0.267c0.085,0.117,0.16,0.255,0.24,0.389c0.34,0.519,0.645,1.066,0.645,1.066L97.294,71.059z"/>
	</g>
	<g display="inline">
		<path fill="#FFFFFF" d="M97.78,70.095c0,0-0.417-0.354-0.798-0.736c-0.101-0.092-0.206-0.179-0.29-0.273
			c-0.077-0.099-0.122-0.213-0.163-0.308c-0.07-0.2-0.069-0.371-0.069-0.371l0.039-0.031c0,0,0.166,0.041,0.343,0.157
			c0.083,0.063,0.183,0.133,0.261,0.232c0.07,0.104,0.13,0.228,0.194,0.347c0.279,0.462,0.522,0.952,0.522,0.952L97.78,70.095z"/>
	</g>
	<g display="inline">
		<path fill="#FFFFFF" d="M98.453,69.373c0,0-0.437-0.361-0.837-0.751c-0.105-0.093-0.216-0.183-0.305-0.278
			c-0.082-0.101-0.132-0.217-0.177-0.315c-0.079-0.204-0.085-0.379-0.085-0.379l0.039-0.031c0,0,0.17,0.041,0.354,0.16
			c0.086,0.064,0.19,0.136,0.272,0.237c0.076,0.106,0.141,0.232,0.211,0.354c0.301,0.472,0.566,0.972,0.566,0.972L98.453,69.373z"/>
	</g>
	<path display="inline" fill="#A82DE2" d="M61.982,31.034c0,0,1.984-7.165-4.709-8.039c0.453-5.695-0.223-9.567-2.285-15.206
		c4.08,2.128,15.414,8.039,15.414,8.039c-4.287,1.388-4.961,8.202-3.424,11.886L61.982,31.034z"/>
	<path display="inline" fill="#A82DE2" d="M82.966,31.034c0,0-2.015-7.165,4.781-8.039c-0.461-5.695,0.113-9.567,2.208-15.206
		c-4.143,2.128-15.538,8.039-15.538,8.039c4.353,1.388,5.036,8.202,3.477,11.886L82.966,31.034z"/>
	<g display="inline">
		<path fill="#662D91" d="M55.021,7.751c0,0,3.249,2.496,6.438,5.061c0.806,0.632,1.621,1.253,2.359,1.864
			c0.72,0.633,1.376,1.243,1.911,1.798c0.53,0.561,0.974,1.024,1.261,1.377c0.295,0.343,0.452,0.553,0.452,0.553l-0.065,0.076
			c0,0-0.231-0.123-0.616-0.362c-0.392-0.23-0.918-0.598-1.553-1.037c-0.63-0.444-1.333-0.999-2.068-1.615
			c-0.717-0.637-1.455-1.348-2.202-2.047c-3.021-2.762-5.983-5.592-5.983-5.592L55.021,7.751z"/>
	</g>
	<g display="inline">
		<path fill="#662D91" d="M57.268,22.958c0,0,2.253-0.532,4.518-0.998c0.564-0.125,1.127-0.262,1.66-0.36
			c0.536-0.078,1.039-0.132,1.475-0.147c0.437-0.01,0.801-0.021,1.06-0.001c0.258,0.01,0.407,0.03,0.407,0.03l0.012,0.074
			c0,0-0.135,0.066-0.376,0.157c-0.24,0.1-0.588,0.205-1.006,0.333c-0.418,0.124-0.913,0.231-1.446,0.326
			c-0.537,0.074-1.113,0.123-1.689,0.182c-2.295,0.273-4.602,0.479-4.602,0.479L57.268,22.958z"/>
	</g>
	<g display="inline">
		<path fill="#662D91" d="M61.964,31.017c0,0,1.02-1.31,2.074-2.59c0.259-0.324,0.513-0.653,0.765-0.948
			c0.259-0.29,0.526-0.537,0.752-0.751c0.464-0.419,0.819-0.658,0.819-0.658l0.037,0.033c0,0-0.196,0.38-0.56,0.889
			c-0.187,0.249-0.402,0.543-0.66,0.833c-0.265,0.284-0.562,0.574-0.854,0.868c-1.151,1.193-2.336,2.357-2.336,2.357L61.964,31.017z
			"/>
	</g>
	<g display="inline">
		<path fill="#662D91" d="M89.986,7.829c0,0-3.075,2.698-6.207,5.324c-0.775,0.667-1.541,1.344-2.283,1.949
			c-0.761,0.583-1.484,1.107-2.133,1.522c-0.651,0.41-1.192,0.755-1.593,0.968c-0.394,0.222-0.63,0.334-0.63,0.335l-0.063-0.079
			c0,0,0.165-0.203,0.475-0.533c0.301-0.34,0.764-0.784,1.316-1.32c0.557-0.531,1.237-1.111,1.982-1.712
			c0.764-0.579,1.603-1.163,2.434-1.759c3.291-2.423,6.639-4.773,6.639-4.773L89.986,7.829z"/>
	</g>
	<g display="inline">
		<path fill="#662D91" d="M87.743,23.032c0,0-2.314-0.083-4.621-0.233c-0.578-0.028-1.157-0.046-1.696-0.092
			c-0.538-0.066-1.037-0.147-1.462-0.249c-0.424-0.106-0.778-0.191-1.022-0.279c-0.246-0.078-0.385-0.137-0.385-0.137l0.008-0.074
			c0,0,0.148-0.028,0.405-0.052c0.258-0.033,0.621-0.042,1.059-0.055c0.437-0.009,0.941,0.019,1.48,0.068
			c0.537,0.07,1.106,0.176,1.677,0.271c2.286,0.344,4.565,0.756,4.565,0.756L87.743,23.032z"/>
	</g>
	<g display="inline">
		<path fill="#662D91" d="M82.946,31.05c0.001,0-1.185-1.226-2.336-2.48c-0.292-0.31-0.59-0.615-0.854-0.914
			c-0.258-0.304-0.472-0.611-0.658-0.871c-0.361-0.53-0.556-0.923-0.557-0.923l0.039-0.032c-0.001,0,0.355,0.256,0.82,0.698
			c0.227,0.226,0.494,0.487,0.753,0.791c0.251,0.309,0.504,0.653,0.763,0.991c1.052,1.339,2.068,2.708,2.069,2.708L82.946,31.05z"/>
	</g>
	<path display="inline" fill="#FF341F" d="M76.539,24.917c0.143-0.524,0.143-1.047,0.284-1.047c0.143,0,0.286,0.349,0.286,0.874
		c0,0.873-0.286,1.747-0.57,2.096C75.97,27.19,76.11,26.838,76.539,24.917z"/>
	<path display="inline" fill="#FF341F" d="M67.834,23.869c0.143,0,0.143,0.349,0.286,1.047c0.427,1.922,0.427,2.274,0,1.922
		c-0.286-0.174-0.571-1.223-0.571-2.096C67.549,24.393,67.691,24.042,67.834,23.869z"/>
	<path display="inline" fill="#FF341F" d="M40.45,48.421c0.571,1.178,0.729,2.353,0.353,2.623c-0.373,0.272-1.139-0.465-1.706-1.644
		c-0.569-1.178-0.726-2.352-0.351-2.624C39.119,46.506,39.883,47.242,40.45,48.421z"/>
	<path display="inline" fill="#FF341F" d="M99.78,49.373c-0.536,1.2-1.284,1.963-1.663,1.708c-0.382-0.259-0.253-1.439,0.288-2.635
		c0.535-1.201,1.281-1.964,1.66-1.71C100.445,46.993,100.317,48.172,99.78,49.373z"/>
	<path display="inline" opacity="0.6" fill="#FFFFFF" d="M40.102,48.539c0.183,0.399,0.134,0.855-0.11,1.024
		c-0.243,0.167-0.589-0.018-0.771-0.417c-0.182-0.399-0.133-0.857,0.11-1.025C39.575,47.953,39.92,48.142,40.102,48.539z"/>
	<path display="inline" opacity="0.6" fill="#FFFFFF" d="M99.437,49.109c-0.164,0.412-0.496,0.627-0.75,0.477
		c-0.25-0.145-0.325-0.598-0.162-1.01c0.159-0.41,0.494-0.625,0.748-0.479C99.523,48.244,99.597,48.697,99.437,49.109z"/>
	<path display="inline" opacity="0.6" fill="#FFFFFF" d="M68.109,25.494c0.067,0.289,0.035,0.551-0.068,0.588
		c-0.107,0.037-0.248-0.167-0.314-0.453c-0.068-0.288-0.039-0.551,0.069-0.589C67.902,25.003,68.043,25.206,68.109,25.494z"/>
	<path display="inline" opacity="0.6" fill="#FFFFFF" d="M76.859,25.912c-0.061,0.291-0.205,0.495-0.323,0.459
		c-0.118-0.039-0.166-0.303-0.104-0.593c0.06-0.29,0.205-0.496,0.322-0.458C76.874,25.358,76.922,25.624,76.859,25.912z"/>
</g>
<g id="elf" display="none">
	<g display="inline">
		<path fill="#F4DAB8" d="M44.498,63.659c-1.068-3.241-4.456-8.017-4.516-7.02c-1.242-1.088-2.764-2.175-4.283-3.261
			C31,49.934,29.341,49.39,22.292,44.681c-5.25-3.442-7.739-5.254-10.918-7.791c-4.7-4.166-8.153-8.333-10.366-11.232
			c3.178,8.151,6.635,13.949,9.398,17.936c7.049,10.145,9.676,8.334,17.967,19.928c5.251,7.249,8.427,11.235,13.816,15.037
			C42.301,78.607,46.346,69.28,44.498,63.659z"/>
		<path fill="#F4DAB8" d="M129.818,38.483c-3.04,2.718-5.664,4.353-10.917,7.795c-7.05,4.712-8.709,5.264-13.407,8.707
			c-1.52,1.085-3.041,2.193-4.283,3.281c0-0.249-1.67,23.743-1.385,22.246c0.276-0.184,0.554-0.366,0.693-0.546
			c5.391-3.805,6.771-7.791,12.023-15.039c8.431-11.593,10.92-9.781,17.967-19.927c2.902-4.167,6.357-9.963,9.398-17.934
			C137.836,30.146,134.519,34.317,129.818,38.483z"/>
		<path fill="#E9AD8D" d="M42,70.88c0-0.541-0.777-1.266-1.332-1.809c-0.83-0.729-1.357-1.632-2.188-2.355
			c-1.52-1.45-2.959-3.082-4.48-4.712c-3.037-3.08-6.038-6.34-9.356-9.239c-3.18-2.9-6.612-5.436-9.79-8.334
			c-3.182-2.9-6.211-6.16-9.113-9.604c2.764,3.625,5.672,6.886,8.85,9.966c3.18,3.081,6.5,5.797,9.68,8.877
			c3.178,2.897,6.082,6.339,9.121,9.602c1.521,1.629,2.902,3.443,4.424,5.07c0.828,0.908,1.127,1.634,1.816,2.538
			C40.322,71.787,42,73.418,42,74.324v-0.547c0-0.359,0-0.906,0-1.264C42,71.969,42,71.424,42,70.88z"/>
		<path fill="#E9AD8D" d="M129.009,41.072c-3.315,2.899-6.633,5.616-9.951,8.516c-3.179,2.898-6.357,5.979-9.396,9.24
			c-1.521,1.63-3.181,3.26-4.698,4.71l-2.352,2.355c-0.555,0.544-1.105,1.269-1.658,1.813c-0.14,0.542-0.14,1.085-0.14,1.631
			c-0.138,0.361-0.138,0.723-0.138,1.086l-0.138,0.725c0.691-0.905,2.212-2.716,2.903-3.442l2.348-2.356
			c1.521-1.63,3.041-3.441,4.563-5.073c2.902-3.26,5.943-6.522,9.121-9.604c3.179-3.08,6.495-5.796,9.677-8.876
			c1.518-1.63,3.038-3.26,4.56-4.892c1.521-1.63,3.041-3.441,4.421-5.434c-1.38,1.811-2.9,3.442-4.421,5.073
			C132.188,38.173,130.667,39.624,129.009,41.072z"/>
	</g>
	<g display="inline">
		<g>
			<path fill="#FFFA97" d="M58.48,73.555l2.488,0.185C60.141,73.555,59.311,73.375,58.48,73.555z"/>
			<path d="M58.414,73.56l0.07-0.055c0.221-0.175,0.435-0.243,0.647-0.29c0.211-0.04,0.421-0.056,0.624,0.016
				c0.203,0.075,0.398,0.25,0.604,0.3c0.204,0.055,0.416,0.012,0.63-0.061l-0.079,0.533c-0.223,0.052-0.44,0.085-0.646,0.068
				c-0.203,0.011-0.398,0.01-0.59-0.029c-0.183-0.032-0.365-0.074-0.559-0.166c-0.186-0.051-0.385-0.137-0.624-0.272L58.414,73.56z
				 M58.47,73.506c0.177-0.185,0.395-0.32,0.625-0.418c0.226-0.071,0.462-0.097,0.697-0.107c0.45,0.067,0.872,0.204,1.236,0.495
				l2.007,1.599l-2.085-1.065c-0.201-0.103-0.404-0.177-0.614-0.153c-0.21,0.02-0.429,0.163-0.641,0.208
				c-0.211,0.04-0.417-0.006-0.62-0.077c-0.203-0.077-0.404-0.177-0.597-0.382l-0.05-0.054L58.47,73.506z"/>
		</g>
		<g>
			<path fill="#FFFA97" d="M102.02,57.448c0-1.269-0.142-2.522-0.142-2.522s-0.137-2.142-0.55-4.134
				c-0.968-5.979-3.042-11.352-5.807-16.063c-2.488-4.167-5.39-6.836-8.845-9.373C82.53,22.095,77.691,21,72.718,21
				c-0.415,0-0.968,0-1.385,0c-0.411,0-0.966,0-1.38,0c-7.463,0-14.512,3.451-19.764,10.154c-2.351,3.079-4.423,5.947-5.943,9.933
				c-0.553,1.45-3.141,11.653-3.456,16.507c-0.315,4.854,1.106,22.385,1.382,22.564c1.521,6.524,4.146,13.188,8.847,18.98
				c1.658,1.999,4.009,4.331,7.05,6.506l2.521,2.16l0.794,0.54l2.349,1.268l-1.658-2.54c-1.105-1.447-2.072-3.08-2.9-4.892
				c-4.146-8.877-3.042-18.66-1.936-23.914c0.139,0,0.139,0.181,0.275,0.181l0.967-4.893c0.83-2.535,1.66-4.346,2.35-5.252
				c0.693-1.086,1.521-1.814,1.521-1.814c1.658-1.811,3.178-2.716,4.561-3.44c0.275-0.182,0.553-0.363,0.691-0.363
				c1.383-0.903,2.902-2.354,5.942-5.072c3.455-3.26,5.253-5.797,6.497-7.427c1.243-1.629,1.521-2.175,2.348-2.175
				c3.595,0,7.741,11.595,9.122,21.922c0.554,5.979,0.554,11.957-0.414,17.938c-0.013,0.034,0,0.001,0,0.001
				s-0.324,4.599-0.554,5.797c-0.229,1.195-2.764,9.599-4.146,12.861c5.113-3.985,7.19-5.693,9.536-11.414
				C102.321,79.535,102.108,57.37,102.02,57.448z"/>
			<path d="M101.984,57.477l-0.008-0.025c-0.096-1.344-0.157-2.687-0.335-4.021c-0.224-1.325-0.4-2.648-0.728-3.959
				c-0.51-2.652-1.322-5.21-2.269-7.709c-0.551-1.221-1.027-2.477-1.622-3.675c-0.644-1.167-1.239-2.392-1.919-3.511
				c-1.48-2.264-3.054-4.41-5.036-6.205c-0.93-0.96-1.998-1.765-3.046-2.593c-1.041-0.816-2.165-1.617-3.307-2.233
				c-2.313-1.275-4.881-2.112-7.511-2.447c-1.32-0.166-2.637-0.228-3.979-0.224l-2.02,0.008c-0.625,0.011-1.33,0.08-1.991,0.117
				l-1.008,0.066l-0.965,0.187c-0.641,0.138-1.292,0.217-1.924,0.4c-1.259,0.407-2.534,0.767-3.712,1.381
				c-1.234,0.49-2.321,1.262-3.462,1.928c-0.541,0.379-1.054,0.801-1.583,1.199l-0.789,0.603l-0.728,0.676l-1.452,1.36l-1.313,1.498
				c-0.908,0.966-1.637,2.089-2.464,3.16c-0.719,1.118-1.53,2.18-2.141,3.365c-0.315,0.585-0.677,1.147-0.955,1.751l-0.81,1.822
				c-0.977,2.452-1.493,5.137-2.153,7.708c-0.538,2.629-1.154,5.25-1.444,7.904c-0.075,0.663-0.221,1.32-0.238,1.987
				c-0.027,0.658-0.03,1.331-0.027,2c0.011,1.341,0.053,2.684,0.108,4.027c0.112,2.687,0.271,5.373,0.458,8.056l0.309,4.023
				l0.364,3.851l0.089,0.127l0.464,1.859c0.143,0.623,0.342,1.23,0.519,1.844c0.337,1.233,0.793,2.427,1.207,3.636l0.725,1.772
				c0.228,0.598,0.515,1.169,0.789,1.745c0.286,0.57,0.524,1.166,0.853,1.715l0.942,1.668c0.321,0.552,0.692,1.072,1.035,1.61
				c0.343,0.539,0.698,1.068,1.098,1.567l1.153,1.518l1.278,1.437c0.44,0.462,0.899,0.901,1.347,1.353
				c0.437,0.462,0.943,0.856,1.416,1.283c0.477,0.424,0.955,0.846,1.472,1.22l1.52,1.16l0.012,0.009l0.003,0.003l2.529,2.155
				l-0.02-0.016l0.796,0.539l-0.02-0.012l2.353,1.261l-0.308,0.334l-1.667-2.533l0.01,0.015l-1.066-1.572l-0.529-0.789l-0.442-0.84
				l-0.883-1.681l-0.705-1.76c-0.226-0.585-0.473-1.16-0.684-1.752l-0.495-1.841c-0.148-0.617-0.366-1.224-0.456-1.849l-0.301-1.873
				c-0.103-0.624-0.212-1.248-0.234-1.88l-0.133-1.892c-0.065-0.63-0.033-1.263-0.035-1.894l0.018-1.896l0.137-1.89
				c0.033-0.632,0.104-1.259,0.195-1.885c0.089-0.625,0.147-1.255,0.261-1.876l0.338-1.865l0.059-0.325l0.315,0.021
				c0.104,0.008,0.224,0.048,0.311,0.105c0.051,0.043,0.09,0.087,0.13,0.134c0.001-0.003-0.003-0.006-0.011-0.006
				c-0.034-0.041-0.104-0.065-0.155-0.054l-0.376,0.309l0.943-4.897l0.005-0.026l0.007-0.021l0.478-1.378
				c0.147-0.462,0.351-0.91,0.529-1.364c0.171-0.457,0.393-0.899,0.613-1.343c0.193-0.449,0.504-0.873,0.77-1.305l-0.021,0.029
				l0.755-0.985c0.132-0.16,0.241-0.335,0.392-0.483l0.446-0.448l-0.035,0.034l1.048-1.039c0.345-0.351,0.759-0.629,1.136-0.946
				c0.376-0.322,0.814-0.554,1.219-0.835c0.414-0.267,0.85-0.483,1.273-0.727l-0.041,0.023c0.113-0.074,0.223-0.148,0.353-0.224
				c0.056-0.037,0.137-0.078,0.216-0.116c0.043-0.019,0.063-0.037,0.152-0.06c0.074-0.02,0.151-0.034,0.226-0.042l-0.254,0.075
				l1.522-1.21l0.762-0.604l0.738-0.664l2.927-2.642c0.912-0.952,1.913-1.856,2.752-2.848l1.284-1.475l1.225-1.543l1.196-1.583
				c0.41-0.529,0.757-1.057,1.27-1.612c0.249-0.275,0.71-0.576,1.17-0.601l0.168-0.014c0.154,0.001,0.113,0.007,0.18,0.01
				l0.252,0.027c0.217,0.054,0.465,0.112,0.626,0.203c0.723,0.338,1.246,0.858,1.702,1.389c0.901,1.079,1.558,2.275,2.153,3.486
				c0.587,1.215,1.085,2.463,1.536,3.724c0.899,2.523,1.606,5.103,2.183,7.708c0.286,1.303,0.538,2.614,0.752,3.932
				c0.104,0.674,0.205,1.287,0.288,2.016l0.133,1.983c0.093,1.321,0.194,2.641,0.182,3.984c-0.008,1.337,0.091,2.679-0.019,4.01
				c-0.086,1.332-0.099,2.67-0.245,3.997l-0.492,3.979l-0.006,0.042l-0.02,0.053l-0.002,0.006c0.001-0.002-0.003,0.009,0.007-0.02
				l-0.721-0.587l-0.219,0.391L90.813,88H91v-0.303v-0.005l1.061-3.22l-0.369,3.434l-0.241,2.417l-0.299,2.438
				c-0.063,0.412-0.067,0.801-0.188,1.231l-0.324,1.166c-0.2,0.777-0.465,1.555-0.698,2.331c-0.242,0.775-0.474,1.558-0.728,2.325
				l-0.767,2.301c-0.481,1.539-1.11,3.05-1.671,4.572l-0.627-0.481c0.876-0.685,1.766-1.357,2.616-2.063
				c0.434-0.345,0.859-0.698,1.264-1.069c0.412-0.365,0.83-0.726,1.199-1.127c0.384-0.391,0.774-0.775,1.102-1.212
				c0.347-0.421,0.695-0.841,0.979-1.31c0.628-0.893,1.129-1.875,1.613-2.862c1.873-4.003,3.126-8.299,4.118-12.623
				c0.978-4.336,1.648-8.741,2.148-13.164c0.245-2.212,0.438-4.431,0.576-6.654c0.069-1.111,0.126-2.224,0.166-3.336l0.052-1.669
				L102,58.283v-0.417l-0.011-0.208l-0.007-0.103l0.009-0.051L102,57.48v-0.012C102,57.47,101.984,57.475,101.984,57.477z
				 M102.068,57.435c0.003,0.005,0.008,0.014,0.005,0.018l0.002,0.015l0.003,0.028l0.003,0.053l0.006,0.105l0.007,0.209l0.009,0.419
				l0.007,0.836l-0.014,1.673c-0.019,1.115-0.055,2.229-0.102,3.344c-0.097,2.229-0.247,4.455-0.449,6.677
				c-0.398,4.445-1.04,8.873-1.978,13.244c-0.955,4.364-2.166,8.696-4.032,12.795c-0.485,1.016-0.989,2.033-1.635,2.971
				c-0.291,0.49-0.649,0.933-1.007,1.375c-0.339,0.46-0.738,0.863-1.132,1.272c-0.382,0.423-0.805,0.795-1.224,1.174
				c-0.412,0.387-0.841,0.749-1.275,1.103c-0.858,0.726-1.739,1.406-2.612,2.104l-1.114,0.891l0.487-1.371
				c0.537-1.509,1.135-2.984,1.601-4.528l0.738-2.295c0.245-0.766,0.46-1.532,0.692-2.298c0.222-0.77,0.47-1.523,0.663-2.31
				l0.307-1.169c0.099-0.347,0.097-0.777,0.15-1.161l0.242-2.369l0.182-2.404l0.968,0.214l0.217,0.01L92,88.064v0.003l-0.227,0.016
				l-0.328,0.24l-0.776-0.586l-0.021-0.02l-0.005-0.022L90.61,87.79l0.475-3.913c0.142-1.306,0.149-2.624,0.231-3.936
				c0.106-1.314,0.005-2.625,0.012-3.938c0.012-1.309-0.093-2.632-0.188-3.954l-0.137-1.983c-0.07-0.586-0.18-1.283-0.281-1.918
				c-0.213-1.297-0.463-2.59-0.748-3.874c-0.572-2.567-1.273-5.108-2.158-7.577c-0.445-1.232-0.934-2.448-1.491-3.623
				c-0.564-1.167-1.195-2.313-1.993-3.274c-0.396-0.473-0.852-0.899-1.335-1.123c-0.13-0.074-0.212-0.073-0.311-0.12l-0.242-0.027
				c-0.016-0.001-0.139-0.015-0.066-0.006l-0.08,0.009c-0.208,0.018-0.341,0.096-0.547,0.297c-0.391,0.416-0.789,0.991-1.19,1.507
				l-1.208,1.583l-1.254,1.565l-1.333,1.516c-0.881,1.027-1.858,1.898-2.783,2.855l-2.986,2.672l-0.744,0.662l-0.798,0.628
				l-1.598,1.253l-0.254,0.076c0.011,0.008,0.024,0.009,0.035,0.004c0.022-0.013-0.013,0.005-0.029,0.014
				c-0.039,0.02-0.077,0.035-0.13,0.07c-0.097,0.056-0.205,0.127-0.312,0.196l-0.01,0.007l-0.031,0.018
				c-0.406,0.232-0.832,0.44-1.223,0.691c-0.381,0.264-0.799,0.479-1.152,0.781c-0.355,0.298-0.745,0.553-1.072,0.885l-0.998,0.977
				l-0.031,0.03l-0.003,0.003l-0.394,0.39c-0.134,0.126-0.237,0.291-0.357,0.434l-0.699,0.888l-0.012,0.015l-0.009,0.015
				c-0.236,0.388-0.51,0.737-0.703,1.173c-0.212,0.417-0.427,0.832-0.598,1.276c-0.177,0.439-0.378,0.867-0.528,1.321l-0.481,1.345
				l0.012-0.048l-0.991,4.888l-0.067,0.331l-0.309-0.022c-0.105-0.007-0.228-0.05-0.315-0.109c-0.046-0.041-0.088-0.087-0.125-0.132
				c0.001,0.006,0.004,0.005,0.015,0.01c0.034,0.039,0.101,0.061,0.151,0.05l0.374-0.303l-0.351,1.832
				c-0.118,0.61-0.182,1.23-0.275,1.846c-0.095,0.615-0.172,1.232-0.21,1.854l-0.154,1.86l-0.036,1.865
				c-0.004,0.621-0.042,1.244,0.017,1.864l0.112,1.862c0.015,0.623,0.116,1.236,0.212,1.851l0.277,1.844
				c0.083,0.617,0.289,1.201,0.427,1.805l0.46,1.797c0.204,0.589,0.446,1.171,0.668,1.756l0.68,1.737l0.855,1.654l0.428,0.827
				l0.513,0.776l1.034,1.548l0.01,0.015l1.649,2.545l0.503,0.775l-0.811-0.441l-2.344-1.276l-0.011-0.006l-0.009-0.007l-0.792-0.544
				l-0.011-0.008l-0.009-0.008l-2.514-2.173l0.014,0.012l-1.528-1.184c-0.52-0.381-1-0.811-1.479-1.241
				c-0.475-0.436-0.98-0.835-1.422-1.309c-0.452-0.461-0.916-0.912-1.356-1.381l-1.268-1.445l-1.163-1.551
				c-0.399-0.506-0.754-1.042-1.096-1.588c-0.342-0.545-0.712-1.072-1.031-1.631l-0.938-1.687c-0.333-0.551-0.58-1.146-0.873-1.72
				c-0.281-0.578-0.575-1.15-0.81-1.75l-0.746-1.779c-0.427-1.212-0.897-2.412-1.247-3.649c-0.184-0.616-0.39-1.227-0.539-1.852
				l-0.484-1.867l0.089,0.127c-0.042-0.04-0.084-0.1-0.107-0.158c-0.02-0.056-0.014-0.055-0.023-0.085l-0.029-0.137l-0.042-0.256
				l-0.068-0.505l-0.117-1.007l-0.202-2.013l-0.345-4.027c-0.211-2.686-0.395-5.374-0.53-8.067
				c-0.067-1.346-0.121-2.694-0.144-4.045c-0.009-0.677-0.013-1.351,0.01-2.038c0.012-0.681,0.154-1.347,0.225-2.021
				c0.274-2.709,0.872-5.34,1.393-7.991c0.657-2.64,1.136-5.287,2.129-7.845l0.815-1.875c0.281-0.621,0.645-1.199,0.963-1.801
				c0.617-1.217,1.436-2.312,2.166-3.462c0.81-1.065,1.545-2.215,2.475-3.224l1.337-1.55l1.483-1.414l0.746-0.703l0.816-0.622
				c0.549-0.407,1.083-0.837,1.646-1.225c1.186-0.683,2.317-1.468,3.6-1.968c1.225-0.624,2.55-0.99,3.857-1.398
				c0.66-0.185,1.354-0.268,2.029-0.404l1.019-0.184l1.008-0.058c0.683-0.032,1.319-0.093,2.04-0.102l2.02,0.008
				c1.352,0.007,2.725,0.082,4.077,0.264c2.709,0.369,5.346,1.248,7.735,2.591c1.221,0.678,2.289,1.456,3.359,2.306
				c1.059,0.85,2.137,1.676,3.077,2.662c2.005,1.842,3.623,4.091,5.063,6.337c0.707,1.184,1.279,2.393,1.926,3.588
				c0.597,1.213,1.058,2.49,1.583,3.735c0.908,2.551,1.672,5.158,2.124,7.809c0.299,1.311,0.452,2.662,0.649,3.997
				C101.971,54.748,102.003,56.096,102.068,57.435z"/>
		</g>
	</g>
	<path display="inline" d="M87.558,101.096c-0.691,1.085-0.855,1.448-1.409,2.171c-0.553,0.726-1.809,2.357-4.712,6.887
		l-0.284,0.363c-1.935,3.076-3.317,5.07-5.668,6.519c-1.521,1.089-3.18,1.632-4.286,1.632s-2.765-0.723-4.286-1.632
		c-2.347-1.448-3.731-3.442-5.665-6.519l-0.968-1.453c-0.414-0.723-0.969-1.632-1.383-2.169l1.012,0.007l1.476,1.439l0.83,1.27
		c1.796,2.897,3.04,4.706,5.251,6.16c1.521,1.084,3.041,1.446,3.731,1.446s2.212-0.542,3.732-1.446
		c2.211-1.454,3.317-3.263,5.251-6.16l0.276-0.363c3.041-4.529,4.146-6.157,4.838-7.066c0.552-0.723,0.691-1.085,1.244-1.99
		c2.073-3.988,2.765-6.282,3.455-8.822c0.277-1.085,1.179-3.964,1.179-3.964l-0.017,5.554
		C91.155,92.958,87.975,100.303,87.558,101.096z"/>
	<path display="inline" fill="#F4DAB8" d="M82.391,48.011c-0.826,0-1.104,0.545-2.348,2.175c-1.244,1.63-3.042,4.167-6.497,7.427
		c-3.04,2.718-4.56,4.169-5.942,5.072c-0.139,0-0.416,0.181-0.691,0.363c-1.383,0.724-2.902,1.63-4.561,3.44
		c0,0-0.828,0.728-1.521,1.814c-0.689,0.906-1.52,2.717-2.35,5.252c0.83-0.18,1.66,0,2.488,0.185
		c0.969,0.179,1.797,0.54,2.627,1.267c0.414,0.361,0.828,0.725,1.243,1.266c0.415,0.547,0.829,1.088,1.106,1.813
		c-0.553,0.545-0.967,0.904-1.521,1.089c-0.551,0.362-1.104,0.362-1.519,0.546c-0.968,0.359-1.937,0.18-2.765,0
		c-0.967-0.184-1.797-0.546-2.627-1.271c-0.137,0-0.137-0.181-0.275-0.181c-1.106,5.254-2.211,15.037,1.936,23.914
		c0.828,1.812,1.795,3.443,2.9,4.892l1.658,2.538l-2.349-1.27l0.83,1.27c1.796,2.897,3.04,4.706,5.251,6.16
		c1.521,1.084,3.041,1.446,3.731,1.446s2.212-0.542,3.732-1.446c2.211-1.454,3.317-3.263,5.251-6.16l0.276-0.363
		c3.041-4.529,4.146-6.157,4.838-7.066c0.552-0.723,0.691-1.085,1.244-1.99c2.073-3.988,2.903-6.703,3.594-9.244
		c0.277-1.085,0.553-1.991,0.967-3.076c0.968-5.98,0.968-11.958,0.414-17.938C90.132,59.605,85.985,48.011,82.391,48.011z
		 M66.957,96.021C67.096,95.299,67,94.571,67,94.03c0,0.723,0,1.447,0,1.99c0,0.182,0.51,0.079,0.646,0.263
		C67.785,96.465,68.295,96,68.295,96s0,0,0.139,0c0.137,0,0.553,0.283,0.828,0.283c0.414,0.182,0.691,0.416,0.969,0.592
		c0.275,0.184,0.552-0.347,0.691-0.165L71.059,96c0.138,0,0.138,0,0.138,0c0.137,0,0.137,0,0.137,0s0,1.008,0.141,0.824
		c0.138-0.182,0.413-0.039,0.689-0.224c0.416-0.176,0.691-0.572,0.968-0.572c0.277,0,0.69-0.028,0.83-0.028c0.139,0,0.139,0,0.139,0
		l0.138,0.283c0.138-0.184,0.138-0.132,0.138-0.493c0.138-0.724,0-1.153,0-1.876c0.278,0.723,0.416,1.325,0.554,2.047
		c0,0.364,0.138,0.756,0,1.299c0,0.362-0.138,0.872-0.275,1.054C74.513,98.674,74.237,99,74.1,99c-0.278,0-0.554,0-0.691,0
		s-0.416-0.314-0.554-0.129c-0.137,0.178-0.275,0.204-0.413,0.384c-0.139,0-0.278,0.103-0.417,0.288
		c-0.274,0.179-0.413,0.142-0.691,0.142c-0.274,0-0.551-0.023-0.69-0.203c-0.137-0.184-0.275-0.19-0.412-0.371
		c-0.14-0.362-0.277-0.055-0.416-0.235C69.676,98.875,69.4,99,69.262,99s-0.414,0-0.691,0c-0.137,0-0.416-0.492-0.552-0.672
		c-0.276-0.184-0.532-0.52-0.809-0.883C67.072,96.903,66.957,96.385,66.957,96.021z M74.929,107.072
		c-1.244,0.359-2.35,0.547-3.596,0.547c-1.242,0-2.347-0.188-3.591-0.547c-0.555-0.363-1.245-0.543-1.797-0.906
		c-0.553-0.363-1.244-0.905-1.799-1.448c0.555-0.726,1.246-1.089,1.799-1.451c0.552-0.363,1.242-0.723,1.797-0.902
		c1.244-0.366,2.349-0.544,3.591-0.544c1.246,0,2.352,0.178,3.596,0.902c1.244,0.367,2.35,0.906,3.593,2.176
		C77.278,105.987,76.173,106.709,74.929,107.072z M86.399,77.359c-0.414,0.545-0.829,0.907-1.243,1.27
		c-0.83,0.544-1.799,1.09-2.626,1.27c-0.83,0.18-1.799,0.18-2.764,0c-0.555-0.18-0.968-0.363-1.521-0.547
		c-0.415-0.179-0.968-0.543-1.521-1.085c0.276-0.722,0.691-1.269,1.106-1.812s0.827-0.906,1.244-1.269
		c0.827-0.542,1.796-1.085,2.625-1.269c0.83-0.179,1.797-0.179,2.765,0c0.554,0.184,0.967,0.361,1.521,0.543
		c0.414,0.184,0.968,0.545,1.52,1.088C87.229,76.271,86.813,76.818,86.399,77.359z"/>
	<path display="inline" fill="#E9AD8D" d="M71.333,99.69c-0.274,0-0.551-0.024-0.69-0.202c-0.137-0.184-0.275-0.195-0.412-0.377
		c-0.14-0.364-0.277-0.055-0.416-0.234C69.676,98.877,69.4,99,69.262,99s-0.414,0-0.691,0c-0.137,0-0.416-0.492-0.552-0.672
		c-0.276-0.184-0.374-0.52-0.651-0.883c-0.137-0.542-0.41-1.075-0.41-1.438C67.096,95.285,67,94.571,67,94.03
		c0,0.723,0,1.447,0,1.99c0,0.182,0.51,0.079,0.646,0.263C67.785,96.465,68.295,96,68.295,96s0,0,0.139,0
		c0.137,0,0.553,0.283,0.828,0.283c0.414,0.182,0.691,0.416,0.969,0.592c0.275,0.184,0.552-0.347,0.691-0.165L71.059,96
		c0.138,0,0.138,0,0.138,0c0.137,0,0.137,0,0.137,0s0,1.008,0.141,0.824c0.138-0.182,0.413-0.039,0.689-0.224
		c0.416-0.176,0.691-0.572,0.968-0.572c0.277,0,0.69-0.028,0.83-0.028c0.139,0,0.139,0,0.139,0l0.138,0.283
		c0.138-0.184,0.138-0.132,0.138-0.493c0.138-0.724,0-1.153,0-1.876c0.278,0.723,0.416,1.325,0.554,2.047
		c0,0.364,0.138,0.756,0,1.299c0,0.362-0.138,0.872-0.275,1.054C74.513,98.674,74.237,99,74.1,99c-0.278,0-0.554,0-0.691,0
		s-0.416-0.314-0.554-0.129"/>
	<path display="inline" fill="#E9AD8D" d="M72.854,98.926c-0.137,0.181-0.275,0.18-0.413,0.359c-0.139,0-0.278,0.088-0.417,0.271
		c-0.274,0.18-0.413,0.135-0.691,0.135"/>
	<path display="inline" fill="#F7C6C6" d="M74.929,107.072c-1.244,0.359-2.35,0.547-3.596,0.547c-1.242,0-2.347-0.188-3.591-0.547
		c-0.555-0.363-1.245-0.543-1.797-0.906c-0.553-0.363-1.244-0.905-1.799-1.448c0.555-0.726,1.246-1.089,1.799-1.451
		c0.552-0.363,1.242-0.723,1.797-0.902c1.244-0.366,2.349-0.544,3.591-0.544c1.246,0,2.352,0.178,3.596,0.902
		c1.244,0.367,2.35,0.906,3.593,2.176C77.278,105.987,76.173,106.709,74.929,107.072z"/>
	<path display="inline" fill="#FFFFFF" d="M86.399,77.359c-0.414,0.545-0.829,0.907-1.243,1.27c-0.83,0.544-1.799,1.09-2.626,1.27
		c-0.83,0.18-1.799,0.18-2.764,0c-0.555-0.18-0.968-0.363-1.521-0.547c-0.415-0.179-0.968-0.543-1.521-1.085
		c0.276-0.722,0.691-1.269,1.106-1.812s0.827-0.906,1.244-1.269c0.827-0.542,1.796-1.085,2.625-1.269
		c0.83-0.179,1.797-0.179,2.765,0c0.554,0.184,0.967,0.361,1.521,0.543c0.414,0.184,0.968,0.545,1.52,1.088
		C87.229,76.271,86.813,76.818,86.399,77.359z"/>
	<path display="inline" fill="#3FA9F5" d="M83.722,77.008c0,1.215-0.814,2.196-1.818,2.196c-1.006,0-1.818-0.981-1.818-2.196
		c0-1.217,0.813-2.197,1.818-2.197C82.907,74.811,83.722,75.791,83.722,77.008z"/>
	<ellipse display="inline" cx="81.958" cy="76.818" rx="0.661" ry="0.799"/>
	<path display="inline" fill="#FFFFFF" d="M58.48,73.555c0,0,1.66,0,2.488,0.185c0.969,0.179,1.797,0.54,2.627,1.267
		c0.414,0.361,0.828,0.725,1.243,1.266c0.415,0.547,0.829,1.088,1.106,1.813c-0.553,0.545-0.967,0.904-1.521,1.089
		c-0.551,0.362-1.104,0.362-1.519,0.546c-0.968,0.359-1.937,0.18-2.765,0c-0.967-0.184-1.797-0.546-2.627-1.271
		c-0.137,0-0.275-0.181-0.275-0.181L58.48,73.555z"/>
	<path display="inline" fill="#3FA9F5" d="M63.127,77.008c0,1.215-0.814,2.196-1.82,2.196c-1.004,0-1.816-0.981-1.816-2.196
		c0-1.217,0.813-2.197,1.816-2.197C62.313,74.811,63.127,75.791,63.127,77.008z"/>
	<path display="inline" d="M62.023,76.818c0,0.441-0.297,0.799-0.66,0.799c-0.369,0-0.662-0.357-0.662-0.799
		c0-0.442,0.293-0.798,0.662-0.798C61.727,76.021,62.023,76.376,62.023,76.818z"/>
</g>
<g id="dwarf_adds" display="none">
	<polygon display="inline" fill="#E9AD8D" points="104.74,72.473 69.688,88.856 33.594,73.82 43.401,44 93.429,44 	"/>
	<path display="inline" fill="#FFC033" d="M97.291,43H41.162c0,0,1.268-7.891,7.316-15.572c4.3-5.463,11.83-11.84,21.208-11.809
		c9.378,0.03,17.008,6.435,22.276,12.246C98.861,35.475,97.291,43,97.291,43z"/>
	<path display="inline" fill="#FFFFFF" d="M63.363,56.565c-0.162,0.848-2.193,1.204-4.533,0.796
		c-2.342-0.408-4.107-1.426-3.945-2.272c0.162-0.848,2.191-1.203,4.534-0.795S63.526,55.719,63.363,56.565z"/>
	<path display="inline" fill="#FFFFFF" d="M85.398,54.939c0.194,0.842-1.378,1.888-3.512,2.338
		c-2.137,0.451-4.026,0.132-4.221-0.708c-0.196-0.841,1.375-1.886,3.512-2.337C83.313,53.782,85.201,54.099,85.398,54.939z"/>
	<path display="inline" fill="#E29017" d="M32.311,107.242c0.863-0.59,18.483,7.012,18.944,8.529
		c0.458,1.52-0.806,3.101-2.281,4.268c-2.289,1.812-16.899-5.166-17.982-6.546C29.911,112.113,31.449,107.831,32.311,107.242z"/>
	<path display="inline" fill="#E29017" d="M88.666,114.863c0.043-1.01,16.25-9.118,17.795-8.527
		c1.547,0.592,1.486,5.089,1.547,6.908c0.097,2.824-14.986,7.815-16.803,7.776C89.392,120.979,88.623,115.869,88.666,114.863z"/>
	<ellipse display="inline" fill="#A36D48" cx="38.961" cy="50.607" rx="1.385" ry="2.33"/>
	<ellipse display="inline" fill="#A36D48" cx="99.639" cy="50.607" rx="1.384" ry="2.33"/>
</g>
<g id="dwarf" display="none">
	<path display="inline" fill="#E9AD8D" d="M97.736,50.701c0,0,0.523,2.222,0.596-0.225c0.111-2.45,0.788-1.872,1.603-0.055
		c0.85,1.811-0.082,1.634-0.743,2.162c-0.658,0.527-0.612,3.105,0.835,4.913c1.42,1.886,2.048-5.062,0.523-10.405
		c-1.535-5.415-3.347-3.115-3.375-1.857c-0.032,1.259,0.176,0.729-0.266,2.283C96.402,49.158,97.736,50.701,97.736,50.701z"/>
	<path display="inline" fill="#E9AD8D" d="M38.021,57.545c1.947-1.832,1.869-4.448,0.923-4.946
		c-0.937-0.569-1.755-0.312-0.679-2.107c1.074-1.795,1.497-2.478,1.797,0.018c0.299,2.5,0.878,0.267,0.878,0.267
		s1.357-0.698,0.945-3.103c-0.226-1.67-0.419-1.225-0.499-2.428c-0.079-1.202-2.83-3.65-4.775,1.68
		C34.766,52.272,36.088,59.3,38.021,57.545z"/>
	<path display="inline" fill="#E29017" d="M42.32,44.28l-7.414,19.396l9.189,7.574l3.243-7.869
		c-6.487-5.074-2.238-19.101-2.238-19.101H42.32z"/>
	<path display="inline" fill="#E29017" d="M91.359,63.381l3.242,7.869l9.191-7.574L96.38,44.28h-2.781
		C93.599,44.28,97.847,58.307,91.359,63.381z"/>
	<rect x="41.162" y="40.288" display="inline" fill="#E29017" width="56.376" height="5.147"/>
	<path display="inline" d="M92.949,106.805l4.079-1.738c0,0,2.725-4.211,0.817-6.784c-0.092-1.589,3.378,0.981,2.92,3.608
		c-0.535,2.622,13.485-13.483,5.378-18.852c0,0,0.78-3.016,2.943,0c0,0,0.621-21.108-5.327-19.122
		c-5.947,1.984-10.592,9.707-10.977,13.09c-0.386,3.383,1.666,1.598-1.501-1.418c-3.165-3.016-10.195-10.738-20.774-3.383
		c0,0-4.248,0.662-5.251-1.03c-1.082-1.691-1.775,0-4.942-1.03c-3.167-1.029-13.746,2.354-16.527,9.047l0.442-8.269l-4.093,2.647
		v-5.369c0,0,1.83-0.768-1.7-2.647s-6.568,2.662-8.345,10.017c0,0,1.24-3.03,5.102-0.971c0,0-6.797,0.955-3.94,13.679
		c0,0-0.925-8.971,3.323-9.633c0,0-3.404,17.236,1.141,22.292l1.555,2.247l1.884-2.884l3.175,5.541c0,0,3.375,2.781,5.266-0.01
		c1.888-2.789,2.775,2.014,2.775,2.014s2.375-8.354,3.069-10.415c0.694-2.06,0.976,8.447,0.976,8.447l5.814,25.979l1.936,1.635
		l2.08-4.452l2.41,7.452l2.41-7.635l3.346,6.452l2.808-3.225l8.113-24.836l0.071-9.155c0,0,6.581,10.531,7.911,11.636
		C92.721,110.842,92.949,106.805,92.949,106.805z M68.655,86.695c0,0-0.696-4.046-4.942-4.046c0,0,10.193-1.029,12.665,0.663
		C76.453,83.386,68.346,84.415,68.655,86.695z M79.93,78.017c-4.557-1.029-2.471,3.383-2.471,3.383
		c-6.719-4.34-16.912-1.323-16.912-1.323c-3.555,1.029-3.861-1.324-3.861-1.324c-1.084-2.354-3.168,0-3.168,0
		c0-4.045,5.252-2.647,6.719-4.706c1.004-1.472,3.014,1.028,4.017,2.426c-0.309-1.397,2.316-2.133,2.316-2.133
		c-1.39,0.662,1.39,2.648,1.39,2.648l2.781-0.663c0-3.383,3.552-3.015,3.552-3.015c-3.552,1.029-0.386,2.647-0.386,2.647
		l4.942-1.029C78.849,75.001,84.484,79.046,79.93,78.017z"/>
	<ellipse display="inline" fill="#E29017" cx="69.35" cy="28.08" rx="3.166" ry="3.015"/>
	<path display="inline" fill="#E29017" d="M57.456,21.975c-7.953,2.794-13.513,8.017-14.055,14.636h18.458
		C62.398,33.668,62.785,28.079,57.456,21.975z"/>
	<path display="inline" fill="#E29017" d="M96.766,36.611c-0.542-6.619-6.564-12.282-15.139-15.004
		c-5.637,6.252-5.326,12.062-4.633,15.004H96.766z"/>
	<path display="inline" fill="#E29017" d="M65.102,33.081v3.53h7.414l-0.54-3.751C71.976,32.86,68.191,34.404,65.102,33.081z"/>
	<path display="inline" fill="#E29017" d="M73.984,26.388c2.085-4.339,2.469-7.722,2.469-7.722
		c-8.107,5.001-14.055,0.367-14.055,0.367l1.776,8.385C67.65,19.033,73.984,26.388,73.984,26.388z"/>
	<path display="inline" fill="#E29017" d="M69.725,3.368c-0.826,0.007-4.247,13.385-4.247,13.385h8.418
		C73.896,16.753,70.551,3.361,69.725,3.368z"/>
	<path display="inline" d="M51.077,110.082c-14.02,1.01-16.373-6.932-16.373-6.932c-2.634-2.171-1.529,3.502-1.529,3.502
		c-1.866-1.193-0.264,1.715-0.264,1.715c1.37,3.956,12.589,8.163,16.415,7.52c3.825-0.646,1.196-2.742,1.196-2.742
		C52.626,112.256,51.077,110.082,51.077,110.082z"/>
	<path display="inline" d="M31.549,113.111c0,0-7.131,4.198-4.344,12.771c0,0,0.766-4.404,3.513-4.971
		c2.746-0.565-6.295,6.132-1.833,13.258c0,0,1.815-9.201,5.668-9.479c0,0,0.623,8.657-6.098,13.196c0,0,10.86-6.164,11.603-10.936
		c0,0,0.934,3.322-4.038,7.369c0,0,12.874-2.918,13.03-14.729C48.974,119.598,40.218,120.597,31.549,113.111z"/>
	<path display="inline" d="M106.26,108.304c0,0,1.559-2.932-0.291-1.711c0,0,1.014-5.614-1.582-3.478c0,0-2.228,7.901-16.259,7.107
		c0,0-1.521,2.273,0.522,3.053c0,0-2.6,2.208,1.238,2.722C93.797,116.659,105.033,112.21,106.26,108.304z"/>
	<path display="inline" d="M108.721,120.818c2.756,0.523,3.592,4.917,3.592,4.917c2.572-8.547-4.542-12.705-4.542-12.705
		c-8.548,7.547-17.321,6.755-17.321,6.755c0.415,11.809,13.255,14.525,13.255,14.525c-5.034-3.971-4.149-7.307-4.149-7.307
		c0.813,4.76,11.768,10.757,11.768,10.757c-6.787-4.436-6.297-13.102-6.297-13.102c3.854,0.219,5.811,9.392,5.811,9.392
		C115.107,126.926,105.963,120.367,108.721,120.818z"/>
	<path display="inline" d="M63.404,60.219c-8.033,3.972-9.113,0.294-11.972-0.588c0,0,2.781,6.325,11.507,2.059l1.082,7.502
		l3.242-2.648l1.546-12.576l-3.244-0.441l1.236-0.809l-1.236-0.441l-5.868-0.662l-4.943-5.147l-5.482,2.132l1.93,0.515L49.58,51.54
		l2.316-1.913l6.023,4.708l0.695,0.073c-0.539,0.221-0.928,0.736-0.928,1.397c0,0.735,0.618,1.397,1.391,1.471h-0.541l-4.246-1.839
		l4.17,3.015l5.252-1.397l-4.094,0.146c0.695-0.146,1.235-0.735,1.235-1.47c0-0.516-0.231-0.957-0.618-1.178l3.477,0.368
		l0.849-0.588C66.569,55.512,68.5,57.644,63.404,60.219z"/>
	<path display="inline" d="M85.798,46.466l-4.942,5.147l-5.868,0.662l-1.234,0.441l1.157,0.809l-3.63,0.367l1.546,12.577
		l3.243,2.647l1.08-7.501c8.805,4.265,11.507-2.06,11.507-2.06c-2.935,0.883-4.016,4.56-11.971,0.588
		c-5.327-2.648-3.011-4.854-0.849-6.104l1.08,0.735l3.477-0.368c-0.387,0.294-0.619,0.736-0.619,1.177
		c0,0.735,0.543,1.323,1.236,1.471l-4.017-0.147l5.253,1.398l4.169-3.016l-4.247,1.839h-0.542c0.774-0.074,1.393-0.735,1.393-1.471
		c0-0.588-0.387-1.104-0.929-1.397l0.696-0.074l6.024-4.707l2.315,1.912l-1.62-2.427l2.007-0.588L85.798,46.466z"/>
	<path display="inline" fill="#E29017" d="M34.961,99.719c0.827-0.639,17.403,4.421,17.96,5.91c0.553,1.488-0.23,3.326-1.631,4.576
		c-2.17,1.938-16.998-2.62-18.37-5.496C32.168,103.139,34.138,100.357,34.961,99.719z"/>
	<path display="inline" fill="#E29017" d="M86.371,105.356c0.17-0.996,14.814-9.036,16.275-8.271c1.46,0.763,4.051,4.157,3.303,5.83
		c-2.309,5.15-13.666,9.239-17.6,7.45C86.707,109.617,86.203,106.351,86.371,105.356z"/>
</g>
<g id="golem">
	<path fill="#515151" d="M126.007,51.537l2.327-4.615l-3.783-6.264l0.583-5.936l-8.873-7.912l0.581-5.934L98.367,10.822
		l-6.108,10.385l-4.367-8.243H76.692H52.108l-4.363,8.243l-6.109-10.385L23.161,20.877l0.582,5.934l-8.873,7.912l0.58,5.936
		l-3.781,6.428l2.328,4.616L1.921,54.67v35.605l9.748,17.639l18.766,2.968L46.29,94.232l-2.91-13.021l-8.29-8.079l1.453-4.944
		l-6.981-8.242l5.236-6.924c11.929,4.946,20.073,17.639,20.511,31.981c-7.71,9.889-11.345,23.076-10.183,36.1l-3.928,2.802v3.63
		l2.328,1.646h9.455l3.49-2.969v-4.614l-1.309-1.318c0.729-8.57,8.712-17.965,15.838-23.33c6.874,5.303,13.111,14.76,13.837,23.33
		l-1.31,1.318v4.614l3.492,2.969h9.456l2.326-1.646v-3.63l-3.927-2.802c1.309-13.023-2.473-26.211-10.183-36.1
		c0.292-14.342,8.438-27.035,20.511-31.816l5.237,6.923l-6.983,8.243l1.457,4.944l-8.294,7.914l-2.909,13.021l15.856,16.649
		l18.766-2.968l9.745-17.639V54.505L126.007,51.537z"/>
	<path fill="#757575" d="M84.822,11.817l-5.72-9.544c-6.038-0.9-12.075-0.9-18.114,0l-5.723,9.544v5.222l-1.908,4.501l2.861,5.583
		l1.749,12.425h0.476c7.787,1.441,15.575,1.441,23.362,0h0.478l1.744-12.425l2.862-5.583l-1.91-4.501v-5.222H84.822z"/>
</g>
<g id="golem_adds">
	<polygon fill="#636262" points="71,61 71.712,43 68.288,43 69,61 	"/>
	<path fill="#66CC33" d="M66.027,20.1l-4.452-0.18c-1.111,0-2.227-0.72-2.86-1.801l-1.113-1.261c-0.634-1.081,0.32-2.521,1.43-2.161
		l7.311,2.881C67.614,18.119,67.295,20.1,66.027,20.1z"/>
	<path fill="#66CC33" d="M80.485,16.858l-0.953,1.441c-0.636,1.081-1.749,1.62-2.858,1.8l-4.451,0.18
		c-1.272,0-1.587-1.98-0.478-2.522l7.311-2.88C80.168,14.337,81.12,15.777,80.485,16.858z"/>
	<path d="M70.907,32.5c0,0.766,0,1.531-0.306,2.551c-0.313,0.765-0.62,1.785-1.24,2.551c-0.617-0.766-0.923-1.787-1.233-2.551
		c-0.312-0.765-0.312-1.785-0.312-2.551c0-0.765,0-1.785,0.312-2.55c0.311-0.765,0.616-1.787,1.233-2.551
		c0.62,0.764,0.928,1.786,1.24,2.551C70.907,30.715,70.907,31.734,70.907,32.5"/>
	<path d="M65.946,34.047c0.007,0.726,0.091,1.667-0.157,2.497c-0.758-0.427-1.342-1.167-1.84-1.694
		c-0.509-0.526-0.843-1.364-1.096-1.993s-0.59-1.467-0.584-2.199c-0.006-0.726-0.095-1.665,0.158-2.496
		c0.754,0.427,1.342,1.167,1.841,1.695c0.507,0.526,0.843,1.363,1.095,1.992C65.615,32.479,65.868,33.106,65.946,34.047z"/>
	<path d="M76.141,33.11c-0.271,0.645-0.831,1.169-1.191,2.028c-0.567,0.521-1.216,1.259-2.065,1.665
		c-0.315-0.894-0.251-1.877-0.273-2.643c-0.025-0.768,0.336-1.628,0.605-2.274c0.271-0.645,0.631-1.505,1.195-2.027
		c0.56-0.525,1.215-1.261,2.068-1.662c0.312,0.888,0.243,1.871,0.271,2.639C76.771,31.604,76.409,32.464,76.141,33.11"/>
	<polygon fill="#757575" points="15.274,106.518 29.603,109.062 43.986,93.537 40.945,83.522 33.712,77.216 	"/>
	<polygon fill="#757575" points="17.412,39.123 17.837,43.476 15.064,48.19 16.333,52.917 10.551,54.995 28.917,63.667 26.833,59.5 
		32.026,52.542 	"/>
	<polygon fill="#757575" points="45.637,27.065 41.208,13.477 26,22.667 27.505,39.123 	"/>
	<polygon fill="#757575" points="92.477,25.109 98.771,13.335 115.398,22.5 110.936,36.883 	"/>
	<polygon fill="#757575" points="122.325,39.629 121.932,43.982 124.501,48.696 123.325,53.423 128.685,55.5 111.665,64.173 
		113.595,60.006 108.784,53.048 	"/>
	<polygon fill="#757575" points="126.099,106.876 110.613,108.86 95.771,92.787 99.429,82.898 107.44,76.878 	"/>
	<path fill="#757575" d="M69,61c0,0-20.333-2.667-21.667-3.167s-4.926-17.205-4.926-17.205l25.881,2.205L69,61z"/>
	<path fill="#757575" d="M71,61c0,0,20.333-2.667,21.666-3.167C94,57.333,97.084,41,97.084,41l-25.372,1.833L71,61z"/>
	<path fill="#757575" d="M45.362,122.268l-2.955,2.108v2.73l1.751,1.238h7.114v-4.636C51.273,123.709,45.77,122.567,45.362,122.268z
		"/>
	<path fill="#757575" d="M94.72,122.268l3.359,2.108v2.73l-1.99,1.238H88v-4.636C88,123.709,94.257,122.567,94.72,122.268z"/>
	<polygon fill="#636262" points="30.083,44.504 48,32.231 45.637,27.065 27.505,39.123 	"/>
	<polygon fill="#636262" points="88.851,30.506 107.393,42.088 110.936,37 92.477,25.109 	"/>
	<polygon fill="#636262" points="15.274,106.518 6,88.75 27.505,74.411 33.712,77.216 	"/>
	<polygon fill="#636262" points="126.099,106.876 135.333,89.644 110.936,72.411 107.44,76.878 	"/>
	<polygon fill="#757575" points="76.878,85 63.21,85 53.357,64.173 86.89,63.667 	"/>
	<polygon fill="#333333" points="34,74.334 32.152,74 10.767,57.5 34,67.667 	"/>
	<polygon fill="#515151" points="79.625,13.477 69,17 58.75,13.477 57,11 69.123,15.335 81,11 	"/>
	<polygon fill="#333333" points="106,73 108.784,73 128.685,56.833 107.44,67.167 	"/>
	<polygon fill="#595959" points="55.568,106.518 48.599,104.773 53.357,92 66.333,92.869 	"/>
	<polygon fill="#595959" points="85.962,106.518 92.195,104.773 87.938,92 76.334,92.869 	"/>
	<polygon fill="#757575" points="53.163,120 46.163,120 47.599,107.635 55.568,108.31 	"/>
	<polygon fill="#757575" points="87.942,120 93.942,120 93.195,107.773 85.962,108.518 	"/>
	
		<ellipse transform="matrix(0.9334 0.3589 -0.3589 0.9334 10.6916 -21.4082)" opacity="0.3" fill="#FFFFFF" cx="63.014" cy="18.096" rx="2.373" ry="1.218"/>
	
		<ellipse transform="matrix(-0.9549 0.2969 -0.2969 -0.9549 153.2987 13.3568)" opacity="0.3" fill="#FFFFFF" cx="75.635" cy="18.318" rx="2.409" ry="1.236"/>
	<polygon points="72,22 67,22 68.375,25 70.712,25 	"/>
</g>
</svg>
