<?xml version="1.0" encoding="utf-8"?>
<!-- Generator: Adobe Illustrator 16.0.3, SVG Export Plug-In . SVG Version: 6.00 Build 0)  -->
<!DOCTYPE svg PUBLIC "-//W3C//DTD SVG 1.1//EN" "http://www.w3.org/Graphics/SVG/1.1/DTD/svg11.dtd">
<svg version="1.1" id="all_in_one" xmlns="http://www.w3.org/2000/svg" xmlns:xlink="http://www.w3.org/1999/xlink" x="0px" y="0px"
	viewBox="0 0 140 140" enable-background="new 0 0 140 140" xml:space="preserve">
<path fill="#515151" d="M126.007,56.537l2.327-4.615l-3.783-6.264l0.583-5.936l-8.873-7.912l0.581-5.934L98.367,15.822
	l-6.108,10.385l-4.367-8.243H76.692H52.108l-4.363,8.243l-6.109-10.385L23.161,25.877l0.582,5.934l-8.873,7.912l0.58,5.936
	l-3.781,6.428l2.328,4.616L1.921,59.67v35.605l9.748,17.639l18.766,2.968L46.29,99.232l-2.91-13.021l-8.29-8.079l1.453-4.944
	l-6.981-8.242l5.236-6.924c11.929,4.946,20.073,17.639,20.511,31.981c-7.71,9.889-11.345,23.076-10.183,36.1l-3.928,2.802v3.63
	l2.328,1.646h9.455l3.49-2.969v-4.614l-1.309-1.318c0.729-8.57,8.712-17.965,15.838-23.33c6.874,5.303,13.111,14.76,13.837,23.33
	l-1.31,1.318v4.614l3.492,2.969h9.456l2.326-1.646v-3.63l-3.927-2.802c1.309-13.023-2.473-26.211-10.183-36.1
	c0.292-14.342,8.438-27.035,20.511-31.816l5.237,6.923l-6.983,8.243l1.457,4.944l-8.294,7.914l-2.909,13.021l15.856,16.649
	l18.766-2.968l9.745-17.639V59.505L126.007,56.537z"/>
<path fill="#757575" d="M84.822,16.817l-5.72-9.544c-6.038-0.9-12.075-0.9-18.114,0l-5.723,9.544v5.222l-1.908,4.501l2.861,5.583
	l1.749,12.425h0.476c7.787,1.441,15.575,1.441,23.362,0h0.478l1.744-12.425l2.862-5.583l-1.91-4.501v-5.222H84.822z"/>
<polygon fill="#636262" points="71,66 71.712,48 68.288,48 69,66 "/>
<path fill="#66CC33" d="M66.027,25.1l-4.452-0.18c-1.111,0-2.227-0.72-2.86-1.801l-1.113-1.261c-0.634-1.081,0.32-2.521,1.43-2.161
	l7.311,2.881C67.614,23.119,67.295,25.1,66.027,25.1z"/>
<path fill="#66CC33" d="M80.485,21.858l-0.953,1.441c-0.636,1.081-1.749,1.62-2.858,1.8l-4.451,0.18
	c-1.272,0-1.587-1.98-0.478-2.522l7.311-2.88C80.168,19.337,81.12,20.777,80.485,21.858z"/>
<path d="M70.907,37.5c0,0.766,0,1.531-0.306,2.551c-0.313,0.765-0.62,1.785-1.24,2.551c-0.617-0.766-0.923-1.787-1.233-2.551
	c-0.312-0.765-0.312-1.785-0.312-2.551c0-0.765,0-1.785,0.312-2.55c0.311-0.765,0.616-1.787,1.233-2.551
	c0.62,0.764,0.928,1.786,1.24,2.551C70.907,35.715,70.907,36.734,70.907,37.5"/>
<path d="M65.946,39.047c0.007,0.726,0.091,1.667-0.157,2.497c-0.758-0.427-1.342-1.167-1.84-1.694
	c-0.509-0.526-0.843-1.364-1.096-1.993s-0.59-1.467-0.584-2.199c-0.006-0.726-0.095-1.665,0.158-2.496
	c0.754,0.427,1.342,1.167,1.841,1.695c0.507,0.526,0.843,1.363,1.095,1.992C65.615,37.479,65.868,38.106,65.946,39.047z"/>
<path d="M76.141,38.11c-0.271,0.645-0.831,1.169-1.191,2.028c-0.567,0.521-1.216,1.259-2.065,1.665
	c-0.315-0.894-0.251-1.877-0.273-2.643c-0.025-0.768,0.336-1.628,0.605-2.274c0.271-0.645,0.631-1.505,1.195-2.027
	c0.56-0.525,1.215-1.261,2.068-1.662c0.312,0.888,0.243,1.871,0.271,2.639C76.771,36.604,76.409,37.464,76.141,38.11"/>
<polygon fill="#757575" points="15.273,111.518 29.604,114.062 43.986,98.537 40.945,88.522 33.712,82.216 "/>
<polygon fill="#757575" points="17.412,44.123 17.838,48.476 15.064,53.19 16.334,57.917 10.551,59.995 28.916,68.667 26.834,64.5 
	32.025,57.542 "/>
<polygon fill="#757575" points="45.637,32.065 41.207,18.477 26,27.667 27.505,44.123 "/>
<polygon fill="#757575" points="92.477,30.109 98.771,18.335 115.398,27.5 110.936,41.883 "/>
<polygon fill="#757575" points="122.325,44.629 121.932,48.982 124.501,53.696 123.325,58.423 128.685,60.5 111.665,69.173 
	113.595,65.006 108.784,58.048 "/>
<polygon fill="#757575" points="126.099,111.876 110.613,113.86 95.771,97.787 99.429,87.898 107.44,81.878 "/>
<path fill="#757575" d="M69,66c0,0-20.333-2.667-21.666-3.167c-1.334-0.5-4.927-17.205-4.927-17.205l25.881,2.205L69,66z"/>
<path fill="#757575" d="M71,66c0,0,20.333-2.667,21.666-3.167C94,62.333,97.084,46,97.084,46l-25.372,1.833L71,66z"/>
<path fill="#757575" d="M45.362,127.268l-2.955,2.108v2.73l1.751,1.238h7.115v-4.636C51.273,128.709,45.77,127.567,45.362,127.268z"
	/>
<path fill="#757575" d="M94.72,127.268l3.359,2.108v2.73l-1.99,1.238H88v-4.636C88,128.709,94.257,127.567,94.72,127.268z"/>
<polygon fill="#636262" points="30.084,49.504 48,37.231 45.637,32.065 27.505,44.123 "/>
<polygon fill="#636262" points="88.851,35.506 107.393,47.088 110.936,42 92.477,30.109 "/>
<polygon fill="#636262" points="15.273,111.518 6,93.75 27.505,79.411 33.712,82.216 "/>
<polygon fill="#636262" points="126.099,111.876 135.333,94.644 110.936,77.411 107.44,81.878 "/>
<polygon fill="#757575" points="76.878,90 63.21,90 53.357,69.173 86.89,68.667 "/>
<polygon fill="#333333" points="34,79.334 32.152,79 10.767,62.5 34,72.667 "/>
<polygon fill="#515151" points="79.625,18.477 69,22 58.75,18.477 57,16 69.123,20.335 81,16 "/>
<polygon fill="#333333" points="106,78 108.784,78 128.685,61.833 107.44,72.167 "/>
<polygon fill="#595959" points="55.568,111.518 48.599,109.773 53.357,97 66.334,97.869 "/>
<polygon fill="#595959" points="85.962,111.518 92.195,109.773 87.938,97 76.334,97.869 "/>
<polygon fill="#757575" points="53.163,125 46.163,125 47.599,112.635 55.568,113.31 "/>
<polygon fill="#757575" points="87.942,125 93.942,125 93.195,112.773 85.962,113.518 "/>
<ellipse transform="matrix(0.9334 0.3589 -0.3589 0.9334 12.486 -21.0752)" opacity="0.3" fill="#FFFFFF" cx="63.014" cy="23.096" rx="2.373" ry="1.218"/>
<ellipse transform="matrix(-0.9549 0.2969 -0.2969 -0.9549 154.783 23.1315)" opacity="0.3" fill="#FFFFFF" cx="75.635" cy="23.318" rx="2.409" ry="1.236"/>
<polygon points="72,27 67,27 68.375,30 70.712,30 "/>
</svg>
