<?xml version="1.0" encoding="utf-8"?>
<!-- Generator: Adobe Illustrator 16.0.3, SVG Export Plug-In . SVG Version: 6.00 Build 0)  -->
<!DOCTYPE svg PUBLIC "-//W3C//DTD SVG 1.1//EN" "http://www.w3.org/Graphics/SVG/1.1/DTD/svg11.dtd">
<svg version="1.1" id="all_in_one" xmlns="http://www.w3.org/2000/svg" xmlns:xlink="http://www.w3.org/1999/xlink" x="0px" y="0px"
	viewBox="0 0 154.667 138.848" enable-background="new 0 0 154.667 138.848"
	 xml:space="preserve">
<rect x="12.977" fill="#0071BC" width="132.041" height="137.96"/>
<g>
	<path fill="#FFFFFF" d="M114.647,125.425c0,0-0.281,0.176-0.309,0.522c-0.085,0.347-0.348,0.879-0.727,1.403
		c-0.709,1.096-2.217,2.214-4.174,3.185c-1.959,0.969-4.448,1.923-7.329,2.728c-2.879,0.794-6.179,1.531-9.796,2.026
		c-3.613,0.491-7.56,0.842-11.726,0.865c-4.17,0.093-8.56-0.169-13.087-0.629c-4.52-0.503-9.184-1.159-13.853-2.323
		c-2.336-0.563-4.677-1.259-6.953-2.262c-1.135-0.506-2.267-1.076-3.311-1.879c-0.526-0.392-1.02-0.872-1.454-1.445
		c-0.426-0.591-0.778-1.294-0.783-2.245l0.044-0.538c0.048-0.216,0.1-0.433,0.162-0.642c0.146-0.372,0.32-0.716,0.53-1.02
		c0.422-0.599,0.911-1.104,1.431-1.521c1.036-0.857,2.159-1.477,3.292-2.031c2.281-1.062,4.624-1.811,6.963-2.431
		c4.688-1.202,9.371-1.856,13.907-2.272c4.538-0.415,8.943-0.46,13.105-0.37c4.174,0.073,8.106,0.444,11.721,0.956
		s6.899,1.257,9.777,2.053c2.879,0.808,5.336,1.761,7.296,2.733c1.954,0.973,3.662,2.096,4.373,3.193
		c0.747,1.098,0.9,1.965,0.9,1.933V125.425z M113.327,125.415c0,0.03,0.424-0.777-0.304-1.813c-0.695-1.034-1.962-2.109-3.912-3.025
		c-1.944-0.957-4.363-1.674-7.237-2.328c-2.885-0.635-6.132-1.09-9.726-1.449c-3.593-0.357-7.479-0.559-11.608-0.654
		c-4.135-0.092-8.482,0.063-12.98,0.39c-4.495,0.337-9.129,0.924-13.757,2.006c-2.311,0.541-4.623,1.212-6.843,2.175
		c-1.105,0.483-2.199,1.031-3.169,1.778c-0.94,0.743-1.892,1.666-1.923,2.966c-0.007,0.504,0.219,1.164,0.575,1.651
		c0.357,0.506,0.794,0.964,1.28,1.351c0.961,0.794,2.049,1.399,3.15,1.931c2.227,1.019,4.542,1.74,6.858,2.335
		c4.648,1.124,9.306,1.711,13.817,1.956c4.509,0.282,8.886,0.217,13.013,0.131c4.134-0.146,8.04-0.367,11.635-0.746
		c3.592-0.375,6.881-0.83,9.765-1.473c2.876-0.654,5.374-1.37,7.318-2.331c1.952-0.918,3.053-1.994,3.749-3.034
		c0.724-1.03,0.3-1.835,0.3-1.822V125.415z"/>
</g>
<g>
	<path fill="#FFFFFF" d="M135.774,127.347c0,0.004,0.123,0.249-0.045,0.755c-0.158,0.545-0.554,1.121-1.23,1.702
		c-1.35,1.162-3.597,2.187-6.519,3.211c-2.94,0.96-6.532,2.003-10.723,2.85c-4.188,0.863-8.931,1.688-14.139,2.272
		c-5.205,0.586-10.866,0.885-16.855,0.91c-5.994,0.028-12.295-0.351-18.809-0.899c-6.507-0.611-13.218-1.355-20.01-2.438
		c-3.397-0.531-6.815-1.182-10.207-2.142c-1.699-0.463-3.396-0.991-5.062-1.751c-0.834-0.371-1.657-0.824-2.454-1.433
		c-0.395-0.304-0.787-0.661-1.133-1.146c-0.177-0.237-0.339-0.498-0.457-0.838c-0.065-0.161-0.13-0.316-0.149-0.512l-0.042-0.282
		l-0.017-0.142c0-0.101-0.018,0.034-0.006-0.269c0.047-0.284,0.002-0.438,0.164-0.885c0.063-0.188,0.137-0.402,0.216-0.558
		l0.245-0.393c0.335-0.509,0.721-0.888,1.11-1.217c0.784-0.659,1.602-1.167,2.428-1.586c1.654-0.86,3.345-1.491,5.039-2.049
		c3.398-1.069,6.819-1.825,10.222-2.457c6.812-1.222,13.556-1.882,20.085-2.331c6.529-0.427,12.855-0.543,18.841-0.382
		c5.997,0.129,11.654,0.476,16.862,1.099c5.207,0.613,9.957,1.443,14.145,2.315c4.19,0.85,7.796,1.896,10.737,2.857
		c2.922,1.029,5.191,2.06,6.542,3.232c0.672,0.572,1.02,1.171,1.17,1.689c0.17,0.492,0.05,0.802,0.05,0.792V127.347z
		 M135.774,127.326c0,0.007-0.019-0.244-0.17-0.667c-0.128-0.438-0.563-0.985-1.211-1.523c-1.305-1.099-3.569-2.107-6.503-2.951
		c-2.935-0.869-6.586-1.493-10.777-2.024c-4.193-0.54-8.952-0.837-14.134-1.088c-5.183-0.212-10.801-0.433-16.738-0.465
		c-5.947-0.013-12.21,0.067-18.688,0.359c-6.472,0.286-13.16,0.822-19.891,1.823c-3.364,0.489-6.747,1.096-10.064,2
		c-1.657,0.438-3.308,0.95-4.864,1.649c-0.784,0.339-1.529,0.757-2.184,1.247c-0.327,0.243-0.625,0.522-0.836,0.812l-0.156,0.217
		c-0.036,0.063-0.037,0.098-0.07,0.138c-0.076-0.002-0.099,0.385-0.141,0.604c0.019-0.241,0.01-0.038,0.017-0.079l0.008,0.049
		l0.009,0.102c-0.01,0.066,0.025,0.14,0.056,0.213c0.036,0.15,0.121,0.306,0.229,0.462c0.199,0.313,0.493,0.616,0.812,0.885
		c0.645,0.543,1.385,1.01,2.161,1.399c1.545,0.801,3.187,1.414,4.841,1.945c3.323,1.014,6.709,1.726,10.08,2.319
		c6.751,1.139,13.472,1.589,19.965,1.714c6.489,0.167,12.777-0.014,18.715-0.162c5.947-0.136,11.562-0.404,16.745-0.647
		c5.181-0.28,9.937-0.587,14.129-1.133c4.191-0.537,7.842-1.159,10.776-2.037c2.934-0.842,5.191-1.863,6.494-2.966
		c0.646-0.531,1.099-1.102,1.217-1.513c0.155-0.411,0.174-0.723,0.174-0.703V127.326L135.774,127.326z"/>
</g>
<path fill="#391C42" d="M154.592,44.793c-5.471-8.213-1.127-14.898-1.127-14.898c-5.79-3.246-6.112-10.313-6.112-10.313
	c-5.629-2.29-8.365-8.402-8.365-8.402c-5.149,1.527-10.616-2.292-10.616-2.292c-1.771,7.068-4.988,8.785-4.988,8.785
	c0.964-4.965-1.125-6.875-1.125-6.875c1.447,10.313-15.458,23.459-15.859,27.833c-0.402,4.376-4.384,7.269-3.951,9.61
	c0.43,2.341-0.244,2.663-1.236,6.406c-1.149,3.733,0.566,7.917,1.847,8.034c1.282,0.117,6.384-4.399,7.555-6.594
	c1.187-2.385,3.378-1.606,2.743,1.785c-0.476,3.412-9.947,11.555-9.947,11.555l-1.98-3.06c-0.21,2.284,2.814,9.849,4.854,8.689
	c2.049-1.15,7.371-11.095,15.287-14.589c6.219-2.173,4.546-4.787,4.388-4.978c2.731,4.583,3.216,10.506,1.447,15.662
	c-1.768,5.159-5.63,9.548-10.135,10.501c-11.421,3.443-20.592,12.039-26.058,23.305c0.801-10.121-2.253-23.683-7.24-32.086
	c-0.319-0.575-0.641-1.147-1.129-1.72c-2.732-4.015-4.502-9.171-5.306-14.326l0,0c-0.966-2.103-1.609-4.585-1.772-7.068
	c-0.157-1.145-0.157-2.482-0.318-3.819c0-1.34,0-2.482,0-3.822v-1.909l0.318,1.909c0.163,1.146,0.485,2.481,0.646,3.629
	c0.16-0.955,0.16-1.91,0.16-2.865c0-1.338,0-2.483-0.16-3.82c0-1.34-0.161-2.481-0.323-3.821c-0.16-1.335-0.323-2.481-0.48-3.82
	c-0.322-0.383-0.322-0.764-0.483-1.143c0-0.384-0.16-0.766-0.16-1.147c-0.162-0.765-0.321-1.529-0.482-2.291
	c-0.16-0.765-0.484-1.53-0.801-2.294c-0.325-0.765-0.647-1.528-0.81-2.291c0.162,0.764,0.484,1.527,0.81,2.291
	c0.318,0.764,0.641,1.529,0.962,2.294c0.321,0.761,0.481,1.525,0.644,2.291c0,0.381,0.162,0.763,0.322,1.147
	c0.158,0.379,0.158,0.763,0.48,0.954l0,0l0,0v0.191c0.324,2.485,0.645,4.966,0.806,7.448c0.161,1.339,0.161,2.675,0.161,3.82
	c0,0.575,0,1.338-0.161,1.909c0,0.573-0.161,1.34-0.323,1.912l-0.16,0.382l-0.161,0.382l0.161-0.189
	c-0.161-0.765-0.323-1.72-0.483-2.485c0,0.572,0,0.955,0,1.528c0,1.146,0,2.483,0.16,3.63c0.162,1.145,0.323,2.483,0.483,3.628
	c0.323,1.145,0.645,2.292,0.966,3.439c0.161,0.382,0.323,0.763,0.483,1.146c0.645,1.145,2.09,1.145,2.571,0
	c1.61-3.055,2.251-7.831,2.416-9.742c0.157-1.908,0.157-5.919,0.157-5.919c-0.322,2.1-0.799,4.392-0.799,4.583
	c-1.291-3.436,0.477-15.279,0.477-15.279l0,0l0,0c0.165-0.192,0.165-0.382,0.322-0.574l0,0c0.164-0.381,0.164-0.762,0.323-1.146l0,0
	c0.162-1.145,0.481-3.055,1.61-5.159c0.158-0.188,0.158-0.381,0.322-0.764l0,0c0.157-0.382,0.32-0.955,0.481-1.337l1.449,0.955
	l4.182,2.675c-1.77-8.595,5.31-8.786,5.31-8.786c-1.45-6.112,2.413-16.426,2.573-16.618L82.043,9.65l0,0l0,0
	c-1.125-0.381-2.094-0.191-2.256-0.191c-0.318,0-1.283-0.19-2.412,0.191L60.001,0.862c0.162,0.382,4.022,10.697,2.577,16.616
	c0,0,7.077,0.191,5.306,8.786l5.631-3.629c-10.295,13.37-12.708,32.661-6.113,49.088c2.898,10.5,0.804,22.153-5.469,30.366
	c-5.47-9.739-13.997-17.382-24.612-20.438c-4.666-0.955-8.365-5.344-10.134-10.502c-1.77-5.157-1.289-11.077,1.446-15.661
	c0,0.19-2.555,3.775,5.018,7.452c7.901,3.854,13.098,12.105,15.062,13.39c1.963,1.29,5.48-6.059,5.422-8.352l-2.178,2.926
	c0,0-8.912-8.756-9.158-12.191c-0.248-3.433,1.831-4.059,2.856-1.6c1.029,2.458,5.811,7.112,7.101,7.08
	c1.283-0.033,3.28-3.902,2.372-7.893c-0.901-3.799-1.391-4.167-0.805-6.475c0.584-2.308-3.193-5.461-3.305-9.852
	c-0.11-4.393-20.13-18.865-18.68-29.18c0,0-2.094,2.103-0.967,7.068c0,0-3.216-1.718-4.986-8.786c0,0-5.47,3.821-10.778,2.102
	c0,0-2.735,5.92-8.364,8.404c0,0-0.323,7.067-6.112,10.313c0,0,4.341,6.687-1.127,14.898c0,0,5.789,1.529,2.573,12.032
	c0,0,5.148-0.956,1.289,12.222l2.088-2.29c4.021,16.617,14,30.18,27.186,37.053c4.989,1.906,9.272,12.284,9.435,18.4
	c2.212,11.135,21.689,12.337,35.205,12.337c13.51,0,36.273-1.354,35.065-11.723c0.162-6.113,3.783-17.295,8.771-19.015
	c13.193-6.875,23.327-20.438,27.186-37.055l2.094,2.291c-3.859-12.987,1.284-12.221,1.284-12.221
	C148.799,46.321,154.592,44.793,154.592,44.793z M84.296,19.581c0.159-0.574,0.159-1.144,0.319-1.144s0.32,0.38,0.32,0.955
	c0,0.952-0.32,1.908-0.64,2.29C83.651,22.065,83.811,21.682,84.296,19.581z M81.561,31.996c0.158,0,0.158,0,0.322,0c0,0,0,0,0.16,0
	c0,0,0,0,0.158,0c0,0,0.164,0,0.322,0h0.162l0,0l-0.643,1.339L81.561,31.996L81.561,31.996z M80.433,32.186c0.322,0,0.643,0,0.964,0
	l0,0l-0.804,2.292L80.433,32.186L80.433,32.186z M78.985,32.186c0.321,0,0.804,0,1.126,0l0,0l-0.643,2.482L78.985,32.186
	L78.985,32.186z M77.86,32.186c0.321,0,0.645,0,0.962,0l0,0l-0.317,2.292L77.86,32.186L77.86,32.186z M77.055,31.996L77.055,31.996
	h0.162l0,0c0.16,0,0,1.339,0,1.339L77.055,31.996z M74.482,18.437c0.16,0,0.16,0.38,0.321,1.144c0.483,2.099,0.483,2.483,0,2.099
	c-0.321-0.191-0.644-1.337-0.644-2.29C74.16,19.007,74.322,18.625,74.482,18.437z"/>
<path fill="#FF7BAC" d="M80.767,53.693c-0.647,1.466-2.304,1.253-2.899-0.028c-0.294-0.633-0.569-14.471-0.569-14.471h4.407
	C81.705,39.194,81.068,53.01,80.767,53.693z"/>
<polygon points="81.705,39.194 77.298,39.194 77.055,32.922 82.193,32.922 "/>
<path fill="#A82DE2" d="M0.002,44.793c3.728-5.381,3.031-9.706,1.127-14.898c3.298-3.309,5.928-5.717,6.111-10.313
	c3.959-2.036,5.952-3.828,8.365-8.402c5.043,1.828,10.778-2.102,10.778-2.102s1.299,6.864,4.986,8.785
	C19.317,23.727,6.296,50.36,5.952,66.759l-2.087,2.29c0,0,4.048-12.256-1.29-12.222C3.488,52.417,5.25,47.54,0.002,44.793z"/>
<g>
	<path fill="#662D91" d="M27.652,2.417c0,0-0.799,5.628-1.715,11.228c-0.225,1.401-0.404,2.813-0.64,4.12
		c-0.256,1.301-0.561,2.496-0.849,3.513c-0.57,2.037-1.128,3.347-1.128,3.347l-0.128-0.035c0,0-0.016-1.467,0.225-3.593
		c0.117-1.065,0.287-2.298,0.539-3.6c0.272-1.297,0.632-2.66,0.951-4.036c1.25-5.507,2.616-10.979,2.616-10.979L27.652,2.417z"/>
</g>
<g>
	<path fill="#662D91" d="M14.828,8.635c0,0,1.808,4.593,3.501,9.24c0.429,1.159,0.899,2.299,1.277,3.398
		c0.357,1.107,0.631,2.169,0.835,3.091c0.417,1.842,0.529,3.146,0.529,3.146l-0.124,0.057c0,0-0.658-1.053-1.391-2.751
		c-0.371-0.846-0.77-1.85-1.133-2.956c-0.342-1.113-0.639-2.332-0.978-3.533c-1.376-4.792-2.641-9.636-2.641-9.636L14.828,8.635z"/>
</g>
<g>
	<path fill="#662D91" d="M6.244,18.375c0,0,3.297,2.82,6.517,5.75c0.808,0.727,1.646,1.415,2.388,2.121
		c0.727,0.724,1.363,1.463,1.89,2.123c1.057,1.312,1.648,2.351,1.648,2.351l-0.085,0.121c0,0-0.965-0.505-2.241-1.509
		c-0.64-0.497-1.364-1.11-2.094-1.83c-0.716-0.74-1.435-1.597-2.182-2.412c-3-3.242-5.925-6.592-5.925-6.592L6.244,18.375z"/>
</g>
<g>
	<path fill="#662D91" d="M1.156,29.823c0,0,3.532,1.563,7.015,3.256c0.873,0.417,1.762,0.787,2.571,1.208
		c0.797,0.441,1.514,0.926,2.117,1.373c1.208,0.886,1.936,1.671,1.936,1.671l-0.056,0.143c0,0-0.976-0.154-2.325-0.676
		c-0.676-0.257-1.452-0.592-2.251-1.031c-0.791-0.458-1.604-1.028-2.438-1.55c-3.336-2.06-6.624-4.251-6.624-4.251L1.156,29.823z"/>
</g>
<g>
	<path fill="#662D91" d="M0,44.734c0,0,2.874-0.39,5.75-0.673c0.719-0.086,1.437-0.188,2.112-0.239
		c0.676-0.016,1.307-0.002,1.852,0.059c0.543,0.07,0.995,0.124,1.314,0.203c0.317,0.066,0.5,0.125,0.5,0.125l0.004,0.118
		c0,0-0.179,0.075-0.491,0.169c-0.312,0.109-0.761,0.204-1.297,0.323c-0.537,0.11-1.167,0.181-1.842,0.225
		C7.226,45.057,6.503,45.019,5.781,45c-2.886-0.022-5.777-0.148-5.777-0.148L0,44.734z"/>
</g>
<g>
	<path fill="#662D91" d="M2.549,56.775c0,0,1.395-1.375,2.838-2.662c0.355-0.334,0.702-0.681,1.048-0.97
		c0.36-0.26,0.711-0.479,1.033-0.623c0.328-0.137,0.597-0.257,0.806-0.302c0.202-0.059,0.328-0.073,0.328-0.073l0.054,0.099
		c0,0-0.063,0.13-0.192,0.323c-0.123,0.208-0.325,0.449-0.566,0.746c-0.244,0.291-0.555,0.579-0.905,0.86
		c-0.363,0.256-0.773,0.487-1.176,0.73c-1.583,1.03-3.215,1.97-3.215,1.97L2.549,56.775z"/>
</g>
<g>
	<path fill="#662D91" d="M3.851,69.039c0,0,0.5-1.127,0.997-2.251c0.241-0.568,0.505-1.122,0.755-1.499
		c0.243-0.384,0.441-0.613,0.441-0.613l0.027,0.021c0,0-0.075,0.317-0.244,0.75c-0.162,0.441-0.447,0.979-0.753,1.501
		c-0.598,1.054-1.196,2.109-1.196,2.109L3.851,69.039z"/>
</g>
<g>
	<path fill="#A82DE2" d="M154.667,44.793c-3.709-5.381-3.015-9.706-1.122-14.898c-3.284-3.309-5.9-5.717-6.081-10.313
		c-3.939-2.036-5.92-3.828-8.322-8.402c-5.024,1.828-10.726-2.102-10.726-2.102s-2.12,7.202-4.965,8.785
		c11.995,5.866,24.951,32.498,25.296,48.896l2.076,2.291c0,0-4.029-12.254,1.283-12.222
		C151.199,52.417,149.442,47.54,154.667,44.793z"/>
	<g>
		<path fill="#662D91" d="M127.28,2.38c0,0,1.359,5.475,2.604,10.982c0.315,1.375,0.676,2.739,0.948,4.036
			c0.247,1.302,0.416,2.535,0.531,3.6c0.24,2.126,0.225,3.593,0.225,3.593l-0.131,0.035c0,0-0.553-1.308-1.124-3.347
			c-0.288-1.018-0.589-2.213-0.846-3.515c-0.232-1.306-0.412-2.72-0.634-4.12c-0.91-5.597-1.704-11.228-1.704-11.228L127.28,2.38z"
			/>
	</g>
	<g>
		<path fill="#662D91" d="M140.037,8.691c0,0-1.256,4.843-2.627,9.634c-0.337,1.2-0.632,2.419-0.975,3.534
			c-0.358,1.105-0.757,2.108-1.126,2.955c-0.732,1.697-1.39,2.752-1.39,2.752l-0.122-0.057c0,0,0.107-1.305,0.522-3.146
			c0.204-0.922,0.475-1.984,0.831-3.091c0.378-1.099,0.845-2.239,1.273-3.398c1.687-4.645,3.489-9.24,3.489-9.24L140.037,8.691z"/>
	</g>
	<g>
		<path fill="#662D91" d="M148.54,18.497c0,0-2.908,3.349-5.894,6.592c-0.743,0.815-1.458,1.671-2.172,2.412
			c-0.728,0.721-1.449,1.333-2.085,1.831c-1.271,1.003-2.231,1.508-2.231,1.508l-0.085-0.119c0,0,0.586-1.039,1.638-2.351
			c0.523-0.66,1.157-1.396,1.881-2.123c0.738-0.706,1.57-1.394,2.376-2.121c3.206-2.931,6.487-5.75,6.487-5.75L148.54,18.497z"/>
	</g>
	<g>
		<path fill="#662D91" d="M153.574,29.966c0,0-3.272,2.19-6.59,4.251c-0.829,0.52-1.638,1.09-2.425,1.55
			c-0.798,0.438-1.567,0.774-2.239,1.029c-1.345,0.522-2.315,0.676-2.315,0.676l-0.058-0.143c0,0,0.727-0.785,1.926-1.669
			c0.597-0.449,1.312-0.932,2.105-1.375c0.804-0.419,1.69-0.788,2.559-1.206c3.466-1.694,6.981-3.257,6.981-3.257L153.574,29.966z"
			/>
	</g>
	<g>
		<path fill="#662D91" d="M154.665,44.852c0,0-2.874,0.128-5.748,0.148c-0.72,0.02-1.438,0.057-2.11,0.045
			c-0.674-0.044-1.297-0.115-1.835-0.225c-0.534-0.12-0.979-0.214-1.289-0.323c-0.311-0.094-0.487-0.169-0.487-0.169l0.002-0.118
			c0,0,0.181-0.059,0.498-0.125c0.316-0.079,0.768-0.133,1.309-0.203c0.538-0.063,1.168-0.075,1.841-0.059
			c0.672,0.051,1.387,0.152,2.102,0.239c2.862,0.283,5.721,0.673,5.721,0.673L154.665,44.852z"/>
	</g>
	<g>
		<path fill="#662D91" d="M152.081,56.875c0,0-1.624-0.942-3.201-1.97c-0.4-0.245-0.808-0.477-1.171-0.731
			c-0.347-0.284-0.656-0.572-0.9-0.861c-0.238-0.296-0.441-0.54-0.563-0.746c-0.129-0.194-0.191-0.324-0.191-0.324l0.054-0.099
			c0,0,0.126,0.016,0.327,0.073c0.208,0.047,0.475,0.166,0.803,0.304c0.322,0.145,0.67,0.362,1.03,0.622
			c0.343,0.289,0.687,0.635,1.039,0.969c1.437,1.286,2.823,2.662,2.823,2.662L152.081,56.875z"/>
	</g>
	<g>
		<path fill="#662D91" d="M150.811,69.057c0,0-0.595-1.055-1.192-2.111c-0.302-0.521-0.586-1.059-0.747-1.499
			c-0.167-0.434-0.242-0.751-0.242-0.751l0.026-0.02c0,0,0.198,0.229,0.439,0.61c0.249,0.377,0.511,0.93,0.753,1.499
			c0.495,1.125,0.991,2.251,0.991,2.251L150.811,69.057z"/>
	</g>
</g>
<g>
	<path fill="#FFFFFF" d="M54.72,67.482c0,0-0.432,1.351-0.941,2.643c-0.117,0.331-0.22,0.67-0.351,0.964
		c-0.155,0.278-0.321,0.52-0.5,0.701c-0.185,0.18-0.333,0.331-0.471,0.416c-0.125,0.089-0.213,0.13-0.213,0.13l-0.084-0.063
		c0,0-0.011-0.112-0.001-0.286c-0.001-0.183,0.042-0.41,0.091-0.689c0.054-0.272,0.159-0.558,0.293-0.85
		c0.158-0.273,0.366-0.543,0.558-0.817c0.729-1.137,1.535-2.213,1.535-2.213L54.72,67.482z"/>
</g>
<g>
	<path fill="#FFFFFF" d="M100.956,65.435c0,0,0.742,1.219,1.403,2.486c0.175,0.313,0.365,0.613,0.51,0.918
		c0.114,0.318,0.202,0.632,0.238,0.921c0.03,0.295,0.059,0.537,0.047,0.725c-0.002,0.186-0.02,0.299-0.02,0.299l-0.089,0.057
		c0,0-0.086-0.055-0.206-0.166c-0.131-0.104-0.275-0.277-0.448-0.482c-0.169-0.213-0.317-0.486-0.458-0.793
		c-0.111-0.324-0.194-0.69-0.291-1.047c-0.429-1.408-0.775-2.862-0.775-2.862L100.956,65.435z"/>
</g>
<g>
	<path fill="#FFFFFF" d="M83.184,42.312c0,0-0.034,1.248-0.069,2.494c-0.011,0.623-0.043,1.247-0.128,1.706
		c-0.077,0.46-0.172,0.764-0.172,0.764l-0.034-0.003c0,0-0.045-0.318-0.057-0.788c-0.014-0.469,0.044-1.088,0.128-1.707
		c0.149-1.235,0.299-2.471,0.299-2.471L83.184,42.312z"/>
</g>
<g>
	<path fill="#FFFFFF" d="M75.865,43.953c0,0,0.152,0.959,0.279,1.921c0.079,0.479,0.132,0.96,0.113,1.331
		c-0.012,0.367-0.063,0.618-0.063,0.618l-0.034,0.004c0,0-0.093-0.233-0.164-0.591c-0.081-0.358-0.109-0.842-0.114-1.329
		c-0.039-0.974-0.049-1.949-0.049-1.949L75.865,43.953z"/>
</g>
<g>
	<path fill="#FFFFFF" d="M77.264,35.89c0,0-0.204-0.959-0.352-1.925c-0.044-0.242-0.098-0.48-0.123-0.707
		c-0.014-0.229,0.02-0.445,0.043-0.63C76.896,32.254,77.021,32,77.021,32l0.066-0.006c0,0,0.155,0.23,0.269,0.589
		c0.046,0.18,0.105,0.388,0.118,0.616c0.006,0.229-0.021,0.475-0.035,0.721c-0.025,0.979-0.109,1.966-0.109,1.966L77.264,35.89z"/>
</g>
<g>
	<path fill="#FFFFFF" d="M78.429,37.625c0,0-0.144-1.535-0.229-2.719c-0.029-0.297-0.07-0.768-0.08-1.046
		c0-0.277,0.047-0.255,0.082-0.479c0.088-0.443,0.228-0.458,0.228-0.458h0.065c0,0,0.141-0.072,0.229,0.374
		c0.034,0.223,0.083,0.298,0.083,0.577c-0.011,0.277-0.051,0.829-0.079,1.125c-0.088,1.186-0.232,2.627-0.232,2.627H78.429z"/>
</g>
<g>
	<path fill="#FFFFFF" d="M79.52,37.625c0,0-0.143-1.364-0.23-2.719c-0.03-0.339-0.07-0.682-0.081-1.001
		c0.001-0.318,0.048-0.247,0.083-0.501c0.09-0.508,0.229-0.482,0.229-0.482h0.066c0,0,0.14-0.029,0.23,0.48
		c0.033,0.255,0.082,0.365,0.082,0.686c-0.012,0.316-0.051,0.573-0.08,0.912c-0.086,1.354-0.232,2.626-0.232,2.626H79.52z"/>
</g>
<g>
	<path fill="#FFFFFF" d="M80.494,37.604c0,0-0.082-1.362-0.111-2.724c-0.013-0.34-0.037-0.682-0.033-1
		c0.014-0.318,0.074-0.611,0.118-0.864c0.113-0.501,0.267-0.833,0.267-0.833l0.068,0.004c0,0,0.123,0.35,0.19,0.862
		c0.024,0.257,0.056,0.554,0.043,0.873c-0.026,0.316-0.077,0.653-0.124,0.988c-0.143,1.35-0.348,2.697-0.348,2.697L80.494,37.604z"
		/>
</g>
<g>
	<path fill="#FFFFFF" d="M81.672,35.884c0,0-0.102-0.982-0.143-1.96c-0.017-0.245-0.047-0.49-0.047-0.72
		c0.012-0.227,0.068-0.437,0.111-0.617c0.105-0.359,0.256-0.593,0.256-0.593L81.916,32c0,0,0.129,0.252,0.198,0.622
		c0.03,0.185,0.065,0.4,0.056,0.628c-0.023,0.228-0.072,0.469-0.111,0.71c-0.132,0.967-0.319,1.93-0.319,1.93L81.672,35.884z"/>
</g>
<path fill="#FF7BAC" d="M81.883,33.404c-0.238,0.197-4.252,0.197-4.585,0.028s-0.809-1.698-0.809-1.698
	c1.64,0.407,4.873,0.514,6.337,0C82.826,31.734,82.117,33.208,81.883,33.404z"/>
<g>
	<path fill="#FFFFFF" d="M49.819,68.084c0,0,0.505-1.093,1.06-2.145c0.133-0.269,0.257-0.547,0.394-0.783
		c0.147-0.233,0.321-0.416,0.465-0.575c0.305-0.306,0.573-0.456,0.573-0.456l0.053,0.047c0,0-0.044,0.35-0.205,0.783
		c-0.089,0.211-0.188,0.461-0.334,0.692c-0.153,0.226-0.34,0.443-0.521,0.673c-0.69,0.928-1.431,1.813-1.431,1.813L49.819,68.084z"
		/>
</g>
<g>
	<path fill="#FFFFFF" d="M49.032,67.061c0,0,0.459-0.971,0.964-1.895c0.118-0.238,0.233-0.481,0.357-0.693
		c0.135-0.2,0.296-0.355,0.432-0.49c0.284-0.255,0.537-0.37,0.537-0.37l0.051,0.049c0,0-0.031,0.319-0.176,0.711
		c-0.08,0.184-0.168,0.409-0.303,0.611c-0.144,0.192-0.315,0.378-0.482,0.571c-0.641,0.798-1.327,1.55-1.327,1.55L49.032,67.061z"/>
</g>
<g>
	<path fill="#FFFFFF" d="M48.321,65.875c0,0,0.363-0.879,0.774-1.713c0.095-0.214,0.184-0.436,0.288-0.623
		c0.111-0.185,0.254-0.318,0.373-0.439c0.252-0.226,0.486-0.32,0.486-0.32l0.053,0.044c0,0-0.007,0.294-0.114,0.648
		c-0.063,0.169-0.13,0.371-0.242,0.555c-0.122,0.17-0.273,0.336-0.416,0.51c-0.55,0.715-1.147,1.383-1.147,1.383L48.321,65.875z"/>
</g>
<g>
	<path fill="#FFFFFF" d="M47.498,64.613c0,0,0.354-0.781,0.755-1.516c0.094-0.192,0.18-0.388,0.28-0.555
		c0.11-0.155,0.25-0.267,0.363-0.366c0.244-0.184,0.47-0.245,0.468-0.245l0.051,0.052c0,0-0.009,0.275-0.114,0.593
		c-0.061,0.151-0.129,0.334-0.235,0.492c-0.119,0.148-0.266,0.287-0.405,0.433c-0.532,0.605-1.111,1.164-1.111,1.164L47.498,64.613z
		"/>
</g>
<g>
	<path fill="#FFFFFF" d="M46.75,63.165c0,0,0.304-0.67,0.654-1.291c0.081-0.163,0.156-0.331,0.245-0.47
		c0.096-0.132,0.222-0.216,0.326-0.291c0.22-0.136,0.43-0.164,0.43-0.164l0.051,0.053c0,0,0,0.251-0.088,0.526
		c-0.053,0.131-0.107,0.29-0.204,0.422c-0.104,0.12-0.239,0.229-0.364,0.342c-0.478,0.487-1.002,0.927-1.002,0.927L46.75,63.165z"/>
</g>
<g>
	<path fill="#FFFFFF" d="M45.87,62.225c0,0,0.296-0.674,0.641-1.299c0.078-0.165,0.151-0.333,0.24-0.475
		c0.094-0.131,0.22-0.216,0.322-0.295c0.219-0.139,0.429-0.169,0.429-0.169l0.05,0.049c0,0,0.004,0.25-0.081,0.53
		c-0.05,0.131-0.102,0.292-0.198,0.422c-0.106,0.124-0.236,0.231-0.36,0.349c-0.473,0.495-0.991,0.939-0.991,0.939L45.87,62.225z"/>
</g>
<g>
	<path fill="#FFFFFF" d="M106.1,66.17c0,0-0.708-0.815-1.365-1.673c-0.174-0.209-0.354-0.413-0.499-0.619
		c-0.139-0.217-0.231-0.452-0.313-0.651c-0.148-0.412-0.184-0.745-0.184-0.745l0.053-0.047c0,0,0.26,0.126,0.554,0.405
		c0.136,0.149,0.306,0.318,0.442,0.534c0.131,0.223,0.248,0.484,0.371,0.733c0.521,0.986,0.997,2.019,0.997,2.019L106.1,66.17z"/>
</g>
<g>
	<path fill="#FFFFFF" d="M106.662,65.193c0,0-0.606-0.707-1.164-1.456c-0.146-0.179-0.301-0.354-0.423-0.536
		c-0.114-0.189-0.182-0.4-0.244-0.578c-0.108-0.367-0.116-0.666-0.116-0.666l0.053-0.046c0,0,0.238,0.103,0.494,0.344
		c0.119,0.128,0.264,0.271,0.378,0.462c0.105,0.197,0.194,0.427,0.292,0.651c0.417,0.867,0.782,1.781,0.782,1.781L106.662,65.193z"
		/>
</g>
<g>
	<path fill="#FFFFFF" d="M107.499,64.166c0,0-0.609-0.566-1.175-1.185c-0.146-0.147-0.301-0.288-0.427-0.44
		c-0.117-0.158-0.19-0.345-0.258-0.5c-0.117-0.327-0.136-0.607-0.136-0.607l0.05-0.052c0,0,0.233,0.06,0.487,0.242
		c0.121,0.102,0.266,0.215,0.382,0.376c0.107,0.169,0.202,0.37,0.305,0.564c0.433,0.749,0.821,1.551,0.821,1.551L107.499,64.166z"/>
</g>
<g>
	<path fill="#FFFFFF" d="M108.124,62.809c0,0-0.505-0.448-0.962-0.941c-0.121-0.117-0.248-0.227-0.348-0.35
		c-0.094-0.13-0.143-0.292-0.188-0.422c-0.076-0.278-0.064-0.526-0.064-0.526l0.052-0.052c0,0,0.204,0.031,0.423,0.172
		c0.101,0.08,0.222,0.166,0.313,0.297c0.083,0.141,0.151,0.31,0.225,0.471c0.324,0.629,0.6,1.302,0.6,1.302L108.124,62.809z"/>
</g>
<g>
	<path fill="#FFFFFF" d="M108.766,61.809c0,0-0.446-0.383-0.842-0.813c-0.104-0.099-0.219-0.192-0.304-0.301
		c-0.075-0.115-0.113-0.259-0.147-0.376c-0.051-0.253-0.021-0.482-0.021-0.482l0.051-0.049c0,0,0.193,0.019,0.387,0.135
		c0.09,0.067,0.198,0.139,0.276,0.255c0.067,0.125,0.12,0.276,0.179,0.421c0.26,0.558,0.472,1.161,0.472,1.161L108.766,61.809z"/>
</g>
<g>
	<path fill="#FFFFFF" d="M109.592,61.093c0,0-0.465-0.393-0.881-0.832c-0.111-0.104-0.232-0.2-0.32-0.311
		c-0.082-0.119-0.125-0.263-0.162-0.385c-0.061-0.259-0.039-0.492-0.039-0.492l0.051-0.051c0,0,0.196,0.018,0.4,0.14
		c0.091,0.067,0.204,0.14,0.287,0.259c0.072,0.128,0.129,0.283,0.195,0.433c0.283,0.57,0.521,1.187,0.521,1.187L109.592,61.093z"/>
</g>
<path fill="#A82DE2" d="M67.884,26.265c0,0,2.237-7.828-5.306-8.785c0.51-6.223-0.251-10.454-2.577-16.616
	C64.6,3.188,77.377,9.65,77.377,9.65c-4.831,1.515-5.591,8.962-3.859,12.987L67.884,26.265z"/>
<path fill="#A82DE2" d="M91.536,26.265c0,0-2.271-7.828,5.39-8.785c-0.521-6.223,0.128-10.454,2.49-16.616
	C94.746,3.188,81.9,9.65,81.9,9.65c4.906,1.515,5.678,8.962,3.919,12.987L91.536,26.265z"/>
<g>
	<path fill="#662D91" d="M60.04,0.798c0,0,3.667,2.628,7.265,5.37c0.903,0.683,1.832,1.319,2.664,1.984
		c0.817,0.685,1.545,1.387,2.15,2.021c1.216,1.256,1.922,2.268,1.922,2.268l-0.076,0.129c0,0-1.043-0.442-2.451-1.371
		c-0.709-0.459-1.514-1.03-2.335-1.709c-0.81-0.701-1.632-1.519-2.479-2.292c-3.402-3.079-6.736-6.271-6.736-6.271L60.04,0.798z"/>
</g>
<g>
	<path fill="#662D91" d="M62.572,17.421c0,0,2.541-0.661,5.092-1.215c0.637-0.153,1.272-0.322,1.872-0.437
		c0.604-0.082,1.169-0.129,1.661-0.118c0.493,0.019,0.902,0.028,1.193,0.079c0.289,0.034,0.459,0.077,0.459,0.077l0.012,0.115
		c0,0-0.152,0.093-0.424,0.217c-0.272,0.138-0.664,0.274-1.135,0.444c-0.471,0.161-1.03,0.292-1.63,0.4
		c-0.604,0.074-1.254,0.105-1.902,0.155c-2.586,0.252-5.184,0.398-5.184,0.398L62.572,17.421z"/>
</g>
<g>
	<path fill="#662D91" d="M67.861,26.236c0,0,1.145-1.478,2.33-2.907c0.291-0.363,0.574-0.735,0.858-1.061
		c0.291-0.316,0.593-0.572,0.852-0.795c0.525-0.427,0.931-0.644,0.931-0.644l0.045,0.058c0,0-0.217,0.458-0.623,1.046
		c-0.209,0.284-0.449,0.621-0.74,0.937c-0.298,0.307-0.635,0.611-0.967,0.924c-1.3,1.275-2.64,2.5-2.64,2.5L67.861,26.236z"/>
</g>
<g>
	<path fill="#662D91" d="M99.451,0.928c0,0-3.462,3.049-6.991,5.979c-0.879,0.739-1.733,1.52-2.571,2.185
		c-0.851,0.645-1.678,1.181-2.404,1.609c-1.45,0.865-2.512,1.264-2.512,1.264L84.9,11.833c0,0,0.747-0.982,2.011-2.186
		c0.634-0.608,1.389-1.278,2.234-1.927c0.859-0.626,1.813-1.224,2.744-1.865c3.713-2.589,7.489-5.056,7.489-5.056L99.451,0.928z"/>
</g>
<g>
	<path fill="#662D91" d="M96.924,17.539c0,0-2.61-0.012-5.209-0.13c-0.652-0.015-1.304-0.012-1.912-0.058
		c-0.606-0.078-1.169-0.177-1.647-0.314c-0.479-0.146-0.879-0.262-1.154-0.385c-0.276-0.11-0.433-0.195-0.433-0.195l0.008-0.118
		c0,0,0.168-0.051,0.457-0.101c0.29-0.065,0.699-0.097,1.192-0.139c0.49-0.034,1.06-0.017,1.669,0.033
		c0.605,0.083,1.246,0.219,1.891,0.339c2.576,0.421,5.147,0.95,5.147,0.95L96.924,17.539z"/>
</g>
<g>
	<path fill="#662D91" d="M91.514,26.294c0,0-1.343-1.293-2.644-2.637c-0.331-0.329-0.669-0.65-0.966-0.974
		c-0.292-0.332-0.529-0.683-0.739-0.978c-0.404-0.608-0.618-1.082-0.618-1.082l0.047-0.057c0,0,0.407,0.234,0.935,0.689
		c0.256,0.237,0.561,0.506,0.851,0.839c0.285,0.341,0.568,0.729,0.855,1.11c1.184,1.491,2.323,3.034,2.323,3.034L91.514,26.294z"/>
</g>
<path fill="#FF341F" d="M84.296,19.581c0.159-0.574,0.159-1.144,0.319-1.144s0.32,0.38,0.32,0.955c0,0.952-0.32,1.908-0.64,2.29
	C83.651,22.065,83.811,21.682,84.296,19.581z"/>
<path fill="#FF341F" d="M74.482,18.437c0.16,0,0.16,0.38,0.321,1.144c0.483,2.099,0.483,2.483,0,2.099
	c-0.321-0.191-0.644-1.337-0.644-2.29C74.16,19.007,74.322,18.625,74.482,18.437z"/>
<path fill="#FF341F" d="M41.813,37.579c0.415-0.307,1.294,0.477,1.968,1.748c0.672,1.271,0.881,2.55,0.469,2.857
	c-0.414,0.305-1.296-0.479-1.968-1.75C41.61,39.163,41.399,37.883,41.813,37.579z"/>
<path fill="#FF341F" d="M113.083,39.452c-0.723,1.252-1.639,2.006-2.038,1.688c-0.4-0.32-0.141-1.593,0.587-2.839
	c0.721-1.253,1.633-2.005,2.033-1.689C114.064,36.933,113.806,38.201,113.083,39.452z"/>
<path opacity="0.6" fill="#FFFFFF" enable-background="new    " d="M42.514,39.03c0.268-0.188,0.663,0.005,0.878,0.435
	c0.219,0.43,0.176,0.931-0.093,1.122c-0.27,0.188-0.663-0.005-0.88-0.435C42.201,39.723,42.244,39.22,42.514,39.03z"/>
<path opacity="0.6" fill="#FFFFFF" enable-background="new    " d="M112.635,38.014c0.268,0.187,0.307,0.686,0.083,1.116
	c-0.221,0.432-0.616,0.63-0.884,0.443c-0.269-0.186-0.305-0.687-0.084-1.116C111.971,38.025,112.367,37.826,112.635,38.014z"/>
<path opacity="0.6" fill="#FFFFFF" enable-background="new    " d="M74.443,19.714c0.12-0.042,0.277,0.181,0.355,0.495
	c0.076,0.314,0.04,0.603-0.081,0.643c-0.118,0.042-0.278-0.18-0.354-0.495C74.287,20.042,74.322,19.753,74.443,19.714z"/>
<path opacity="0.6" fill="#FFFFFF" enable-background="new    " d="M84.543,20.017c0.132,0.041,0.186,0.331,0.114,0.649
	c-0.067,0.318-0.233,0.542-0.366,0.501c-0.133-0.041-0.186-0.332-0.115-0.65C84.245,20.201,84.407,19.976,84.543,20.017z"/>
</svg>
