<?xml version="1.0" encoding="utf-8"?>
<!-- Generator: Adobe Illustrator 16.0.3, SVG Export Plug-In . SVG Version: 6.00 Build 0)  -->
<!DOCTYPE svg PUBLIC "-//W3C//DTD SVG 1.1//EN" "http://www.w3.org/Graphics/SVG/1.1/DTD/svg11.dtd">
<svg version="1.1" xmlns="http://www.w3.org/2000/svg" xmlns:xlink="http://www.w3.org/1999/xlink" x="0px" y="0px" viewBox="0 0 140 140" enable-background="new 0 0 140 140" xml:space="preserve">
<g id="Layer_2">
	<rect x="13" y="7" fill="#0071BC" width="118" height="126"/>
</g>
<g id="Layer_1">
	<g>
		<path fill="#FFFFFF" d="M102.99,121.759c-0.035-0.021,0.091,0.595-0.424,1.527c-0.501,0.923-1.664,1.985-3.36,2.9
			c-1.701,0.905-3.875,1.809-6.458,2.54c-2.58,0.737-5.544,1.404-8.817,1.856c-3.271,0.458-6.844,0.771-10.628,0.812
			c-3.786,0.087-7.771-0.109-11.875-0.521c-4.097-0.44-8.321-1.066-12.51-2.17c-2.092-0.552-4.186-1.213-6.166-2.188
			c-0.989-0.482-1.957-1.043-2.812-1.78c-0.833-0.738-1.604-1.716-1.635-3.004c-0.012-0.517,0.191-1.204,0.479-1.684
			c0.284-0.521,0.686-0.943,1.095-1.341c0.844-0.771,1.805-1.365,2.791-1.879c1.984-1.014,4.081-1.71,6.177-2.296
			c4.207-1.132,8.449-1.757,12.561-2.143c4.115-0.384,8.117-0.442,11.897-0.356c3.789,0.074,7.358,0.399,10.631,0.869
			c3.272,0.465,6.236,1.133,8.815,1.874c2.584,0.733,4.758,1.636,6.459,2.545c1.695,0.917,2.857,1.982,3.358,2.906
			C103.081,121.155,102.955,121.775,102.99,121.759z M102.891,121.755c-0.034,0.015,0.078-0.576-0.433-1.466
			c-0.498-0.885-1.651-1.912-3.344-2.791c-1.687-0.896-3.898-1.65-6.48-2.285c-2.584-0.636-5.553-1.119-8.805-1.484
			c-3.252-0.371-6.798-0.586-10.544-0.676c-3.754-0.085-7.711,0.044-11.788,0.369c-4.074,0.33-8.274,0.913-12.425,1.962
			c-2.069,0.533-4.138,1.177-6.067,2.113c-0.962,0.466-1.894,1.007-2.692,1.691c-0.788,0.699-1.425,1.529-1.462,2.591
			c-0.002,0.953,0.622,1.915,1.397,2.614c0.787,0.717,1.713,1.292,2.671,1.789c1.934,0.976,4.005,1.654,6.078,2.222
			c4.168,1.076,8.388,1.657,12.477,1.933c4.088,0.297,8.062,0.288,11.81,0.204c3.751-0.122,7.295-0.35,10.547-0.733
			c3.252-0.376,6.221-0.86,8.805-1.499c2.581-0.636,4.795-1.39,6.48-2.288c1.692-0.881,2.845-1.909,3.343-2.796
			C102.969,122.34,102.856,121.744,102.891,121.755z"/>
	</g>
	<g>
		<path fill="#FFFFFF" d="M122,123.519c0,0,0.184,0.192,0.1,0.569c-0.112,0.397-0.307,0.912-0.84,1.441
			c-1.086,1.037-2.991,2.048-5.572,2.969c-2.592,0.901-5.782,1.813-9.529,2.567c-3.745,0.767-7.995,1.461-12.673,1.965
			c-4.678,0.503-9.766,0.779-15.152,0.82c-5.392,0.043-11.059-0.227-16.914-0.687c-5.849-0.503-11.877-1.155-17.956-2.188
			c-3.039-0.511-6.092-1.131-9.092-2.052c-1.502-0.451-2.997-0.969-4.434-1.69c-0.708-0.384-1.422-0.775-2.052-1.354
			c-0.612-0.586-1.244-1.272-1.272-2.443c0.032-0.207,0.014-0.359,0.088-0.611c0.083-0.243,0.164-0.542,0.292-0.715
			c0.226-0.413,0.522-0.746,0.83-1.051c0.619-0.611,1.325-1.035,2.028-1.451c1.424-0.786,2.911-1.371,4.409-1.882
			c3.007-0.992,6.064-1.68,9.108-2.257c6.097-1.124,12.158-1.722,18.026-2.123c5.87-0.38,11.563-0.483,16.946-0.355
			c5.394,0.107,10.483,0.414,15.161,0.938c4.678,0.522,8.94,1.224,12.685,1.995c3.748,0.758,6.962,1.669,9.553,2.574
			c2.582,0.923,4.534,1.94,5.618,2.98c0.532,0.529,0.82,1.051,0.929,1.434c0.063,0.187-0.135,0.344-0.115,0.441
			c0.012,0.101-0.171,0.151-0.171,0.151V123.519z M122,123.506c0,0,0.08-0.188-0.002-0.535c-0.104-0.345-0.33-0.825-0.844-1.325
			c-1.051-0.985-2.964-1.983-5.559-2.788c-2.587-0.843-5.829-1.487-9.577-2.041c-3.75-0.558-8.013-0.92-12.666-1.208
			c-4.654-0.265-9.702-0.488-15.041-0.532c-5.349-0.035-10.979,0.043-16.798,0.339c-5.816,0.295-11.823,0.814-17.843,1.79
			c-3.008,0.481-6.029,1.073-8.958,1.949c-1.463,0.432-2.911,0.932-4.249,1.598c-1.281,0.68-2.675,1.532-2.764,2.82
			c0.01-0.117,0.007-0.002,0.011-0.015l0.007,0.053l0.011,0.105c0.011,0.069-0.001,0.143,0.036,0.212
			c0.064,0.138,0.074,0.288,0.178,0.423c0.15,0.281,0.379,0.545,0.629,0.793c0.502,0.504,1.154,0.899,1.8,1.28
			c1.327,0.729,2.767,1.297,4.226,1.789c2.936,0.946,5.96,1.605,8.974,2.154c6.039,1.065,12.078,1.53,17.913,1.722
			c5.834,0.216,11.489,0.13,16.828,0.009c5.347-0.11,10.393-0.364,15.049-0.649c4.653-0.308,8.92-0.674,12.67-1.236
			c3.748-0.556,7.004-1.2,9.591-2.046c2.595-0.807,4.529-1.81,5.579-2.797c0.515-0.5,0.783-0.987,0.885-1.317
			c0.06-0.167-0.036-0.324-0.016-0.415c0.013-0.095-0.07-0.144-0.07-0.144V123.506z"/>
	</g>
	<path fill="#391C42" d="M138.908,47.986c-4.854-7.515-0.998-13.633-0.998-13.633c-5.14-2.97-5.425-9.437-5.425-9.437
		c-4.995-2.096-7.42-7.688-7.42-7.688c-4.569,1.396-9.421-2.097-9.421-2.097c-1.569,6.466-4.424,8.038-4.424,8.038
		c0.854-4.544-0.999-6.292-0.999-6.292C111.507,26.314,93.81,45.16,93.81,49.18c0,4.02-3.283,6.99-2.709,9.088
		c0.569,2.098,0,2.446-0.574,5.942c-0.714,3.496,1.144,7.165,2.285,7.165s5.281-4.543,6.139-6.641
		c0.853-2.272,2.854-1.747,2.569,1.397c-0.146,3.15-7.852,11.363-7.852,11.363l-1.998-2.626c0,2.1,3.284,8.741,4.994,7.514
		c1.715-1.219,7.135-13.626,13.845-17.473c6.707-3.671,3.137-6.961,2.996-7.136c2.424,4.194,2.853,9.612,1.283,14.33
		c-1.568,4.722-4.994,8.736-8.991,9.611c-8.297,2.578-14.773,3.582-23.119,21.323c0.712-9.261-1.997-21.673-6.424-29.359
		c-0.284-0.526-0.569-1.049-1.001-1.575c-2.424-3.67-3.994-8.389-4.708-13.106l0,0c-0.855-1.924-1.428-4.195-1.572-6.467
		c-0.14-1.048-0.14-2.272-0.281-3.494c0-1.225,0-2.271,0-3.496v-1.747l0.281,1.747c0.145,1.049,0.431,2.271,0.572,3.32
		c0.145-0.873,0.145-1.748,0.145-2.621c0-1.224,0-2.273-0.145-3.496c0-1.224-0.142-2.271-0.286-3.495
		c-0.142-1.222-0.286-2.271-0.426-3.496c-0.286-0.349-0.286-0.699-0.429-1.046c0-0.352-0.143-0.701-0.143-1.05
		c-0.142-0.7-0.285-1.398-0.428-2.096c-0.143-0.7-0.428-1.399-0.713-2.098c-0.286-0.7-0.572-1.398-0.716-2.098
		c0.144,0.7,0.43,1.398,0.716,2.098c0.285,0.699,0.57,1.398,0.855,2.098c0.285,0.698,0.428,1.396,0.57,2.096
		c0,0.349,0.145,0.698,0.286,1.05c0.14,0.347,0.14,0.697,0.426,0.872l0,0l0,0v0.174c0.286,2.274,0.572,4.545,0.714,6.816
		c0.145,1.225,0.145,2.447,0.145,3.497c0,0.524,0,1.223-0.145,1.746c0,0.524-0.142,1.225-0.283,1.749l-0.145,0.349l-0.142,0.349
		l0.142-0.173c-0.142-0.699-0.286-1.574-0.428-2.274c0,0.524,0,0.874,0,1.398c0,1.049,0,2.272,0.142,3.321
		c0.145,1.049,0.286,2.272,0.431,3.32c0.283,1.049,0.572,2.098,0.855,3.147c0.143,0.35,0.287,0.698,0.43,1.049
		c0.571,1.047,1.854,1.047,2.281,0c1.428-2.797,1.997-7.167,2.143-8.915c0.142-1.746,0.142-5.416,0.142-5.416
		c-0.287,1.921-0.712,4.019-0.712,4.193c-1.144-3.144,0.425-13.981,0.425-13.981l0,0l0,0c0.146-0.176,0.146-0.35,0.287-0.525l0,0
		c0.145-0.35,0.145-0.697,0.285-1.049l0,0c0.145-1.047,0.429-2.794,1.429-4.719c0.143-0.173,0.143-0.349,0.285-0.698l0,0
		c0.142-0.351,0.285-0.873,0.429-1.223l1.284,0.872l3.712,2.448c-1.571-7.865,4.708-8.039,4.708-8.039
		c-1.285-5.593,2.143-15.03,2.283-15.206l-15.411,8.039l0,0l0,0c-1-0.348-1.857-0.174-2.002-0.174c-0.283,0-1.138-0.174-2.14,0.174
		L54.988,7.789c0.143,0.35,3.568,9.788,2.285,15.206c0,0,6.28,0.174,4.709,8.039l4.996-3.32
		c-9.135,12.233-11.276,29.883-5.424,44.916c2.57,9.608,0.713,20.272-4.852,27.787c-4.854-8.912-14.42-18.906-23.836-21.702
		c-4.141-0.875-5.423-1.89-6.992-6.611c-1.568-4.718-1.143-10.136,1.283-14.33c0,0.175-3.568,3.465,2.998,7.136
		c6.848,3.847,12.127,16.254,13.843,17.473c1.71,1.228,4.993-5.414,4.993-7.514l-1.996,2.626c0,0-7.709-8.213-7.851-11.363
		c-0.143-3.144,1.715-3.669,2.568-1.397c0.857,2.271,4.995,6.641,6.14,6.641c1.139,0,2.996-3.495,2.279-7.165
		c-0.713-3.496-1.141-3.844-0.568-5.942c0.568-2.098-2.711-5.068-2.711-9.088c0-4.021-17.696-22.866-16.41-32.304
		c0,0-1.859,1.923-0.857,6.467c0,0-2.854-1.572-4.426-8.039c0,0-4.852,3.495-9.562,1.924c0,0-2.427,5.417-7.421,7.688
		c0,0-0.285,6.467-5.422,9.437c0,0,3.851,6.118-1,13.633c0,0,5.137,1.398,2.283,11.01c0,0,4.568-0.875,1.144,11.183l1.853-2.096
		c3.567,15.206,12.42,27.614,24.119,33.905c4.427,1.745,8.227,11.238,8.369,16.836c1.965,10.188,19.245,11.289,31.235,11.289
		c11.986,0,32.182-1.237,31.108-10.726c0.146-5.594,3.358-15.826,7.782-17.399c11.705-6.291,20.695-18.699,24.119-33.905
		l1.858,2.096c-3.425-11.882,1.139-11.183,1.139-11.183C133.769,49.385,138.908,47.986,138.908,47.986z M76.539,24.917
		c0.143-0.524,0.143-1.047,0.284-1.047c0.143,0,0.286,0.349,0.286,0.874c0,0.873-0.286,1.747-0.57,2.096
		C75.97,27.19,76.11,26.838,76.539,24.917z M74.114,36.276c0.142,0,0.142,0,0.286,0c0,0,0,0,0.144,0c0,0,0,0,0.14,0
		c0,0,0.145,0,0.286,0h0.145l0,0l-0.57,1.224L74.114,36.276L74.114,36.276z M73.113,36.451c0.288,0,0.571,0,0.857,0l0,0
		l-0.715,2.098L73.113,36.451L73.113,36.451z M71.829,36.451c0.287,0,0.713,0,1,0l0,0l-0.57,2.271L71.829,36.451L71.829,36.451z
		 M70.832,36.451c0.285,0,0.572,0,0.854,0l0,0l-0.282,2.098L70.832,36.451L70.832,36.451z M70.117,36.276L70.117,36.276h0.145l0,0
		c0.141,0,0,1.224,0,1.224L70.117,36.276z M67.834,23.869c0.143,0,0.143,0.349,0.286,1.047c0.427,1.922,0.427,2.274,0,1.922
		c-0.286-0.174-0.571-1.223-0.571-2.096C67.549,24.393,67.691,24.042,67.834,23.869z"/>
	<path fill="#FF7BAC" d="M73.41,56.198c-0.575,1.341-2.044,1.181-2.572,0.008C70.578,55.628,70.332,43,70.332,43h3.91
		C74.242,43,73.679,55.574,73.41,56.198z"/>
	<polygon points="74.242,43 70.332,43 70.117,38 74.675,38 	"/>
	<path fill="#A82DE2" d="M1.756,47.986c3.307-4.923,2.689-8.882,1-13.633c2.926-3.026,5.26-5.23,5.422-9.437
		c3.513-1.863,5.279-3.503,7.421-7.688c4.475,1.672,9.562-1.924,9.562-1.924s1.152,6.281,4.426,8.039
		C18.893,28.71,7.34,53.08,7.035,68.083l-1.853,2.096c0,0,3.591-11.214-1.144-11.183C4.85,54.962,6.412,50.5,1.756,47.986z"/>
	<g>
		<path fill="#662D91" d="M26.28,9.203c0,0-0.745,5.122-1.578,10.227c-0.196,1.278-0.378,2.56-0.587,3.753
			c-0.237,1.188-0.482,2.293-0.734,3.232c-0.259,0.938-0.471,1.72-0.656,2.261c-0.172,0.543-0.289,0.85-0.289,0.85l-0.099-0.019
			c0,0,0.003-0.328,0.042-0.896c0.026-0.571,0.114-1.376,0.215-2.344c0.108-0.966,0.283-2.084,0.497-3.277
			c0.241-1.188,0.54-2.447,0.824-3.709c1.088-5.057,2.266-10.096,2.266-10.096L26.28,9.203z"/>
	</g>
	<g>
		<path fill="#662D91" d="M14.903,14.912c0,0,1.572,4.251,3.058,8.53c0.383,1.066,0.781,2.127,1.116,3.134
			c0.308,1.016,0.572,1.971,0.758,2.802c0.179,0.834,0.332,1.527,0.403,2.024c0.084,0.493,0.114,0.78,0.114,0.78l-0.096,0.03
			c0,0-0.14-0.252-0.354-0.704c-0.226-0.448-0.499-1.104-0.831-1.889c-0.326-0.788-0.658-1.721-0.988-2.729
			c-0.304-1.017-0.587-2.114-0.885-3.207c-1.239-4.356-2.391-8.74-2.391-8.74L14.903,14.912z"/>
	</g>
	<g>
		<path fill="#662D91" d="M7.292,23.834c0,0,2.917,2.669,5.77,5.402c0.722,0.675,1.454,1.339,2.113,1.989
			c0.639,0.67,1.217,1.313,1.682,1.893c0.46,0.586,0.847,1.071,1.09,1.436c0.253,0.356,0.384,0.574,0.384,0.573l-0.071,0.07
			c0,0-0.214-0.136-0.564-0.397c-0.36-0.252-0.836-0.649-1.411-1.123c-0.57-0.478-1.199-1.071-1.854-1.725
			c-0.635-0.673-1.283-1.42-1.94-2.158c-2.667-2.914-5.269-5.892-5.269-5.892L7.292,23.834z"/>
	</g>
	<g>
		<path fill="#662D91" d="M2.781,34.31c0,0,3.134,1.526,6.222,3.13c0.774,0.398,1.565,0.766,2.281,1.156
			c0.708,0.404,1.344,0.825,1.878,1.205c1.071,0.755,1.718,1.378,1.718,1.378l-0.05,0.087c0,0-0.866-0.236-2.063-0.769
			c-0.601-0.263-1.288-0.594-1.998-0.995c-0.702-0.415-1.424-0.905-2.162-1.366c-2.961-1.83-5.877-3.739-5.877-3.739L2.781,34.31z"
			/>
	</g>
	<g>
		<path fill="#662D91" d="M1.754,47.949c0,0,2.55-0.285,5.102-0.501c0.638-0.063,1.275-0.138,1.874-0.179
			c0.6-0.019,1.16-0.019,1.642,0.014c0.482,0.038,0.884,0.066,1.167,0.113c0.282,0.038,0.444,0.074,0.444,0.074l0.004,0.075
			c0,0-0.158,0.051-0.435,0.115c-0.277,0.074-0.674,0.14-1.151,0.222c-0.477,0.078-1.035,0.13-1.634,0.167
			c-0.6,0.016-1.241,0.001-1.882-0.002c-2.562,0.023-5.126-0.022-5.126-0.022L1.754,47.949z"/>
	</g>
	<g>
		<path fill="#662D91" d="M4.016,58.967c0,0,1.241-1.189,2.523-2.325c0.315-0.292,0.623-0.591,0.93-0.849
			c0.32-0.242,0.63-0.453,0.917-0.608c0.289-0.151,0.528-0.28,0.712-0.348c0.179-0.076,0.289-0.108,0.289-0.108l0.047,0.059
			c0,0-0.057,0.1-0.172,0.256c-0.109,0.164-0.29,0.366-0.504,0.612c-0.218,0.242-0.495,0.495-0.804,0.75
			c-0.322,0.239-0.686,0.469-1.042,0.707c-1.403,0.983-2.848,1.913-2.848,1.913L4.016,58.967z"/>
	</g>
	<g>
		<path fill="#662D91" d="M5.171,70.174c0,0,0.447-1.017,0.894-2.033c0.217-0.511,0.452-1.014,0.669-1.371
			c0.211-0.36,0.382-0.585,0.382-0.585l0.022,0.011c0,0-0.073,0.273-0.226,0.662c-0.147,0.391-0.399,0.886-0.668,1.372
			c-0.525,0.979-1.051,1.957-1.051,1.957L5.171,70.174z"/>
	</g>
	<g>
		<path fill="#A82DE2" d="M138.975,47.986c-3.291-4.923-2.676-8.882-0.995-13.633c-2.914-3.026-5.234-5.23-5.396-9.437
			c-3.494-1.863-5.253-3.503-7.383-7.688c-4.459,1.672-9.517-1.924-9.517-1.924s-1.882,6.59-4.404,8.039
			c10.642,5.366,22.136,29.736,22.442,44.739l1.843,2.097c0,0-3.573-11.214,1.139-11.184C135.897,54.962,134.34,50.5,138.975,47.986
			z"/>
		<g>
			<path fill="#662D91" d="M114.669,9.184c0,0,1.173,5.04,2.256,10.097c0.282,1.262,0.58,2.521,0.82,3.709
				c0.212,1.193,0.386,2.311,0.493,3.277c0.101,0.968,0.188,1.773,0.213,2.344c0.037,0.568,0.04,0.896,0.04,0.896l-0.098,0.019
				c0,0-0.116-0.307-0.288-0.85c-0.185-0.541-0.396-1.323-0.653-2.261c-0.252-0.939-0.495-2.044-0.73-3.232
				c-0.208-1.194-0.389-2.475-0.584-3.753c-0.828-5.104-1.566-10.226-1.566-10.226L114.669,9.184z"/>
		</g>
		<g>
			<path fill="#662D91" d="M125.989,14.942c0,0-1.146,4.383-2.38,8.74c-0.297,1.093-0.579,2.19-0.882,3.207
				c-0.329,1.008-0.659,1.942-0.984,2.729c-0.331,0.786-0.603,1.441-0.828,1.889c-0.214,0.452-0.354,0.705-0.354,0.705l-0.096-0.03
				c0,0,0.03-0.287,0.113-0.78c0.071-0.497,0.224-1.19,0.401-2.023c0.184-0.832,0.447-1.787,0.754-2.802
				c0.334-1.007,0.729-2.068,1.111-3.134c1.48-4.279,3.048-8.53,3.048-8.53L125.989,14.942z"/>
		</g>
		<g>
			<path fill="#662D91" d="M133.537,23.904c0,0-2.589,2.978-5.242,5.891c-0.654,0.737-1.299,1.484-1.931,2.158
				c-0.651,0.654-1.277,1.247-1.846,1.725c-0.572,0.474-1.047,0.871-1.405,1.123c-0.349,0.261-0.562,0.397-0.562,0.397l-0.072-0.069
				c0,0,0.131-0.217,0.382-0.573c0.242-0.365,0.627-0.85,1.084-1.436c0.462-0.581,1.037-1.223,1.673-1.893
				c0.655-0.65,1.385-1.315,2.104-1.989c2.839-2.733,5.743-5.403,5.743-5.403L133.537,23.904z"/>
		</g>
		<g>
			<path fill="#662D91" d="M138.004,34.397c0,0-2.899,1.909-5.845,3.739c-0.734,0.461-1.452,0.951-2.15,1.366
				c-0.707,0.401-1.391,0.732-1.988,0.995c-1.191,0.533-2.055,0.77-2.055,0.77l-0.049-0.087c0,0,0.642-0.623,1.707-1.377
				c0.531-0.38,1.164-0.801,1.868-1.205c0.713-0.39,1.5-0.758,2.27-1.156c3.074-1.605,6.193-3.131,6.193-3.131L138.004,34.397z"/>
		</g>
		<g>
			<path fill="#662D91" d="M138.973,48.024c0,0-2.552,0.045-5.1,0.022c-0.638,0.004-1.276,0.018-1.873,0.002
				c-0.596-0.037-1.151-0.089-1.625-0.167c-0.475-0.083-0.87-0.148-1.146-0.222c-0.275-0.064-0.433-0.115-0.433-0.115l0.004-0.075
				c0,0,0.161-0.036,0.441-0.074c0.281-0.047,0.681-0.076,1.161-0.113c0.479-0.033,1.037-0.033,1.634-0.014
				c0.596,0.041,1.229,0.115,1.863,0.179c2.54,0.217,5.076,0.501,5.076,0.501L138.973,48.024z"/>
		</g>
		<g>
			<path fill="#662D91" d="M136.681,59.025c0,0-1.438-0.93-2.835-1.913c-0.355-0.238-0.717-0.468-1.038-0.707
				c-0.308-0.255-0.583-0.508-0.8-0.75c-0.213-0.246-0.393-0.448-0.501-0.611c-0.114-0.156-0.171-0.256-0.171-0.256l0.047-0.059
				c0,0,0.11,0.032,0.288,0.108c0.184,0.068,0.422,0.197,0.71,0.348c0.285,0.156,0.594,0.366,0.912,0.608
				c0.306,0.258,0.612,0.558,0.925,0.849c1.276,1.135,2.51,2.324,2.51,2.324L136.681,59.025z"/>
		</g>
		<g>
			<path fill="#662D91" d="M135.554,70.185c0,0-0.523-0.978-1.047-1.957c-0.268-0.486-0.518-0.981-0.665-1.372
				c-0.152-0.388-0.224-0.661-0.225-0.661l0.023-0.011c-0.001,0,0.169,0.226,0.38,0.585c0.217,0.357,0.45,0.86,0.667,1.371
				c0.444,1.017,0.89,2.033,0.89,2.033L135.554,70.185z"/>
		</g>
	</g>
	<g>
		<path fill="#FFFFFF" d="M49.52,74.416c0,0-0.43,1.173-0.92,2.313c-0.114,0.29-0.219,0.584-0.343,0.847
			c-0.143,0.253-0.292,0.48-0.449,0.66c-0.161,0.177-0.293,0.326-0.41,0.418c-0.108,0.096-0.183,0.145-0.183,0.145l-0.066-0.035
			c0,0-0.002-0.089,0.016-0.232c0.009-0.147,0.058-0.341,0.112-0.574c0.059-0.231,0.162-0.483,0.289-0.744
			c0.146-0.251,0.329-0.505,0.503-0.763c0.662-1.051,1.385-2.069,1.385-2.069L49.52,74.416z"/>
	</g>
	<g>
		<path fill="#FFFFFF" d="M91.17,74.071c0,0,0.738,1.099,1.415,2.229c0.178,0.278,0.365,0.552,0.515,0.821
			c0.131,0.278,0.236,0.547,0.298,0.792c0.057,0.247,0.106,0.451,0.117,0.607c0.019,0.151,0.017,0.244,0.017,0.244l-0.066,0.033
			c0,0-0.076-0.054-0.187-0.159c-0.118-0.101-0.253-0.263-0.417-0.456c-0.16-0.195-0.313-0.439-0.459-0.711
			c-0.128-0.28-0.235-0.594-0.353-0.902c-0.504-1.217-0.946-2.465-0.946-2.465L91.17,74.071z"/>
	</g>
	<g>
		<path fill="#FFFFFF" d="M75.553,45.716c0,0-0.038,1.139-0.076,2.277c-0.013,0.57-0.044,1.139-0.113,1.562
			c-0.063,0.423-0.138,0.704-0.138,0.704L75.2,50.256c0,0-0.033-0.288-0.035-0.716c-0.008-0.429,0.042-0.996,0.111-1.562
			c0.126-1.133,0.251-2.265,0.251-2.265L75.553,45.716z"/>
	</g>
	<g>
		<path fill="#FFFFFF" d="M69.06,47.219c0,0,0.116,0.881,0.232,1.763c0.065,0.44,0.11,0.882,0.099,1.217
			c-0.005,0.335-0.041,0.561-0.041,0.561l-0.025,0.002c0,0-0.072-0.217-0.132-0.546c-0.065-0.329-0.093-0.772-0.101-1.217
			c-0.029-0.889-0.059-1.777-0.059-1.777L69.06,47.219z"/>
	</g>
	<g>
		<path fill="#FFFFFF" d="M70.307,39.838c0,0-0.164-0.883-0.282-1.77c-0.036-0.221-0.079-0.442-0.1-0.65
			c-0.012-0.208,0.011-0.405,0.027-0.574c0.047-0.338,0.14-0.567,0.14-0.567l0.05-0.003c0,0,0.119,0.216,0.207,0.546
			c0.037,0.165,0.083,0.358,0.096,0.566c0.004,0.209-0.012,0.434-0.021,0.657c-0.011,0.894-0.067,1.791-0.067,1.791L70.307,39.838z"
			/>
	</g>
	<g>
		<path fill="#FFFFFF" d="M71.341,41c0,0-0.109-1.189-0.175-2.274c-0.022-0.271-0.052-0.595-0.061-0.849
			c0.001-0.254,0.036-0.744,0.063-0.947c0.067-0.407,0.173-0.93,0.173-0.93h0.051c0,0,0.105,0.497,0.173,0.904
			c0.026,0.203,0.062,0.553,0.063,0.808c-0.009,0.254-0.038,0.686-0.061,0.958C71.501,39.755,71.392,41,71.392,41H71.341z"/>
	</g>
	<g>
		<path fill="#FFFFFF" d="M72.309,41c0,0-0.109-1.035-0.175-2.275c-0.022-0.31-0.052-0.517-0.061-0.808
			c0.001-0.29,0.036-0.735,0.063-0.968C72.203,36.484,72.309,36,72.309,36h0.051c0,0,0.105,0.535,0.173,1
			c0.026,0.233,0.062,0.617,0.063,0.907c-0.009,0.291-0.038,0.452-0.061,0.762C72.469,39.909,72.359,41,72.359,41H72.309z"/>
	</g>
	<g>
		<path fill="#FFFFFF" d="M73.174,41.41c0,0-0.057-1.245-0.069-2.488c-0.009-0.311-0.025-0.622-0.021-0.913
			c0.013-0.291,0.06-0.561,0.096-0.792c0.088-0.462,0.206-0.768,0.206-0.768l0.051,0.002c0,0,0.092,0.314,0.14,0.783
			c0.017,0.233,0.04,0.506,0.028,0.797c-0.021,0.291-0.063,0.599-0.099,0.908c-0.118,1.237-0.28,2.473-0.28,2.473L73.174,41.41z"/>
	</g>
	<g>
		<path fill="#FFFFFF" d="M74.217,39.835c0,0-0.07-0.895-0.096-1.788c-0.012-0.224-0.032-0.447-0.031-0.656
			c0.01-0.209,0.054-0.402,0.088-0.568c0.082-0.331,0.197-0.548,0.197-0.548l0.051,0.002c0,0,0.096,0.228,0.148,0.564
			c0.019,0.168,0.045,0.365,0.036,0.573c-0.018,0.208-0.057,0.429-0.089,0.651c-0.104,0.887-0.254,1.772-0.254,1.772L74.217,39.835z
			"/>
	</g>
	<path fill="#FF7BAC" d="M74.4,37.564c-0.211,0.181-3.773,0.181-4.068,0.026c-0.295-0.155-0.719-1.554-0.719-1.554
		c1.455,0.372,4.325,0.471,5.625,0C75.238,36.036,74.608,37.385,74.4,37.564z"/>
	<g>
		<path fill="#FFFFFF" d="M45.164,74.876c0,0,0.482-0.95,1.002-1.876c0.125-0.234,0.243-0.474,0.371-0.687
			c0.135-0.209,0.29-0.385,0.42-0.537c0.272-0.298,0.505-0.463,0.505-0.463l0.042,0.027c0,0-0.055,0.28-0.213,0.65
			c-0.085,0.182-0.182,0.396-0.316,0.604c-0.142,0.204-0.31,0.41-0.473,0.621c-0.629,0.855-1.296,1.687-1.296,1.687L45.164,74.876z"
			/>
	</g>
	<g>
		<path fill="#FFFFFF" d="M44.489,73.918c0,0,0.436-0.836,0.909-1.646c0.113-0.206,0.221-0.417,0.337-0.603
			c0.124-0.182,0.268-0.331,0.389-0.461c0.254-0.252,0.473-0.386,0.473-0.386l0.041,0.028c0,0-0.044,0.253-0.186,0.582
			c-0.077,0.16-0.163,0.349-0.287,0.53c-0.13,0.177-0.287,0.354-0.437,0.534c-0.581,0.737-1.199,1.449-1.199,1.449L44.489,73.918z"
			/>
	</g>
	<g>
		<path fill="#FFFFFF" d="M43.884,72.819c0,0,0.35-0.756,0.737-1.488c0.092-0.187,0.177-0.376,0.274-0.544
			c0.104-0.164,0.23-0.297,0.335-0.414c0.223-0.226,0.423-0.343,0.423-0.343l0.042,0.026c0,0-0.021,0.231-0.13,0.529
			c-0.061,0.145-0.128,0.316-0.231,0.48c-0.111,0.158-0.247,0.317-0.376,0.479c-0.498,0.662-1.033,1.301-1.033,1.301L43.884,72.819z
			"/>
	</g>
	<g>
		<path fill="#FFFFFF" d="M43.183,71.646c0,0,0.339-0.666,0.715-1.305c0.089-0.163,0.172-0.331,0.266-0.477
			c0.101-0.141,0.223-0.252,0.325-0.35c0.216-0.186,0.409-0.275,0.409-0.275l0.041,0.029c0,0-0.021,0.212-0.127,0.477
			c-0.059,0.128-0.124,0.28-0.224,0.421c-0.107,0.136-0.238,0.27-0.364,0.407c-0.481,0.564-1,1.102-1,1.102L43.183,71.646z"/>
	</g>
	<g>
		<path fill="#FFFFFF" d="M42.551,70.304c0,0,0.292-0.564,0.62-1.101c0.077-0.138,0.148-0.28,0.231-0.401
			c0.089-0.116,0.2-0.204,0.292-0.281c0.196-0.146,0.375-0.206,0.375-0.206l0.04,0.03c0,0-0.011,0.188-0.1,0.416
			c-0.05,0.109-0.105,0.239-0.194,0.356c-0.095,0.111-0.214,0.218-0.326,0.329c-0.431,0.458-0.898,0.888-0.898,0.888L42.551,70.304z
			"/>
	</g>
	<g>
		<path fill="#FFFFFF" d="M41.791,69.425c0,0,0.286-0.568,0.608-1.11c0.076-0.139,0.146-0.282,0.227-0.405
			c0.088-0.118,0.198-0.207,0.29-0.285c0.194-0.148,0.373-0.211,0.373-0.211l0.04,0.03c0,0-0.009,0.189-0.095,0.418
			c-0.049,0.11-0.103,0.241-0.19,0.359c-0.094,0.113-0.212,0.221-0.323,0.333c-0.427,0.464-0.89,0.901-0.89,0.901L41.791,69.425z"/>
	</g>
	<g>
		<path fill="#FFFFFF" d="M95.783,74.292c0,0-0.686-0.725-1.334-1.477c-0.168-0.185-0.341-0.364-0.487-0.545
			c-0.14-0.186-0.242-0.38-0.333-0.544c-0.17-0.338-0.234-0.6-0.234-0.6l0.039-0.029c0,0,0.234,0.134,0.512,0.39
			c0.134,0.133,0.292,0.284,0.433,0.47c0.133,0.19,0.259,0.406,0.39,0.617c0.546,0.83,1.055,1.688,1.055,1.688L95.783,74.292z"/>
	</g>
	<g>
		<path fill="#FFFFFF" d="M96.198,73.355c0,0-0.585-0.633-1.134-1.292c-0.143-0.161-0.29-0.318-0.413-0.477
			c-0.116-0.164-0.195-0.337-0.267-0.482c-0.131-0.301-0.169-0.536-0.169-0.536l0.041-0.029c0,0,0.21,0.113,0.451,0.335
			c0.114,0.116,0.251,0.247,0.368,0.411c0.109,0.168,0.209,0.359,0.314,0.546c0.442,0.734,0.849,1.495,0.849,1.495L96.198,73.355z"
			/>
	</g>
	<g>
		<path fill="#FFFFFF" d="M96.853,72.349c0,0-0.58-0.51-1.124-1.048c-0.142-0.131-0.287-0.257-0.41-0.387
			c-0.116-0.136-0.197-0.286-0.271-0.412c-0.134-0.262-0.177-0.476-0.177-0.476l0.037-0.032c0,0,0.205,0.076,0.442,0.25
			c0.112,0.092,0.248,0.196,0.364,0.332c0.109,0.141,0.211,0.306,0.317,0.465c0.446,0.623,0.857,1.274,0.857,1.274L96.853,72.349z"
			/>
	</g>
	<g>
		<path fill="#FFFFFF" d="M97.294,71.059c0,0-0.476-0.408-0.916-0.844c-0.114-0.105-0.235-0.206-0.333-0.313
			c-0.091-0.112-0.149-0.239-0.202-0.345c-0.094-0.222-0.109-0.408-0.109-0.408l0.039-0.031c0,0,0.18,0.052,0.378,0.188
			c0.094,0.073,0.206,0.155,0.298,0.267c0.085,0.117,0.16,0.255,0.24,0.389c0.34,0.519,0.645,1.066,0.645,1.066L97.294,71.059z"/>
	</g>
	<g>
		<path fill="#FFFFFF" d="M97.78,70.095c0,0-0.417-0.354-0.798-0.736c-0.101-0.092-0.206-0.179-0.29-0.273
			c-0.077-0.099-0.122-0.213-0.163-0.308c-0.07-0.2-0.069-0.371-0.069-0.371l0.039-0.031c0,0,0.166,0.041,0.343,0.157
			c0.083,0.063,0.183,0.133,0.261,0.232c0.07,0.104,0.13,0.228,0.194,0.347c0.279,0.462,0.522,0.952,0.522,0.952L97.78,70.095z"/>
	</g>
	<g>
		<path fill="#FFFFFF" d="M98.453,69.373c0,0-0.437-0.361-0.837-0.751c-0.105-0.093-0.216-0.183-0.305-0.278
			c-0.082-0.101-0.132-0.217-0.177-0.315c-0.079-0.204-0.085-0.379-0.085-0.379l0.039-0.031c0,0,0.17,0.041,0.354,0.16
			c0.086,0.064,0.19,0.136,0.272,0.237c0.076,0.106,0.141,0.232,0.211,0.354c0.301,0.472,0.566,0.972,0.566,0.972L98.453,69.373z"/>
	</g>
	<path fill="#A82DE2" d="M61.982,31.034c0,0,1.984-7.165-4.709-8.039c0.453-5.695-0.223-9.567-2.285-15.206
		c4.08,2.128,15.414,8.039,15.414,8.039c-4.287,1.388-4.961,8.202-3.424,11.886L61.982,31.034z"/>
	<path fill="#A82DE2" d="M82.966,31.034c0,0-2.015-7.165,4.781-8.039c-0.461-5.695,0.113-9.567,2.208-15.206
		c-4.143,2.128-15.538,8.039-15.538,8.039c4.353,1.388,5.036,8.202,3.477,11.886L82.966,31.034z"/>
	<g>
		<path fill="#662D91" d="M55.021,7.751c0,0,3.249,2.496,6.438,5.061c0.806,0.632,1.621,1.253,2.359,1.864
			c0.72,0.633,1.376,1.243,1.911,1.798c0.53,0.561,0.974,1.024,1.261,1.377c0.295,0.343,0.452,0.553,0.452,0.553l-0.065,0.076
			c0,0-0.231-0.123-0.616-0.362c-0.392-0.23-0.918-0.598-1.553-1.037c-0.63-0.444-1.333-0.999-2.068-1.615
			c-0.717-0.637-1.455-1.348-2.202-2.047c-3.021-2.762-5.983-5.592-5.983-5.592L55.021,7.751z"/>
	</g>
	<g>
		<path fill="#662D91" d="M57.268,22.958c0,0,2.253-0.532,4.518-0.998c0.564-0.125,1.127-0.262,1.66-0.36
			c0.536-0.078,1.039-0.132,1.475-0.147c0.437-0.01,0.801-0.021,1.06-0.001c0.258,0.01,0.407,0.03,0.407,0.03l0.012,0.074
			c0,0-0.135,0.066-0.376,0.157c-0.24,0.1-0.588,0.205-1.006,0.333c-0.418,0.124-0.913,0.231-1.446,0.326
			c-0.537,0.074-1.113,0.123-1.689,0.182c-2.295,0.273-4.602,0.479-4.602,0.479L57.268,22.958z"/>
	</g>
	<g>
		<path fill="#662D91" d="M61.964,31.017c0,0,1.02-1.31,2.074-2.59c0.259-0.324,0.513-0.653,0.765-0.948
			c0.259-0.29,0.526-0.537,0.752-0.751c0.464-0.419,0.819-0.658,0.819-0.658l0.037,0.033c0,0-0.196,0.38-0.56,0.889
			c-0.187,0.249-0.402,0.543-0.66,0.833c-0.265,0.284-0.562,0.574-0.854,0.868c-1.151,1.193-2.336,2.357-2.336,2.357L61.964,31.017z
			"/>
	</g>
	<g>
		<path fill="#662D91" d="M89.986,7.829c0,0-3.075,2.698-6.207,5.324c-0.775,0.667-1.541,1.344-2.283,1.949
			c-0.761,0.583-1.484,1.107-2.133,1.522c-0.651,0.41-1.192,0.755-1.593,0.968c-0.394,0.222-0.63,0.334-0.63,0.335l-0.063-0.079
			c0,0,0.165-0.203,0.475-0.533c0.301-0.34,0.764-0.784,1.316-1.32c0.557-0.531,1.237-1.111,1.982-1.712
			c0.764-0.579,1.603-1.163,2.434-1.759c3.291-2.423,6.639-4.773,6.639-4.774L89.986,7.829z"/>
	</g>
	<g>
		<path fill="#662D91" d="M87.743,23.032c0,0-2.314-0.083-4.621-0.233c-0.578-0.028-1.157-0.046-1.696-0.092
			c-0.538-0.066-1.037-0.147-1.462-0.249c-0.424-0.106-0.778-0.191-1.022-0.279c-0.246-0.078-0.385-0.137-0.385-0.137l0.008-0.074
			c0,0,0.148-0.028,0.405-0.052c0.258-0.033,0.621-0.042,1.059-0.055c0.437-0.009,0.941,0.019,1.48,0.068
			c0.537,0.07,1.106,0.176,1.677,0.271c2.286,0.344,4.565,0.756,4.565,0.756L87.743,23.032z"/>
	</g>
	<g>
		<path fill="#662D91" d="M82.946,31.05c0.001,0-1.185-1.226-2.336-2.48c-0.292-0.31-0.59-0.615-0.854-0.914
			c-0.258-0.304-0.472-0.611-0.658-0.871c-0.361-0.53-0.556-0.923-0.557-0.923l0.039-0.032c-0.001,0,0.355,0.256,0.82,0.698
			c0.227,0.226,0.494,0.487,0.753,0.791c0.251,0.309,0.504,0.653,0.763,0.991c1.052,1.339,2.068,2.708,2.069,2.708L82.946,31.05z"/>
	</g>
	<path fill="#FF341F" d="M76.539,24.917c0.143-0.524,0.143-1.047,0.284-1.047c0.143,0,0.286,0.349,0.286,0.874
		c0,0.873-0.286,1.747-0.57,2.096C75.97,27.19,76.11,26.838,76.539,24.917z"/>
	<path fill="#FF341F" d="M67.834,23.869c0.143,0,0.143,0.349,0.286,1.047c0.427,1.922,0.427,2.274,0,1.922
		c-0.286-0.174-0.571-1.223-0.571-2.096C67.549,24.393,67.691,24.042,67.834,23.869z"/>
	<path fill="#FF341F" d="M40.45,48.421c0.571,1.178,0.729,2.353,0.353,2.623c-0.373,0.272-1.139-0.465-1.706-1.644
		c-0.569-1.178-0.726-2.352-0.351-2.624C39.119,46.506,39.883,47.242,40.45,48.421z"/>
	<path fill="#FF341F" d="M99.78,49.373c-0.536,1.2-1.284,1.963-1.663,1.708c-0.382-0.259-0.253-1.439,0.288-2.635
		c0.535-1.201,1.281-1.964,1.66-1.71C100.445,46.993,100.317,48.172,99.78,49.373z"/>
	<path opacity="0.6" fill="#FFFFFF" d="M40.102,48.539c0.183,0.399,0.134,0.855-0.11,1.024c-0.243,0.167-0.589-0.018-0.771-0.417
		c-0.182-0.399-0.133-0.857,0.11-1.025C39.575,47.953,39.92,48.142,40.102,48.539z"/>
	<path opacity="0.6" fill="#FFFFFF" d="M99.437,49.109c-0.164,0.412-0.496,0.627-0.75,0.477c-0.25-0.145-0.325-0.598-0.162-1.01
		c0.159-0.41,0.494-0.625,0.748-0.479C99.523,48.244,99.597,48.697,99.437,49.109z"/>
	<path opacity="0.6" fill="#FFFFFF" d="M68.109,25.494c0.067,0.289,0.035,0.551-0.068,0.588c-0.107,0.037-0.248-0.167-0.314-0.453
		c-0.068-0.288-0.039-0.551,0.069-0.589C67.902,25.003,68.043,25.206,68.109,25.494z"/>
	<path opacity="0.6" fill="#FFFFFF" d="M76.859,25.912c-0.061,0.291-0.205,0.495-0.323,0.459c-0.118-0.039-0.166-0.303-0.104-0.593
		c0.06-0.29,0.205-0.496,0.322-0.458C76.874,25.358,76.922,25.624,76.859,25.912z"/>
</g>
</svg>
