<?xml version="1.0" encoding="utf-8"?>
<!-- Generator: Adobe Illustrator 16.0.3, SVG Export Plug-In . SVG Version: 6.00 Build 0)  -->
<!DOCTYPE svg PUBLIC "-//W3C//DTD SVG 1.1//EN" "http://www.w3.org/Graphics/SVG/1.1/DTD/svg11.dtd">
<svg version="1.1" id="all_in_one" xmlns="http://www.w3.org/2000/svg" xmlns:xlink="http://www.w3.org/1999/xlink" x="0px" y="0px"
	 width="120px" height="100px" viewBox="0 0 120 100" enable-background="new 0 0 120 100" xml:space="preserve">
<rect x="11" y="6" fill="#0071BC" width="100" height="88"/>
<g>
	<path fill="#FFFFFF" d="M88,86.003c0,0-0.213,0.114-0.234,0.335c-0.064,0.221-0.264,0.56-0.55,0.895
		c-0.537,0.699-1.679,1.413-3.161,2.031c-1.484,0.618-3.37,1.227-5.551,1.739c-2.18,0.506-4.68,0.978-7.418,1.293
		c-2.737,0.313-5.725,0.538-8.881,0.552c-3.158,0.059-6.483-0.107-9.911-0.4c-3.423-0.322-6.956-0.74-10.492-1.482
		c-1.769-0.36-3.542-0.804-5.266-1.444c-0.86-0.322-1.717-0.685-2.508-1.198c-0.398-0.25-0.772-0.556-1.101-0.922
		c-0.323-0.376-0.589-0.825-0.593-1.432l0.033-0.344c0.037-0.136,0.076-0.276,0.123-0.408c0.11-0.237,0.242-0.457,0.401-0.651
		c0.32-0.382,0.69-0.704,1.084-0.971c0.784-0.546,1.635-0.941,2.493-1.295c1.727-0.677,3.502-1.154,5.274-1.549
		c3.55-0.768,7.097-1.185,10.532-1.451c3.437-0.265,6.773-0.293,9.925-0.235c3.161,0.046,6.14,0.283,8.877,0.609
		c2.737,0.327,5.225,0.801,7.405,1.31c2.18,0.514,4.041,1.122,5.526,1.743c1.48,0.62,2.773,1.336,3.311,2.036
		C87.884,85.465,88,86.019,88,85.998V86.003z M87,85.998c0,0.018,0.322-0.495-0.23-1.157c-0.527-0.66-1.486-1.346-2.963-1.929
		c-1.473-0.611-3.304-1.069-5.481-1.486c-2.184-0.405-4.644-0.694-7.365-0.923c-2.721-0.229-5.665-0.357-8.791-0.418
		c-3.133-0.058-6.425,0.041-9.832,0.248c-3.404,0.214-6.914,0.59-10.419,1.28c-1.75,0.345-3.501,0.772-5.183,1.386
		c-0.837,0.31-1.665,0.66-2.4,1.135c-0.712,0.475-1.433,1.062-1.457,1.893c-0.005,0.319,0.166,0.742,0.436,1.053
		c0.271,0.322,0.601,0.615,0.969,0.861c0.728,0.507,1.552,0.892,2.386,1.231c1.686,0.649,3.44,1.111,5.194,1.49
		c3.52,0.716,7.048,1.091,10.465,1.248c3.415,0.179,6.729,0.139,9.855,0.083c3.131-0.093,6.089-0.234,8.811-0.476
		c2.721-0.239,5.212-0.53,7.396-0.938c2.178-0.418,4.071-0.876,5.543-1.489c1.478-0.586,2.312-1.272,2.838-1.934
		C87.322,86.498,87,85.984,87,85.993V85.998z"/>
</g>
<g>
	<path fill="#FFFFFF" d="M104,87.231c0,0.002,0.094,0.159-0.034,0.481c-0.12,0.348-0.419,0.716-0.931,1.085
		c-1.023,0.743-2.724,1.396-4.937,2.049c-2.227,0.612-4.947,1.278-8.121,1.818c-3.171,0.55-6.764,1.075-10.707,1.448
		c-3.944,0.374-8.23,0.565-12.766,0.582c-4.54,0.017-9.312-0.224-14.245-0.574c-4.929-0.391-10.011-0.865-15.155-1.556
		c-2.573-0.339-5.161-0.753-7.73-1.366c-1.287-0.295-2.572-0.632-3.834-1.116c-0.632-0.237-1.255-0.527-1.858-0.914
		c-0.299-0.195-0.596-0.422-0.858-0.73c-0.134-0.152-0.257-0.319-0.346-0.536c-0.049-0.102-0.099-0.201-0.113-0.326l-0.031-0.18
		l-0.013-0.09c-0.001-0.066-0.014,0.021-0.005-0.172c0.036-0.181,0.002-0.278,0.124-0.565c0.048-0.119,0.104-0.256,0.164-0.354
		l0.185-0.251c0.254-0.324,0.546-0.566,0.841-0.778c0.594-0.419,1.213-0.742,1.839-1.011c1.253-0.548,2.533-0.951,3.816-1.306
		c2.574-0.683,5.165-1.164,7.742-1.568c5.159-0.779,10.266-1.199,15.211-1.486c4.944-0.271,9.737-0.346,14.269-0.244
		c4.542,0.083,8.827,0.305,12.771,0.7c3.944,0.392,7.541,0.922,10.712,1.478c3.174,0.542,5.905,1.209,8.132,1.824
		c2.213,0.655,3.932,1.313,4.955,2.06c0.509,0.366,0.772,0.748,0.886,1.078c0.129,0.315,0.037,0.513,0.037,0.506V87.231z
		 M104,87.217c0,0.004-0.014-0.156-0.129-0.426c-0.096-0.279-0.425-0.629-0.917-0.972c-0.987-0.699-2.702-1.344-4.924-1.881
		c-2.223-0.555-4.989-0.954-8.163-1.293c-3.176-0.343-6.779-0.534-10.703-0.693c-3.926-0.136-8.181-0.276-12.677-0.296
		c-4.505-0.009-9.248,0.041-14.153,0.229c-4.902,0.183-9.967,0.524-15.065,1.162c-2.548,0.312-5.11,0.699-7.622,1.275
		c-1.255,0.281-2.505,0.606-3.684,1.053c-0.593,0.217-1.158,0.483-1.654,0.796c-0.248,0.155-0.473,0.333-0.633,0.517l-0.118,0.138
		c-0.027,0.041-0.028,0.062-0.053,0.089c-0.058-0.002-0.075,0.245-0.107,0.385c0.015-0.153,0.008-0.024,0.013-0.051l0.006,0.032
		l0.007,0.064c-0.008,0.043,0.019,0.09,0.042,0.137c0.027,0.095,0.092,0.194,0.174,0.294c0.151,0.2,0.373,0.394,0.615,0.565
		c0.488,0.345,1.049,0.644,1.636,0.892c1.17,0.511,2.414,0.902,3.666,1.242c2.517,0.646,5.082,1.1,7.634,1.478
		c5.113,0.726,10.203,1.014,15.12,1.093c4.916,0.107,9.678-0.008,14.175-0.104c4.503-0.085,8.755-0.255,12.681-0.412
		c3.924-0.178,7.525-0.375,10.701-0.723c3.174-0.342,5.938-0.74,8.161-1.299c2.222-0.538,3.931-1.188,4.918-1.891
		c0.489-0.34,0.833-0.704,0.922-0.965c0.117-0.262,0.132-0.462,0.132-0.45V87.217z"/>
</g>
<path fill="#391C42" d="M118.252,34.572c-4.144-5.239-0.853-9.503-0.853-9.503c-4.387-2.07-4.63-6.578-4.63-6.578
	c-4.264-1.461-6.335-5.36-6.335-5.36c-3.9,0.974-8.041-1.462-8.041-1.462c-1.34,4.508-3.777,5.604-3.777,5.604
	c0.729-3.167-0.853-4.386-0.853-4.386c1.097,6.579-14.717,19.808-14.717,22.61c0,2.803-2.803,4.873-2.313,6.335
	c0.485,1.462,0,1.705-0.49,4.142c-0.609,2.437,0.976,4.995,1.95,4.995s4.509-3.167,5.24-4.629c0.729-1.584,2.436-1.218,2.193,0.974
	c-0.123,2.195-6.702,7.92-6.702,7.92l-1.706-1.829c0,1.463,2.804,6.093,4.263,5.237c1.465-0.85,6.092-9.499,11.819-12.181
	c5.726-2.559,3.385-4.944,3.265-5.066c2.069,2.923,2.436,6.701,1.096,9.99c-1.339,3.291-4.264,6.09-7.676,6.699
	c-8.65,2.195-15.594,7.678-19.735,14.865c0.607-6.456-1.705-15.108-5.483-20.467c-0.242-0.367-0.486-0.731-0.854-1.098
	c-2.07-2.559-3.41-5.848-4.019-9.137l0,0c-0.731-1.341-1.219-2.924-1.342-4.508c-0.12-0.73-0.12-1.583-0.241-2.436
	c0-0.854,0-1.583,0-2.438v-1.218l0.241,1.218c0.123,0.731,0.367,1.583,0.489,2.315c0.122-0.609,0.122-1.218,0.122-1.827
	c0-0.854,0-1.584-0.122-2.437c0-0.854-0.122-1.583-0.245-2.437c-0.121-0.852-0.244-1.583-0.364-2.437
	c-0.244-0.244-0.244-0.487-0.366-0.729c0-0.245-0.122-0.489-0.122-0.732c-0.122-0.488-0.243-0.975-0.364-1.461
	c-0.122-0.488-0.367-0.976-0.608-1.463c-0.245-0.488-0.49-0.975-0.612-1.462c0.122,0.488,0.367,0.975,0.612,1.462
	c0.242,0.487,0.486,0.975,0.73,1.463c0.243,0.486,0.365,0.973,0.487,1.461c0,0.243,0.123,0.487,0.244,0.732
	c0.12,0.242,0.12,0.486,0.364,0.608l0,0l0,0v0.122c0.245,1.585,0.488,3.168,0.61,4.751c0.122,0.854,0.122,1.706,0.122,2.437
	c0,0.366,0,0.853-0.122,1.218c0,0.365-0.122,0.854-0.244,1.219l-0.122,0.244l-0.122,0.244l0.122-0.121
	c-0.122-0.488-0.245-1.097-0.366-1.585c0,0.365,0,0.609,0,0.975c0,0.731,0,1.584,0.121,2.315c0.123,0.731,0.245,1.584,0.367,2.314
	c0.244,0.731,0.488,1.462,0.731,2.194c0.122,0.244,0.245,0.487,0.366,0.731c0.488,0.73,1.583,0.73,1.948,0
	c1.219-1.949,1.705-4.995,1.828-6.214c0.121-1.217,0.121-3.775,0.121-3.775c-0.244,1.339-0.607,2.801-0.607,2.923
	c-0.977-2.192,0.363-9.746,0.363-9.746l0,0l0,0c0.123-0.123,0.123-0.244,0.244-0.366l0,0c0.123-0.244,0.123-0.486,0.244-0.731l0,0
	c0.123-0.73,0.365-1.948,1.219-3.29c0.121-0.121,0.121-0.243,0.244-0.487l0,0c0.12-0.244,0.243-0.609,0.365-0.853l1.097,0.609
	l3.168,1.706c-1.341-5.482,4.02-5.604,4.02-5.604c-1.097-3.898,1.829-10.477,1.949-10.599l-13.156,5.604l0,0l0,0
	c-0.853-0.243-1.585-0.122-1.708-0.122c-0.242,0-0.972-0.122-1.827,0.122L46.614,6.55c0.123,0.244,3.046,6.823,1.951,10.599
	c0,0,5.36,0.122,4.019,5.604l4.265-2.315c-7.797,8.528-9.625,20.833-4.63,31.311c2.194,6.699,0.609,14.132-4.142,19.37
	c-4.143-6.212-10.601-11.088-18.64-13.037c-3.533-0.609-6.335-3.408-7.675-6.699c-1.34-3.289-0.976-7.066,1.096-9.99
	c0,0.122-3.339,2.507,2.266,5.066c5.847,2.682,10.353,11.331,11.817,12.181c1.46,0.855,4.263-3.774,4.263-5.237l-1.705,1.829
	c0,0-6.58-5.725-6.701-7.92c-0.122-2.192,1.464-2.558,2.193-0.974c0.731,1.583,4.264,4.629,5.24,4.629
	c0.973,0,2.558-2.437,1.947-4.995c-0.609-2.437-0.974-2.68-0.486-4.142c0.486-1.462-2.314-3.533-2.314-6.335
	c0-2.802-14.813-16.031-13.715-22.61c0,0-1.586,1.341-0.732,4.508c0,0-2.436-1.096-3.777-5.604c0,0-4.142,2.437-8.162,1.341
	c0,0-2.072,3.776-6.335,5.36c0,0-0.244,4.508-4.629,6.578c0,0,3.288,4.265-0.853,9.503c0,0,4.384,0.975,1.948,7.675
	c0,0,3.899-0.61,0.977,7.796l1.581-1.461c3.045,10.599,10.602,19.25,20.589,23.635c3.778,1.217,7.022,7.835,7.145,11.737
	c1.676,7.102,16.427,7.869,26.663,7.869c10.232,0,27.471-0.863,26.556-7.477c0.123-3.9,2.866-11.033,6.643-12.13
	c9.992-4.385,17.666-13.036,20.589-23.635l1.586,1.461c-2.923-8.284,0.972-7.796,0.972-7.796
	C113.864,35.546,118.252,34.572,118.252,34.572z M65.012,18.49c0.121-0.366,0.121-0.73,0.242-0.73c0.122,0,0.244,0.243,0.244,0.609
	c0,0.608-0.244,1.217-0.486,1.461C64.525,20.075,64.645,19.83,65.012,18.49z M62.941,26.409c0.121,0,0.121,0,0.244,0
	c0,0,0,0,0.122,0c0,0,0,0,0.12,0c0,0,0.123,0,0.244,0h0.123l0,0l-0.487,0.854L62.941,26.409L62.941,26.409z M62.087,26.53
	c0.245,0,0.487,0,0.731,0l0,0l-0.609,1.462L62.087,26.53L62.087,26.53z M60.991,26.53c0.245,0,0.609,0,0.853,0l0,0l-0.486,1.583
	L60.991,26.53L60.991,26.53z M60.14,26.53c0.243,0,0.488,0,0.729,0l0,0l-0.241,1.462L60.14,26.53L60.14,26.53z M59.529,26.409
	L59.529,26.409h0.123l0,0c0.121,0,0,0.854,0,0.854L59.529,26.409z M57.581,17.76c0.122,0,0.122,0.243,0.243,0.73
	c0.366,1.339,0.366,1.584,0,1.339c-0.243-0.122-0.487-0.853-0.487-1.461C57.337,18.124,57.459,17.88,57.581,17.76z"/>
<path fill="#FF7BAC" d="M62.341,40.249c-0.491,0.935-1.746,0.799-2.196-0.018C59.922,39.827,59.713,31,59.713,31h3.338
	C63.051,31,62.569,39.813,62.341,40.249z"/>
<polygon points="63.051,31 59.713,31 59.529,27 63.42,27 "/>
<path fill="#A82DE2" d="M1.174,34.572c2.823-3.432,2.295-6.191,0.853-9.503c2.498-2.11,4.49-3.646,4.629-6.578
	c2.998-1.299,4.507-2.442,6.335-5.36c3.819,1.166,8.162-1.341,8.162-1.341s0.984,4.378,3.777,5.604
	C15.802,21.134,5.94,38.123,5.68,48.582l-1.581,1.461c0,0,3.066-7.817-0.977-7.796C3.814,39.435,5.148,36.324,1.174,34.572z"/>
<g>
	<path fill="#662D91" d="M22.114,7.541c0,0-0.605,3.591-1.299,7.162c-0.17,0.894-0.306,1.795-0.484,2.628
		c-0.194,0.83-0.424,1.593-0.643,2.241c-0.432,1.299-0.854,2.135-0.854,2.135l-0.098-0.022c0,0-0.011-0.936,0.171-2.292
		c0.088-0.679,0.217-1.466,0.408-2.296c0.206-0.827,0.479-1.697,0.72-2.574c0.946-3.513,1.981-7.004,1.981-7.004L22.114,7.541z"/>
</g>
<g>
	<path fill="#662D91" d="M12.402,11.508c0,0,1.369,2.93,2.652,5.894c0.325,0.739,0.681,1.466,0.967,2.167
		c0.271,0.706,0.478,1.383,0.632,1.972c0.317,1.175,0.401,2.007,0.401,2.007l-0.094,0.036c0,0-0.498-0.672-1.053-1.755
		c-0.281-0.54-0.583-1.18-0.858-1.885c-0.259-0.71-0.484-1.488-0.741-2.254c-1.042-3.056-2-6.146-2-6.146L12.402,11.508z"/>
</g>
<g>
	<path fill="#662D91" d="M5.901,17.721c0,0,2.497,1.799,4.936,3.668c0.612,0.464,1.246,0.902,1.808,1.353
		c0.551,0.462,1.033,0.933,1.432,1.354c0.801,0.836,1.248,1.499,1.248,1.499l-0.064,0.077c0,0-0.731-0.322-1.697-0.962
		c-0.485-0.317-1.033-0.708-1.586-1.168c-0.543-0.472-1.087-1.018-1.653-1.538c-2.272-2.068-4.487-4.205-4.487-4.205L5.901,17.721z"
		/>
</g>
<g>
	<path fill="#662D91" d="M2.048,25.023c0,0,2.675,0.997,5.312,2.077c0.661,0.266,1.335,0.502,1.947,0.77
		c0.604,0.282,1.147,0.591,1.604,0.876c0.915,0.565,1.466,1.066,1.466,1.066l-0.042,0.091c0,0-0.739-0.098-1.761-0.431
		c-0.512-0.164-1.099-0.378-1.705-0.658c-0.599-0.293-1.215-0.656-1.846-0.989c-2.527-1.314-5.017-2.712-5.017-2.712L2.048,25.023z"
		/>
</g>
<g>
	<path fill="#662D91" d="M1.172,34.534c0,0,2.176-0.249,4.355-0.429c0.544-0.055,1.088-0.12,1.599-0.152
		c0.512-0.011,0.99-0.002,1.402,0.037c0.412,0.044,0.754,0.079,0.995,0.13c0.241,0.042,0.379,0.08,0.379,0.08l0.003,0.075
		c0,0-0.135,0.048-0.372,0.108c-0.236,0.07-0.576,0.13-0.982,0.206c-0.407,0.071-0.884,0.116-1.395,0.144
		c-0.512,0.007-1.059-0.017-1.606-0.029c-2.186-0.014-4.375-0.095-4.375-0.095L1.172,34.534z"/>
</g>
<g>
	<path fill="#662D91" d="M3.102,42.215c0,0,1.057-0.877,2.15-1.698c0.269-0.213,0.531-0.435,0.793-0.619
		c0.273-0.166,0.539-0.305,0.783-0.397c0.248-0.088,0.452-0.164,0.61-0.193c0.153-0.038,0.248-0.047,0.248-0.047l0.041,0.063
		c0,0-0.048,0.083-0.146,0.206c-0.093,0.132-0.246,0.287-0.428,0.476c-0.185,0.185-0.421,0.369-0.686,0.549
		c-0.275,0.163-0.586,0.31-0.891,0.466c-1.199,0.657-2.435,1.256-2.435,1.256L3.102,42.215z"/>
</g>
<g>
	<path fill="#662D91" d="M4.088,50.037c0,0,0.378-0.718,0.755-1.436c0.183-0.362,0.383-0.715,0.572-0.956
		c0.184-0.244,0.334-0.39,0.334-0.39l0.021,0.013c0,0-0.057,0.202-0.185,0.479c-0.123,0.281-0.338,0.624-0.57,0.957
		c-0.453,0.673-0.906,1.346-0.906,1.346L4.088,50.037z"/>
</g>
<g>
	<path fill="#A82DE2" d="M118.309,34.572c-2.809-3.432-2.284-6.191-0.85-9.503c-2.487-2.11-4.469-3.646-4.606-6.578
		c-2.982-1.299-4.483-2.442-6.302-5.36c-3.806,1.166-8.123-1.341-8.123-1.341s-1.606,4.594-3.76,5.604
		c9.084,3.741,18.896,20.729,19.157,31.188l1.573,1.462c0,0-3.051-7.817,0.972-7.796C115.682,39.435,114.352,36.324,118.309,34.572z
		"/>
	<g>
		<path fill="#662D91" d="M97.567,7.518c0,0,1.03,3.492,1.973,7.005c0.239,0.877,0.512,1.747,0.717,2.574
			c0.188,0.831,0.317,1.617,0.404,2.296c0.182,1.357,0.169,2.292,0.169,2.292l-0.098,0.022c0,0-0.42-0.835-0.851-2.135
			c-0.219-0.649-0.447-1.412-0.641-2.242c-0.177-0.833-0.313-1.735-0.481-2.628c-0.689-3.57-1.29-7.162-1.29-7.162L97.567,7.518z"/>
	</g>
	<g>
		<path fill="#662D91" d="M107.229,11.544c0,0-0.952,3.089-1.99,6.145c-0.255,0.766-0.479,1.543-0.737,2.254
			c-0.273,0.705-0.575,1.345-0.854,1.885c-0.554,1.083-1.051,1.755-1.051,1.755l-0.094-0.036c0,0,0.082-0.832,0.397-2.007
			c0.154-0.588,0.359-1.265,0.629-1.971c0.285-0.701,0.64-1.428,0.964-2.167c1.278-2.963,2.643-5.894,2.643-5.894L107.229,11.544z"
			/>
	</g>
	<g>
		<path fill="#662D91" d="M113.669,17.798c0,0-2.203,2.137-4.464,4.205c-0.563,0.52-1.104,1.066-1.645,1.538
			c-0.551,0.46-1.097,0.851-1.579,1.168c-0.962,0.64-1.69,0.962-1.69,0.962l-0.064-0.076c0,0,0.443-0.663,1.24-1.499
			c0.396-0.421,0.876-0.891,1.425-1.354c0.559-0.45,1.189-0.889,1.799-1.353c2.428-1.869,4.914-3.668,4.914-3.668L113.669,17.798z"
			/>
	</g>
	<g>
		<path fill="#662D91" d="M117.48,25.114c0,0-2.477,1.397-4.99,2.712c-0.627,0.332-1.24,0.695-1.836,0.989
			c-0.604,0.279-1.187,0.494-1.697,0.657c-1.018,0.333-1.753,0.431-1.753,0.431l-0.043-0.091c0,0,0.549-0.5,1.458-1.065
			c0.453-0.286,0.994-0.594,1.595-0.876c0.608-0.268,1.28-0.503,1.938-0.77c2.624-1.08,5.286-2.077,5.286-2.077L117.48,25.114z"/>
	</g>
	<g>
		<path fill="#662D91" d="M118.308,34.609c0,0-2.179,0.082-4.354,0.095c-0.545,0.013-1.089,0.036-1.599,0.029
			c-0.509-0.028-0.982-0.073-1.388-0.144c-0.405-0.076-0.742-0.136-0.978-0.206c-0.235-0.06-0.369-0.108-0.369-0.108l0.002-0.075
			c0,0,0.138-0.038,0.377-0.08c0.24-0.051,0.581-0.085,0.991-0.13c0.409-0.04,0.885-0.048,1.395-0.037
			c0.509,0.032,1.05,0.097,1.591,0.152c2.168,0.181,4.333,0.429,4.333,0.429L118.308,34.609z"/>
	</g>
	<g>
		<path fill="#662D91" d="M116.35,42.278c0,0-1.23-0.6-2.424-1.256c-0.304-0.156-0.612-0.304-0.887-0.466
			c-0.263-0.181-0.498-0.365-0.682-0.549c-0.181-0.189-0.334-0.344-0.426-0.476c-0.097-0.124-0.145-0.207-0.145-0.207l0.041-0.063
			c0,0,0.095,0.01,0.247,0.047c0.158,0.03,0.361,0.106,0.608,0.194c0.244,0.092,0.508,0.231,0.78,0.397
			c0.26,0.184,0.521,0.405,0.788,0.618c1.088,0.82,2.139,1.698,2.139,1.698L116.35,42.278z"/>
	</g>
	<g>
		<path fill="#662D91" d="M115.388,50.049c0,0-0.451-0.673-0.902-1.346c-0.23-0.333-0.445-0.676-0.567-0.957
			c-0.127-0.277-0.184-0.479-0.184-0.479l0.021-0.013c0,0,0.15,0.146,0.333,0.39c0.188,0.241,0.387,0.593,0.569,0.956
			c0.375,0.718,0.751,1.436,0.751,1.436L115.388,50.049z"/>
	</g>
</g>
<g>
	<path fill="#FFFFFF" d="M41.656,53.096c0,0-0.353,0.854-0.763,1.67c-0.095,0.209-0.18,0.424-0.285,0.609
		c-0.123,0.175-0.252,0.327-0.391,0.44c-0.143,0.111-0.259,0.205-0.364,0.256c-0.097,0.056-0.164,0.08-0.164,0.08l-0.063-0.041
		c0,0-0.005-0.071,0.005-0.183c0.003-0.116,0.04-0.261,0.082-0.437c0.046-0.173,0.131-0.354,0.239-0.538
		c0.125-0.173,0.286-0.34,0.437-0.513c0.574-0.711,1.204-1.386,1.204-1.386L41.656,53.096z"/>
</g>
<g>
	<path fill="#FFFFFF" d="M76.798,52.84c0,0,0.645,0.731,1.23,1.498c0.154,0.187,0.318,0.368,0.447,0.553
		c0.11,0.196,0.198,0.39,0.245,0.571c0.043,0.186,0.082,0.338,0.085,0.459c0.012,0.116,0.007,0.19,0.007,0.19l-0.064,0.039
		c0,0-0.068-0.028-0.167-0.091c-0.106-0.058-0.226-0.161-0.371-0.282c-0.142-0.125-0.274-0.29-0.399-0.477
		c-0.107-0.198-0.196-0.426-0.293-0.648c-0.421-0.869-0.784-1.773-0.784-1.773L76.798,52.84z"/>
</g>
<g>
	<path fill="#FFFFFF" d="M64.171,32.989c0,0-0.026,0.796-0.053,1.591c-0.007,0.398-0.032,0.795-0.097,1.088
		c-0.059,0.294-0.13,0.487-0.13,0.487l-0.025-0.002c0,0-0.036-0.203-0.043-0.502c-0.012-0.3,0.032-0.695,0.096-1.089
		c0.113-0.788,0.227-1.576,0.227-1.576L64.171,32.989z"/>
</g>
<g>
	<path fill="#FFFFFF" d="M58.628,34.036c0,0,0.117,0.612,0.212,1.225c0.06,0.306,0.1,0.613,0.085,0.849
		c-0.009,0.234-0.048,0.394-0.048,0.394l-0.024,0.003c0,0-0.07-0.149-0.125-0.377c-0.062-0.228-0.083-0.537-0.086-0.848
		c-0.03-0.621-0.037-1.243-0.037-1.243L58.628,34.036z"/>
</g>
<g>
	<path fill="#FFFFFF" d="M59.688,28.893c0,0-0.156-0.612-0.266-1.228c-0.034-0.154-0.075-0.307-0.094-0.451
		c-0.01-0.146,0.015-0.284,0.032-0.402c0.05-0.238,0.145-0.4,0.145-0.4l0.05-0.004c0,0,0.117,0.147,0.202,0.375
		c0.035,0.115,0.08,0.248,0.091,0.393c0.002,0.146-0.016,0.303-0.027,0.46c-0.019,0.625-0.083,1.254-0.083,1.254L59.688,28.893z"/>
</g>
<g>
	<path fill="#FFFFFF" d="M60.57,30c0,0-0.11-0.979-0.175-1.735c-0.022-0.189-0.052-0.489-0.06-0.667
		c0-0.177,0.036-0.163,0.062-0.306C60.464,27.01,60.57,27,60.57,27h0.05c0,0,0.106-0.046,0.173,0.238
		c0.026,0.142,0.062,0.19,0.062,0.368c-0.008,0.177-0.038,0.529-0.06,0.718C60.73,29.08,60.62,30,60.62,30H60.57z"/>
</g>
<g>
	<path fill="#FFFFFF" d="M61.396,30c0,0-0.109-0.87-0.175-1.735c-0.022-0.216-0.052-0.435-0.061-0.638
		c0.001-0.203,0.036-0.158,0.063-0.32C61.291,26.983,61.396,27,61.396,27h0.051c0,0,0.105-0.019,0.173,0.306
		c0.026,0.162,0.062,0.233,0.063,0.437c-0.009,0.202-0.038,0.365-0.061,0.582C61.557,29.188,61.447,30,61.447,30H61.396z"/>
</g>
<g>
	<path fill="#FFFFFF" d="M62.135,29.987c0,0-0.064-0.87-0.084-1.738c-0.011-0.217-0.029-0.435-0.027-0.638
		c0.011-0.203,0.057-0.39,0.091-0.551c0.085-0.32,0.201-0.531,0.201-0.531l0.051,0.003c0,0,0.094,0.222,0.145,0.549
		c0.018,0.164,0.043,0.354,0.033,0.557c-0.02,0.202-0.06,0.417-0.094,0.631c-0.109,0.861-0.265,1.72-0.265,1.72L62.135,29.987z"/>
</g>
<g>
	<path fill="#FFFFFF" d="M63.025,28.889c0,0-0.076-0.626-0.107-1.25c-0.014-0.156-0.035-0.313-0.035-0.459
		c0.008-0.145,0.051-0.279,0.084-0.394c0.08-0.229,0.193-0.378,0.193-0.378l0.051,0.003c0,0,0.097,0.161,0.151,0.397
		c0.021,0.118,0.048,0.255,0.041,0.401c-0.017,0.145-0.055,0.299-0.085,0.453c-0.099,0.617-0.242,1.231-0.242,1.231L63.025,28.889z"
		/>
</g>
<path fill="#FF7BAC" d="M63.186,27.307c-0.18,0.126-3.221,0.126-3.473,0.018s-0.612-1.083-0.612-1.083c1.242,0.259,3.69,0.328,4.8,0
	C63.9,26.242,63.363,27.182,63.186,27.307z"/>
<g>
	<path fill="#FFFFFF" d="M37.934,53.402c0,0,0.404-0.689,0.843-1.351c0.105-0.169,0.204-0.343,0.313-0.493
		c0.115-0.146,0.25-0.26,0.362-0.359c0.237-0.191,0.443-0.281,0.443-0.281l0.039,0.031c0,0-0.04,0.221-0.17,0.495
		c-0.071,0.133-0.151,0.291-0.266,0.437c-0.121,0.141-0.267,0.277-0.407,0.419c-0.541,0.581-1.118,1.134-1.118,1.134L37.934,53.402z
		"/>
</g>
<g>
	<path fill="#FFFFFF" d="M37.358,52.735c0,0,0.365-0.61,0.765-1.192c0.095-0.149,0.185-0.303,0.284-0.435
		c0.106-0.126,0.231-0.222,0.336-0.306c0.221-0.159,0.415-0.227,0.415-0.227l0.038,0.032c0,0-0.031,0.203-0.148,0.449
		c-0.064,0.118-0.135,0.259-0.241,0.385c-0.112,0.121-0.247,0.237-0.376,0.358c-0.5,0.498-1.035,0.967-1.035,0.967L37.358,52.735z"
		/>
</g>
<g>
	<path fill="#FFFFFF" d="M36.842,51.968c0,0,0.291-0.554,0.618-1.079c0.077-0.135,0.148-0.275,0.23-0.394
		c0.088-0.114,0.199-0.198,0.291-0.273c0.195-0.141,0.374-0.197,0.374-0.197l0.039,0.03c0,0-0.011,0.187-0.099,0.41
		c-0.05,0.107-0.105,0.235-0.193,0.35c-0.095,0.108-0.213,0.211-0.325,0.32c-0.429,0.446-0.894,0.864-0.894,0.864L36.842,51.968z"/>
</g>
<g>
	<path fill="#FFFFFF" d="M36.242,51.15c0,0,0.283-0.492,0.601-0.954c0.075-0.12,0.144-0.244,0.223-0.348
		c0.086-0.098,0.193-0.167,0.281-0.228c0.188-0.113,0.36-0.148,0.359-0.148l0.038,0.033c0,0-0.012,0.174-0.098,0.376
		c-0.049,0.096-0.103,0.211-0.188,0.31c-0.092,0.093-0.206,0.179-0.314,0.269c-0.415,0.377-0.864,0.725-0.864,0.725L36.242,51.15z"
		/>
</g>
<g>
	<path fill="#FFFFFF" d="M35.704,50.215c0,0,0.243-0.422,0.52-0.813c0.064-0.102,0.124-0.208,0.194-0.295
		c0.076-0.082,0.172-0.133,0.252-0.18c0.171-0.083,0.33-0.098,0.33-0.098l0.036,0.034c0,0-0.003,0.159-0.076,0.335
		c-0.042,0.083-0.086,0.183-0.162,0.265c-0.082,0.075-0.185,0.142-0.282,0.213c-0.371,0.302-0.776,0.574-0.776,0.574L35.704,50.215z
		"/>
</g>
<g>
	<path fill="#FFFFFF" d="M35.055,49.603c0,0,0.238-0.425,0.51-0.819c0.063-0.103,0.121-0.21,0.19-0.298
		c0.075-0.082,0.171-0.135,0.25-0.183c0.169-0.086,0.328-0.102,0.328-0.102l0.037,0.033c0,0-0.002,0.159-0.071,0.336
		c-0.041,0.083-0.084,0.184-0.159,0.266c-0.081,0.077-0.183,0.144-0.279,0.217c-0.367,0.307-0.768,0.583-0.768,0.583L35.055,49.603z
		"/>
</g>
<g>
	<path fill="#FFFFFF" d="M80.729,53.007c0,0-0.591-0.477-1.147-0.983c-0.145-0.123-0.294-0.241-0.419-0.364
		c-0.119-0.13-0.205-0.274-0.281-0.396c-0.142-0.253-0.191-0.462-0.191-0.462l0.037-0.034c0,0,0.205,0.066,0.446,0.227
		c0.114,0.086,0.252,0.183,0.371,0.312c0.114,0.135,0.22,0.293,0.33,0.445c0.463,0.596,0.892,1.223,0.892,1.223L80.729,53.007z"/>
</g>
<g>
	<path fill="#FFFFFF" d="M81.084,52.354c0,0-0.506-0.414-0.978-0.857c-0.123-0.106-0.251-0.208-0.356-0.316
		c-0.099-0.114-0.165-0.244-0.225-0.352c-0.107-0.227-0.133-0.417-0.133-0.417l0.037-0.033c0,0,0.186,0.052,0.396,0.19
		c0.099,0.074,0.218,0.157,0.317,0.271c0.093,0.12,0.177,0.26,0.265,0.397c0.374,0.528,0.714,1.086,0.714,1.086L81.084,52.354z"/>
</g>
<g>
	<path fill="#FFFFFF" d="M81.644,51.652c0,0-0.499-0.324-0.967-0.683c-0.121-0.085-0.248-0.165-0.353-0.254
		c-0.099-0.095-0.167-0.209-0.229-0.304c-0.111-0.201-0.145-0.378-0.145-0.378l0.035-0.036c0,0,0.179,0.025,0.384,0.127
		c0.098,0.057,0.215,0.12,0.314,0.215c0.093,0.101,0.179,0.224,0.269,0.341c0.378,0.451,0.726,0.937,0.726,0.937L81.644,51.652z"/>
</g>
<g>
	<path fill="#FFFFFF" d="M82.021,50.754c0,0-0.411-0.255-0.79-0.542c-0.099-0.067-0.203-0.13-0.287-0.202
		c-0.078-0.078-0.126-0.176-0.17-0.257c-0.076-0.173-0.085-0.331-0.085-0.331l0.035-0.035c0,0,0.158,0.008,0.331,0.085
		c0.081,0.044,0.179,0.092,0.257,0.169c0.072,0.084,0.135,0.188,0.202,0.287c0.287,0.379,0.542,0.79,0.542,0.79L82.021,50.754z"/>
</g>
<g>
	<path fill="#FFFFFF" d="M82.436,50.081c0,0-0.362-0.217-0.69-0.466c-0.087-0.058-0.179-0.111-0.251-0.174
		c-0.065-0.069-0.103-0.158-0.136-0.231c-0.057-0.157-0.051-0.304-0.051-0.304l0.035-0.034c0,0,0.147,0,0.302,0.063
		c0.072,0.037,0.159,0.077,0.226,0.146c0.06,0.075,0.109,0.168,0.163,0.257c0.235,0.339,0.438,0.709,0.438,0.709L82.436,50.081z"/>
</g>
<g>
	<path fill="#FFFFFF" d="M83.01,49.578c0,0-0.378-0.222-0.723-0.477c-0.091-0.059-0.188-0.113-0.263-0.178
		c-0.07-0.07-0.111-0.161-0.148-0.236c-0.064-0.16-0.064-0.31-0.064-0.31l0.035-0.035c0,0,0.149,0,0.311,0.065
		c0.074,0.038,0.165,0.078,0.235,0.148c0.064,0.076,0.118,0.172,0.177,0.263c0.254,0.346,0.476,0.724,0.476,0.724L83.01,49.578z"/>
</g>
<path fill="#A82DE2" d="M52.584,22.754c0,0,1.694-4.994-4.019-5.604c0.386-3.969-0.19-6.668-1.951-10.599
	c3.483,1.483,13.159,5.604,13.159,5.604c-3.659,0.967-4.235,5.717-2.923,8.285L52.584,22.754z"/>
<path fill="#A82DE2" d="M70.497,22.754c0,0-1.72-4.994,4.082-5.604c-0.394-3.969,0.096-6.668,1.885-10.599
	c-3.536,1.483-13.265,5.604-13.265,5.604c3.716,0.967,4.3,5.717,2.969,8.285L70.497,22.754z"/>
<g>
	<path fill="#662D91" d="M46.643,6.509c0,0,2.777,1.676,5.502,3.426c0.684,0.435,1.387,0.841,2.017,1.265
		c0.62,0.437,1.17,0.885,1.629,1.289c0.921,0.801,1.456,1.447,1.456,1.447l-0.058,0.082c0,0-0.79-0.282-1.857-0.874
		c-0.536-0.293-1.146-0.657-1.768-1.09c-0.613-0.447-1.236-0.969-1.877-1.462c-2.577-1.963-5.102-4-5.102-4L46.643,6.509z"/>
</g>
<g>
	<path fill="#662D91" d="M48.561,17.112c0,0,1.924-0.421,3.857-0.775c0.482-0.098,0.963-0.206,1.417-0.279
		c0.457-0.052,0.886-0.082,1.258-0.075c0.373,0.012,0.683,0.018,0.904,0.05c0.219,0.022,0.347,0.049,0.347,0.049l0.01,0.074
		c0,0-0.116,0.059-0.322,0.138c-0.205,0.088-0.502,0.175-0.859,0.283c-0.357,0.103-0.78,0.186-1.235,0.255
		c-0.458,0.048-0.95,0.068-1.44,0.099c-1.959,0.161-3.926,0.254-3.926,0.254L48.561,17.112z"/>
</g>
<g>
	<path fill="#662D91" d="M52.567,22.735c0,0,0.867-0.943,1.764-1.854c0.22-0.232,0.435-0.469,0.65-0.677
		c0.221-0.202,0.45-0.365,0.645-0.507c0.398-0.273,0.705-0.411,0.705-0.411l0.034,0.037c0,0-0.164,0.293-0.471,0.667
		c-0.159,0.181-0.341,0.396-0.561,0.598c-0.226,0.196-0.481,0.39-0.732,0.589c-0.985,0.814-2,1.595-2,1.595L52.567,22.735z"/>
</g>
<g>
	<path fill="#662D91" d="M76.491,6.592c0,0-2.623,1.945-5.294,3.814c-0.666,0.471-1.313,0.97-1.948,1.394
		c-0.644,0.411-1.271,0.753-1.821,1.026c-1.098,0.552-1.902,0.806-1.902,0.806l-0.055-0.084c0,0,0.565-0.627,1.524-1.395
		c0.478-0.387,1.05-0.815,1.691-1.229c0.65-0.4,1.373-0.781,2.078-1.19c2.812-1.651,5.672-3.225,5.672-3.225L76.491,6.592z"/>
</g>
<g>
	<path fill="#662D91" d="M74.576,17.187c0,0-1.976-0.008-3.944-0.083c-0.493-0.01-0.987-0.008-1.448-0.037
		c-0.459-0.049-0.886-0.113-1.248-0.2c-0.362-0.093-0.665-0.167-0.874-0.246c-0.21-0.07-0.328-0.124-0.328-0.124l0.006-0.075
		c0,0,0.127-0.032,0.346-0.064c0.22-0.042,0.53-0.062,0.903-0.089c0.372-0.022,0.804-0.011,1.264,0.021
		c0.459,0.053,0.944,0.14,1.432,0.216c1.952,0.269,3.898,0.606,3.898,0.606L74.576,17.187z"/>
</g>
<g>
	<path fill="#662D91" d="M70.479,22.772c0,0-1.017-0.825-2.001-1.682c-0.251-0.21-0.507-0.415-0.732-0.621
		c-0.221-0.212-0.401-0.436-0.56-0.624c-0.306-0.388-0.468-0.69-0.468-0.69l0.035-0.036c0,0,0.309,0.15,0.708,0.44
		c0.194,0.151,0.424,0.323,0.645,0.535c0.215,0.218,0.43,0.465,0.648,0.708c0.896,0.951,1.76,1.935,1.76,1.935L70.479,22.772z"/>
</g>
<path fill="#FF341F" d="M65.012,18.49c0.121-0.366,0.121-0.73,0.242-0.73c0.122,0,0.244,0.243,0.244,0.609
	c0,0.608-0.244,1.217-0.486,1.461C64.525,20.075,64.645,19.83,65.012,18.49z"/>
<path fill="#FF341F" d="M57.581,17.76c0.122,0,0.122,0.243,0.243,0.73c0.366,1.339,0.366,1.584,0,1.339
	c-0.243-0.122-0.487-0.853-0.487-1.461C57.337,18.124,57.459,17.88,57.581,17.76z"/>
<ellipse transform="matrix(0.8611 -0.5084 0.5084 0.8611 -13.3214 21.8523)" fill="#FF341F" cx="33.334" cy="35.307" rx="0.671" ry="1.728"/>
<path fill="#FF341F" d="M84.144,35.629c-0.458,0.837-1.096,1.369-1.42,1.19c-0.325-0.18-0.216-1.003,0.246-1.837
	c0.457-0.837,1.094-1.369,1.417-1.192C84.712,33.971,84.603,34.792,84.144,35.629z"/>
<ellipse transform="matrix(0.8714 -0.4906 0.4906 0.8714 -13.0233 20.8408)" opacity="0.6" fill="#FFFFFF" cx="33.238" cy="35.26" rx="0.431" ry="0.576"/>
<ellipse transform="matrix(0.9022 0.4313 -0.4313 0.9022 23.3691 -32.548)" opacity="0.6" fill="#FFFFFF" cx="83.46" cy="35.26" rx="0.431" ry="0.575"/>
<ellipse transform="matrix(0.9613 -0.2757 0.2757 0.9613 -2.9871 16.6264)" opacity="0.6" fill="#FFFFFF" cx="57.652" cy="18.939" rx="0.171" ry="0.378"/>
<ellipse transform="matrix(0.9683 0.2498 -0.2498 0.9683 6.8457 -15.6583)" opacity="0.6" fill="#FFFFFF" cx="65.103" cy="19.137" rx="0.189" ry="0.379"/>
</svg>
