<?xml version="1.0" encoding="utf-8"?>
<!-- Generator: Adobe Illustrator 16.0.3, SVG Export Plug-In . SVG Version: 6.00 Build 0)  -->
<!DOCTYPE svg PUBLIC "-//W3C//DTD SVG 1.1//EN" "http://www.w3.org/Graphics/SVG/1.1/DTD/svg11.dtd">
<svg version="1.1" id="all_in_one" xmlns="http://www.w3.org/2000/svg" xmlns:xlink="http://www.w3.org/1999/xlink" x="0px" y="0px"
	 width="140px" height="140px" viewBox="0 0 140 140" enable-background="new 0 0 140 140" xml:space="preserve">
<path fill="#FFFCD7" d="M58,73.625l4.282,5.93l0.125,6.819l-2.598,5.337l-6.624,3.827l-1.31,1.587l1.795,9.782l-6.573,10.611
	l-7.174-1.432l6.823-9.18l-4.249-16.219l0.752-3.313l-2.25-6l-11.16-8.131l-4.09-6.932l-1.5-4.438l-4-2.375l-2-5.75L15.625,49
	l-1.375-0.125l-1.625,3.5l0.889,3l-2.608,2.063L9.5,54.917l-0.583-2.583l2.75-5.833l1.828-1.511l2.922,0.119l-2.167-1.69L12.5,43
	L2.201,47.228l3.002-6.034L12.255,39h2.87l3.125,1.75l3.554,6.063l2.946-3.375L32,39.813l3.125-5.375l-2.549,2.188l-1.811-0.282
	l-5.084,1.961l-0.986,1.362l-3.102,0.779l-2.053-0.394l-0.155-1.55l-0.462-1.143l0.506-1.311l4.696-6.314l0.335-2.124l3.471-4.548
	l-0.755-3.831L31,22.152l7.063,0.035l10.688,7.123l0.987,13.138l-3.375,9.966l0.012,5.208c0,0,11.719-19.749,15.479-21.702
	c1.392-0.723,2.209-1.766,8.146,0.406c21.174,7.745,51.5,23.75,68.839,25.458c-5.172,4.797-53.134,2.964-70.089-0.442
	C61.169,59.821,58,73.625,58,73.625z"/>
<path fill="#07EAD4" d="M58.514,73.732c29.474,8.105,53.431,3.281,68.501-9.624C114.459,63.97,82.49,43.362,66.62,42.449
	c-4.224,2.17-8.62,13.586-19.523,19.637c-0.03,1.242,4.285,6.682,4.285,6.682S57.26,73.387,58.514,73.732z"/>
<path fill="#40CAF4" d="M27.862,28.783c0.181,0.257-0.001,0.702-0.41,0.998c-0.409,0.294-0.892,0.327-1.075,0.071
	c-0.183-0.255-0.002-0.701,0.406-0.995C27.193,28.559,27.675,28.527,27.862,28.783z"/>
<polygon fill="#40CAF4" points="87.988,106.907 83.629,106.499 78.38,103.644 78.373,105.331 73.338,102.891 67.676,95.081 
	69.984,102.599 63.848,96.29 63.051,93.23 64.765,86.433 61.854,82.838 62.282,79.555 73.499,81.638 79.139,86.193 83.175,96.794 
	86.227,101.108 81.803,99.106 "/>
<polygon fill="#333333" points="44.471,122.14 36.341,121.199 36.77,118.818 39.922,116.087 47.098,117.519 "/>
<polygon fill="#333333" points="8.246,48.312 3.284,51.018 2.085,47.318 7.737,44.989 8.32,45.992 "/>
<path fill="#333333" d="M16.122,56.379c0,0-1.406,4.965-2.177,4.965c-0.535,0-3.04-4.281-3.04-4.281l2.608-1.688L16.122,56.379z"/>
<path fill="#40CAF4" d="M53.651,44.047l-1.43-3.982l-0.205,4.641l-0.852,1.559l-1.427-3.816c0,0-1.841-9.701-4.667-13.839
	c-2.621-3.838-12.342-6.31-12.342-6.31l2.573-1.851l4.888-1.218l-2.398,2.21l5.646-1.2l5.596,1.533l-3.535,0.866
	c0,0,5.863,1.035,6.89,2.061c1.027,1.026,3.359,4.383,3.359,4.383l-4.77-2.548l3.982,4.624l0.861,6.065l-4.201-6.065l2.278,7.249
	L53.651,44.047z"/>
<g>
	<path d="M19.422,39.911c0,0,0.563-0.45,1.138-0.881c0.281-0.226,0.572-0.436,0.817-0.555c0.241-0.125,0.42-0.181,0.42-0.181
		l0.014,0.021c0,0-0.118,0.146-0.322,0.324c-0.201,0.184-0.503,0.378-0.816,0.557c-0.612,0.377-1.237,0.736-1.237,0.736
		L19.422,39.911z"/>
</g>
<g>
	<path fill="#40CAF4" d="M116.804,70.838c-2.299-0.532-4.776-0.682-6.86-1.664c-6.811-3.206-13.519-6.641-20.19-10.13
		c-7.208-3.771-14.412-7.512-22.386-9.454c-1.008-0.247-2.027-0.468-3.023-0.693c0-0.142-0.022-0.205,0.003-0.243
		c2.705-4.517,1.083-3.853,6.187-2.693c10.491,2.386,19.619,7.706,28.557,13.468c5.694,3.675,11.604,7.007,17.42,10.494
		c0.142,0.085,0.265,0.211,0.401,0.318C116.876,70.441,116.836,70.641,116.804,70.838z"/>
	<path fill="#40CAF4" d="M60.265,53.954c0.752-1.084,1.324-2.123,2.119-2.946c0.303-0.311,1.166-0.29,1.696-0.138
		c7.48,2.159,14.458,5.375,20.631,10.186c6.229,4.851,12.447,9.718,18.632,14.55c-2.285-0.064-4.724-0.616-6.846-1.853
		c-4.896-2.854-9.774-5.77-14.462-8.957c-6.572-4.471-13.441-8.238-21.104-10.472C60.77,54.278,60.628,54.16,60.265,53.954z"/>
	<path fill="#40CAF4" d="M56.034,58.472c1.729-2.366,2.737-2.813,5.32-1.132c4.397,2.863,8.601,6.013,12.87,9.07
		c3.608,2.587,7.189,5.216,10.786,7.828c0.174,0.126,0.321,0.286,0.695,0.621c-4.784-0.634-8.688-2.522-12.408-5.069
		C67.619,65.899,61.787,62.227,56.034,58.472z"/>
	<path fill="#40CAF4" d="M71.4,75.712c-3.5-0.909-6.937-1.852-9.871-4.427c-3.062-2.695-6.574-4.87-9.89-7.274
		c-0.505-0.368-0.998-0.755-1.603-1.215c1.038-0.725,1.875-1.5,2.866-1.918c0.473-0.199,1.311,0.143,1.846,0.465
		c3.578,2.157,6.762,4.743,9.56,7.903C66.42,71.635,69.029,73.578,71.4,75.712z"/>
</g>
<g>
	<path d="M137.896,61.688c-4.504-0.243-8.966-1.182-13.209-2.713c-2.117-0.783-4.174-1.705-6.257-2.562l-6.234-2.613l-24.91-10.51
		c-2.078-0.876-4.139-1.775-6.245-2.579c-2.099-0.818-4.187-1.668-6.295-2.461l-6.347-2.31c-1.062-0.402-2.103-0.784-3.209-0.761
		c-1.095-0.008-2.187,0.284-3.133,0.836c-0.968,0.538-1.681,1.388-2.443,2.228c-0.781,0.817-1.452,1.71-2.173,2.567
		c-1.365,1.787-2.626,3.631-3.796,5.563c-2.339,3.835-4.503,7.812-7.189,11.464l-0.446,0.607l0.013-0.756l0.091-5.276l0-0.042
		l0.015-0.041l3.59-9.764l0.2-0.545l0.291,0.503l0.733,1.265l0.023,0.039l0.009,0.045l0.466,2.336l-0.493-0.122l0.702-0.876
		l-0.056,0.117l0.405-1.884l-0.005,0.093l-0.272-2.339l0.011,0.054l-1.001-3.184l-0.647-2.055l1.181,1.804l1.495,2.283l0.017,0.027
		l0.012,0.03l0.584,1.512l0.004,0.011l0.004,0.013l0.56,1.917l-0.594-0.008l0.571-1.803l-0.015,0.106l-0.071-2.053l0.005,0.044
		l-0.691-3.895l0.022,0.073l-1.973-4.53l-0.392-0.898l0.862,0.468l0.73,0.397l0.062,0.034l0.043,0.055l1.413,1.811l0.016,0.02
		l0.012,0.021l2.021,3.577l-0.212-0.158l0.147,0.034l-0.217,0.025l0.238-0.116l-0.155,0.162l0.062-0.14l-0.023,0.186l-0.778-4.684
		l0.04,0.109l-2.063-3.513l0.086,0.095l-3.176-2.315l-0.049-0.036l-0.031-0.051l-0.016-0.026l-0.315-0.508l0.596,0.035l0.861,0.051
		l0.059,0.003l0.052,0.024l2.375,1.093l0.034,0.016l0.028,0.022l2.558,2.026l-0.389,0.014l0.175-0.159l-0.05,0.383l-1.934-3.024
		l0.04,0.049l-1.718-1.721l0.079,0.056l-2.818-1.366l0.071,0.023l-2.684-0.516l-0.671-0.129c-0.115-0.025-0.188-0.03-0.319-0.047
		l-0.339-0.042l-1.357-0.166l-1.183-0.145l1.123-0.397l1.019-0.36l0.048-0.017l0.05,0.001l2.21,0.045l0.02,0l0.02,0.003l2.45,0.409
		l-0.3,0.175l0.081-0.221l0.117,0.327l-2.088-1.24l0.064,0.027l-3.191-0.905l0.078,0.01l-3.008,0.169l0.053-0.009l-2.976,0.808
		l0.018-0.005l-0.897,0.314l-0.024,0.009l-0.025,0.003l-0.14,0.019l-0.687,0.095l0.462-0.516l0.264-0.294l0.019-0.021l0.022-0.016
		l1.292-0.93l0.026-0.019l0.03-0.012l2.079-0.802l-0.154,0.276l-0.042-0.229l0.244,0.203l-2.135-0.003l0.063-0.008l-3.225,0.854
		l0.068-0.03l-3.131,2.016l-0.045,0.029l-0.053,0.007l-1.485,0.186l-0.099,0.012l-0.077-0.063l-3.846-3.124l0.138,0.05l-0.147-0.003
		l0.144-0.048l-0.204,0.159l0.074-0.103l-0.043,0.123l0.005-0.131l0.876,3.37l0.026,0.1l-0.06,0.083l-3.426,4.777l0.037-0.091
		l-0.311,2.036l-0.008,0.052l-0.031,0.041l-4.896,6.613l0.029-0.057l-0.345,1.089l0.008-0.034l-0.006,0.043l0.001-0.037l0.007,0.094
		l-0.017-0.066l0.459,1.005l0.017,0.038l0,0.041l0.013,1.343l-0.013-0.066l0.029,0.077l-0.033-0.055l0.111,0.131l-0.051-0.042
		l0.071,0.04l-0.06-0.021l1.982,0.357l-0.078,0.002l3.103-0.774l-0.056,0.025l0.122-0.081l-0.054,0.056l0.761-1.24l0.032-0.052
		l0.057-0.021l5.204-1.972l0.042-0.016l0.043,0.007l1.798,0.263l-0.062,0.002l0.159-0.036l-0.073,0.037l2.358-2.066l0.711-0.624
		l-0.462,0.825l-2.918,5.209l-0.023,0.042l-0.042,0.021l-7.309,3.685l0.041-0.031l-2.911,3.218l-0.12,0.132l-0.094-0.151
		l-3.681-5.92l0.015,0.019l-0.068-0.073l0.031,0.024l-3.034-1.64l0.055,0.014l-2.546-0.036l0.036-0.005l-7.269,2.265l0.037-0.019
		L5.31,41.447l0.035-0.044l-1.908,4.086l-0.003,0.007l-0.004,0.006l-1.12,1.794l0.01-0.021l-0.023,0.061l0.008-0.036l-0.012,0.146
		L2.29,47.41l0.013,0.063L2.3,47.46l0.981,3.292l-0.042-0.063l0.072,0.06l-0.046-0.025l0.186,0.055l-0.052-0.005l0.094-0.011
		l-0.046,0.014l4.627-2.438l-0.046,0.04l0.108-0.148l-0.026,0.076l0.085-2.472l0.004,0.04l-0.027-0.103l0.012,0.032l-0.351-0.64
		l-0.071-0.129l0.134-0.064l4.343-2.083l0.037-0.018l0.041,0.004l1.608,0.154l0.043,0.004L14,43.06l2.384,1.865l0.692,0.542
		l-0.834-0.28l-0.479-0.16l0.042,0.008l-1.996-0.081l0.048-0.005l-0.128,0.037l0.053-0.027l-1.724,1.371l0.043-0.054l-2.839,5.855
		l0.015-0.045l-0.023,0.143l0.001-0.046l0.317,2.507l-0.026-0.07l4.319,6.63l-0.055-0.054l0.113,0.07l-0.096-0.026l0.247-0.005
		l-0.096,0.031l0.108-0.074l-0.064,0.08l1.93-4.791l-0.013,0.051l0.005-0.051l0,0.025l-0.005-0.116l0.099,0.155l-1.891-0.959
		l-0.021-0.01l-0.018-0.016l-0.055-0.048l0.042,0.028l-0.142-0.068l0.06,0.017l-0.072-0.008l0.054-0.002l-0.512,0.094L13.316,55.6
		l-0.046-0.164l-0.656-2.359l-0.012-0.042l0.009-0.044l0.503-2.618l0.006-0.033l0.018-0.029l0.928-1.56l0.072-0.121l0.137,0.03
		l1.233,0.275l0.081,0.018l0.043,0.07l2.456,3.972l0.011,0.017l0.007,0.02l2.267,6.167l-0.026-0.049l0.07,0.099l-0.054-0.053
		l2.83,1.907l-0.051-0.025l1.244,0.424l0.104,0.036l0.033,0.106l1.28,4.07l-0.018-0.043l4.137,7.357l-0.061-0.071l6.249,4.917
		l-0.017-0.012l4.484,2.971l0.038,0.025l0.028,0.037l1.933,2.61l0.037,0.05l0.012,0.062l0.697,3.771l0.009,0.048l-0.008,0.048
		l-0.549,3.252l-0.007-0.126l3.92,13.229l0.007,0.024l0.003,0.026l0.402,3.367l0.015,0.123l-0.076,0.101l-6.297,8.322l-0.021,0.026
		l-0.026,0.022l-4.064,3.534l0.069-0.082l-0.077,0.131l0.046-0.152l-0.085,1.512l-0.007-0.092l0.014,0.064l-0.041-0.103l0.078,0.129
		l-0.061-0.074l0.048,0.044l-0.081-0.055l1.249,0.608l-0.146-0.034l6.248,0.028l-0.093,0.013l0.115-0.032l-0.106,0.051l1.011-0.727
		l-0.091,0.098l8.8-14.216l-0.044,0.109l0.032-0.152l0.005,0.164l-1.784-6.374l-0.013-0.047l0-0.049l0.031-3.441l0.001-0.135
		l0.092-0.099l2.127-2.284l0.044-0.048l0.058-0.028l5.586-2.715l-0.066,0.041l0.086-0.068l-0.079,0.089l2.516-4.107l-0.042,0.099
		l0.035-0.143l-0.01,0.098l-0.145-3.561l-0.035-0.857l0.625,0.587l2.166,2.031l0.111,0.104v0.152l0,3.109v0.068l-0.025,0.063
		l-1.438,3.554l0.021-0.081l-0.012,0.086l0.003-0.071l0.134,2.461l-0.046-0.156l1.76,3.081l-0.074-0.091l5.074,4.445l-0.221-0.089
		l0.152,0.006l-0.229,0.072l0.208-0.158L70,102.361l0.035-0.144l0.021,0.231l-2.172-4.816l-0.025-0.057l-0.005-0.062l-0.124-1.496
		l-0.151-1.821l0.827,1.63l0.927,1.827l-0.047-0.07l4.486,5.261l-0.102-0.083l4.558,2.482l-0.242-0.037l0.15-0.029l-0.208,0.123
		l0.168-0.201l-0.084,0.225l0.003-0.149l0.077,0.23l-3.653-4.652l-0.019-0.023l-0.015-0.026l-1.965-3.561l-0.036-0.064l-0.008-0.074
		l-0.102-0.977l-0.178-1.711l0.856,1.491l1.14,1.986l-0.029-0.043l4.519,5.765l-0.119-0.099l6.05,3.136l-0.166-0.041l3.624,0.026
		l-0.202,0.059l0.108-0.069l-0.138,0.159l0.102-0.226l-0.027,0.21l-0.021-0.128l0.087,0.185l-5.519-6.276l-0.033-0.037l-0.021-0.044
		l-0.656-1.331l-0.738-1.495l1.304,1.041l1.362,1.088l-0.094-0.055l3.123,1.249l-0.242-0.013l0.139-0.04l-0.202,0.146l0.148-0.215
		l-0.066,0.218l-0.002-0.146l0.09,0.238l-3.293-3.836l-0.039-0.046l-0.022-0.056l-2.219-5.372l-0.554-1.353l-0.52-1.357
		l-1.039-2.714l0.089,0.132l-4.088-3.847l0.117,0.071l-4.251-1.56l0.072,0.018l-8.013-1.015l-0.137-0.018l-0.079-0.111l-4.371-6.157
		l0.068,0.068l-3.718-2.67c-0.628-0.448-1.223-0.893-1.867-1.307l-1.905-1.268l-0.043-0.029l-0.029-0.041l-2.363-3.353l-0.019-0.026
		l-0.011-0.029l-1.263-3.223l-0.083-0.212l0.202-0.106c1.909-1.005,3.728-2.186,5.381-3.59c0.875-0.659,1.622-1.43,2.434-2.144
		c0.745-0.785,1.544-1.52,2.239-2.354c1.465-1.598,2.753-3.351,4.021-5.11c0.602-0.903,1.231-1.789,1.799-2.715
		c0.597-0.883,1.072-1.93,2.008-2.636c0.455-0.348,1.012-0.583,1.588-0.639c0.584-0.071,1.143,0.067,1.67,0.144l3.225,0.532
		c2.146,0.377,4.296,0.842,6.357,1.58c2.058,0.713,4.12,1.41,6.148,2.215c2.047,0.755,4.051,1.61,6.066,2.438
		c2,0.862,4.001,1.727,5.98,2.636c1.981,0.905,3.957,1.821,5.919,2.768l5.881,2.847c1.959,0.951,3.896,1.946,5.87,2.86
		c3.944,1.81,8.15,3.141,12.488,3.512c2.163,0.183,4.352,0.149,6.505-0.132c2.151-0.29,4.248-0.993,6.12-2.097l0.015,0.073
		C138.52,61.776,138.205,61.724,137.896,61.688z M137.899,61.613c0.321,0.036,0.632,0.086,0.945,0.134l0.108,0.017l-0.094,0.056
		c-1.877,1.117-3.985,1.833-6.146,2.132c-2.164,0.292-4.354,0.333-6.53,0.158c-4.358-0.356-8.587-1.677-12.553-3.478
		c-1.981-0.909-3.923-1.896-5.885-2.84l-5.889-2.823c-1.965-0.938-3.943-1.846-5.926-2.743c-1.981-0.901-3.982-1.756-5.984-2.61
		c-2.016-0.819-4.021-1.666-6.063-2.411c-2.023-0.794-4.09-1.484-6.149-2.189c-2.045-0.724-4.171-1.175-6.312-1.542L68.2,42.956
		c-0.545-0.079-1.066-0.202-1.572-0.135c-0.509,0.052-0.992,0.258-1.399,0.572c-0.833,0.623-1.3,1.633-1.904,2.545
		c-0.566,0.933-1.194,1.827-1.795,2.738c-1.268,1.777-2.557,3.548-4.028,5.169c-0.696,0.845-1.5,1.592-2.25,2.389
		c-0.818,0.728-1.591,1.527-2.455,2.185c-1.661,1.424-3.51,2.64-5.447,3.671l0.119-0.318l1.279,3.217l-0.03-0.055l2.379,3.341
		l-0.072-0.069l1.911,1.259c0.642,0.409,1.273,0.874,1.889,1.309l3.731,2.651l0.04,0.028l0.029,0.04l4.401,6.137l-0.215-0.128
		l8.018,0.976l0.037,0.005l0.036,0.013l4.259,1.54l0.065,0.023l0.052,0.048l4.105,3.827l0.06,0.055l0.029,0.077l1.053,2.709
		l0.525,1.354l0.554,1.334l2.227,5.368l-0.062-0.1l3.291,3.837l0.088,0.104l0.002,0.135l0.002,0.146l0.001,0.119l-0.068,0.099
		l-0.149,0.215l-0.075,0.108l-0.127,0.037l-0.139,0.04l-0.123,0.035l-0.119-0.048l-3.122-1.249l-0.052-0.021l-0.043-0.035
		l-1.361-1.089l0.564-0.454l0.656,1.331l-0.054-0.081l5.516,6.279l0.07,0.081l0.017,0.104l0.021,0.128l0.018,0.109l-0.045,0.101
		l-0.102,0.226l-0.046,0.101l-0.092,0.059l-0.108,0.069l-0.093,0.06l-0.109-0.001l-3.624-0.028l-0.088-0.001l-0.079-0.04
		l-6.049-3.14l-0.07-0.036l-0.05-0.063L73.51,98.2l-0.017-0.021l-0.013-0.022l-1.139-1.986l0.678-0.219l0.102,0.977l-0.044-0.138
		l1.964,3.562l-0.032-0.048l3.651,4.653l0.08,0.102l-0.003,0.129l-0.003,0.149l-0.002,0.127l-0.082,0.098l-0.168,0.201l-0.082,0.099
		l-0.126,0.024l-0.15,0.029l-0.128,0.025l-0.114-0.063l-4.557-2.484l-0.06-0.032l-0.043-0.051l-4.483-5.263l-0.028-0.032
		l-0.019-0.038l-0.926-1.827l0.676-0.191l0.123,1.496l-0.03-0.117l2.169,4.817l0.051,0.112l-0.029,0.119l-0.035,0.144l-0.03,0.123
		l-0.101,0.076l-0.208,0.158l-0.102,0.077l-0.127-0.005l-0.152-0.006l-0.126-0.005l-0.095-0.084l-5.072-4.447l-0.044-0.039
		l-0.03-0.052l-1.758-3.081l-0.042-0.073l-0.004-0.083l-0.133-2.461l-0.002-0.036l0.005-0.035l0.013-0.086l0.006-0.042l0.016-0.039
		l1.439-3.552l-0.025,0.132l0-3.109l0.111,0.256l-2.165-2.032l0.59-0.27l0.143,3.561l0.002,0.05l-0.012,0.049l-0.035,0.143
		l-0.013,0.053l-0.028,0.046l-2.518,4.107l-0.032,0.052l-0.047,0.038l-0.086,0.068l-0.031,0.025l-0.035,0.017l-5.587,2.713
		l0.102-0.076l-2.128,2.284l0.093-0.233l-0.033,3.441l-0.013-0.096l1.781,6.374l0.022,0.081l-0.018,0.083l-0.032,0.152l-0.012,0.059
		l-0.032,0.052l-8.807,14.211l-0.036,0.058l-0.055,0.04l-1.011,0.726l-0.049,0.035l-0.058,0.017l-0.115,0.032l-0.046,0.013h-0.048
		l-6.248-0.032h-0.078l-0.069-0.034l-1.248-0.608l-0.044-0.021l-0.036-0.033l-0.048-0.044l-0.036-0.033l-0.025-0.041l-0.078-0.129
		l-0.029-0.048l-0.012-0.055l-0.014-0.064l-0.01-0.045l0.002-0.047l0.088-1.512l0.004-0.082l0.042-0.07l0.078-0.131l0.028-0.047
		l0.041-0.035l4.076-3.521l-0.046,0.049l6.325-8.301l-0.061,0.224l-0.391-3.369l0.01,0.051l-3.875-13.242l-0.019-0.063l0.011-0.063
		l0.56-3.25l0,0.096l-0.684-3.774l0.048,0.11l-1.924-2.616l0.066,0.063l-4.474-2.986l-0.009-0.006l-0.008-0.006l-6.232-4.938
		l-0.038-0.03l-0.023-0.041l-4.113-7.371L25.38,65.87l-0.007-0.022l-1.266-4.075l0.137,0.141l-1.242-0.429l-0.027-0.009
		l-0.024-0.016l-2.823-1.917l-0.032-0.021l-0.022-0.031l-0.07-0.099l-0.016-0.023l-0.01-0.026l-2.25-6.173l0.018,0.036l-2.447-3.978
		l0.124,0.088l-1.232-0.278l0.209-0.09l-0.932,1.558l0.023-0.062l-0.51,2.617l-0.003-0.086l0.651,2.361l-0.212-0.133l0.513-0.093
		l0.027-0.005l0.027,0.003l0.072,0.008l0.031,0.004l0.028,0.014l0.141,0.068l0.023,0.011l0.019,0.017l0.055,0.048l-0.039-0.026
		l1.889,0.963l0.096,0.048l0.004,0.107l0.005,0.116l0,0.013l-0.001,0.013l-0.005,0.051l-0.003,0.026l-0.01,0.024l-1.94,4.786
		l-0.02,0.05l-0.044,0.03l-0.108,0.074l-0.044,0.03l-0.053,0.001l-0.247,0.004l-0.052,0.001l-0.044-0.027l-0.113-0.07l-0.034-0.021
		l-0.021-0.033L9.266,54.8l-0.021-0.033L9.24,54.729l-0.312-2.508l-0.003-0.023l0.004-0.023l0.023-0.143l0.004-0.024l0.011-0.022
		l2.853-5.848l0.016-0.033l0.028-0.022l1.728-1.367l0.024-0.02l0.03-0.008l0.128-0.037l0.024-0.007l0.024,0.001l1.996,0.085
		l0.022,0.001l0.02,0.007l0.479,0.162l-0.142,0.262l-2.379-1.871l0.077,0.031l-1.608-0.158l0.077-0.014l-4.348,2.072l0.062-0.193
		l0.35,0.64l0.008,0.015l0.004,0.017l0.026,0.103l0.005,0.02l-0.001,0.02l-0.089,2.472l-0.001,0.042l-0.025,0.034l-0.108,0.147
		l-0.019,0.025l-0.028,0.015l-4.631,2.43l-0.022,0.011l-0.024,0.003l-0.094,0.011l-0.027,0.003l-0.026-0.008L3.19,50.976
		l-0.026-0.008l-0.021-0.017l-0.072-0.06L3.04,50.865l-0.011-0.038l-0.975-3.293l-0.002-0.006l-0.001-0.006l-0.012-0.063
		l-0.003-0.018l0.001-0.018l0.012-0.146l0.001-0.019l0.007-0.017l0.024-0.061l0.004-0.011l0.006-0.01l1.125-1.791L3.21,45.382
		l1.918-4.081l0.012-0.027l0.023-0.018l0.124-0.094l0.017-0.013l0.02-0.006l7.271-2.256l0.018-0.005l0.018,0l2.546,0.028l0.029,0
		l0.026,0.014l3.039,1.631l0.018,0.01l0.014,0.015l0.068,0.073l0.008,0.009l0.007,0.011l3.699,5.909l-0.214-0.019l2.901-3.227
		l0.018-0.019l0.024-0.012l7.297-3.707l-0.065,0.062l2.902-5.218l0.25,0.201l-2.352,2.073l-0.032,0.028l-0.042,0.009l-0.159,0.037
		l-0.03,0.007l-0.031-0.004l-1.799-0.258l0.085-0.009l-5.197,1.987l0.088-0.074l-0.758,1.243l-0.021,0.034l-0.034,0.022
		l-0.122,0.081l-0.026,0.017l-0.031,0.008l-3.1,0.784l-0.039,0.01l-0.04-0.007l-1.983-0.351l-0.032-0.006l-0.028-0.016l-0.071-0.04
		l-0.029-0.017l-0.022-0.026l-0.112-0.13l-0.021-0.025l-0.012-0.031l-0.029-0.076l-0.012-0.032l0-0.034l-0.017-1.343l0.018,0.078
		l-0.462-1.004l-0.015-0.031l-0.002-0.036l-0.007-0.094l-0.001-0.019l0.002-0.019l0.005-0.043l0.002-0.018l0.005-0.017l0.341-1.09
		l0.01-0.031l0.02-0.027l4.875-6.628l-0.038,0.092l0.305-2.037l0.007-0.05l0.03-0.042l3.412-4.788l-0.034,0.184l-0.886-3.367
		l-0.018-0.066l0.023-0.065l0.042-0.123l0.021-0.063l0.053-0.042L27.106,19l0.063-0.049l0.081,0.001l0.147,0.002l0.077,0.001
		l0.061,0.049l3.855,3.113l-0.176-0.05l1.485-0.19l-0.098,0.036l3.126-2.024l0.032-0.021l0.037-0.01l3.223-0.863l0.031-0.008h0.032
		l2.135-0.003h0.206l0.038,0.203l0.043,0.229l0.038,0.202l-0.192,0.075L39.272,20.5l0.056-0.031l-1.29,0.934l0.041-0.037
		l-0.263,0.295l-0.225-0.421l0.14-0.02l-0.049,0.012l0.896-0.317l0.008-0.003l0.009-0.002l2.974-0.816l0.026-0.007l0.027-0.001
		l3.025-0.178l0.036-0.002l0.042,0.012l3.193,0.896l0.034,0.009l0.03,0.018l2.091,1.234l0.194,0.114l-0.077,0.213l-0.08,0.221
		l-0.077,0.212l-0.223-0.037l-2.451-0.402l0.04,0.003l-2.21-0.04l0.099-0.016l-1.018,0.363l-0.06-0.542l1.357,0.162l0.339,0.041
		c0.096,0.011,0.25,0.028,0.357,0.052l0.672,0.127l2.686,0.509l0.037,0.007l0.034,0.017l2.822,1.358l0.044,0.021l0.035,0.035
		l1.723,1.716l0.022,0.022l0.018,0.027L56.3,29.28l0.137,0.212l-0.187,0.171l-0.174,0.159l-0.188,0.172l-0.201-0.158l-2.563-2.019
		l0.062,0.038l-2.378-1.086l0.11,0.028l-0.861-0.049l0.28-0.473l0.016,0.026l-0.081-0.087l3.182,2.306l0.053,0.038l0.034,0.057
		l2.073,3.508l0.03,0.051l0.01,0.059l0.791,4.682l0.016,0.096l-0.04,0.09l-0.061,0.14l-0.048,0.109l-0.107,0.053l-0.238,0.117
		l-0.104,0.051l-0.114-0.026l-0.147-0.033l-0.141-0.032l-0.071-0.126l-2.031-3.571l0.027,0.041l-1.417-1.807l0.104,0.088
		l-0.731-0.396l0.47-0.43l1.955,4.538l0.016,0.036l0.007,0.038l0.674,3.898l0.004,0.023l0.001,0.022l0.063,2.053l0.002,0.055
		l-0.017,0.051l-0.579,1.8l-0.313,0.973l-0.282-0.98l-0.552-1.919l0.008,0.024l-0.577-1.514l0.029,0.057l-1.485-2.29l0.534-0.251
		l0.988,3.188l0.008,0.027l0.003,0.027l0.263,2.34l0.005,0.048l-0.01,0.046l-0.413,1.882l-0.014,0.065l-0.042,0.052l-0.706,0.874
		l-0.378,0.469l-0.115-0.59l-0.456-2.338l0.031,0.084l-0.728-1.268l0.491-0.042l-3.629,9.75l0.015-0.082l-0.112,5.275l-0.433-0.148
		c2.674-3.606,4.847-7.559,7.214-11.404c1.173-1.919,2.464-3.793,3.844-5.582c0.731-0.863,1.423-1.771,2.203-2.581
		c0.749-0.819,1.514-1.725,2.541-2.289c1.003-0.581,2.164-0.886,3.322-0.873c1.17-0.02,2.291,0.398,3.324,0.794l6.348,2.336
		c2.106,0.802,4.19,1.659,6.286,2.485c2.103,0.811,4.17,1.721,6.24,2.604l24.873,10.6l6.224,2.636
		c2.081,0.864,4.136,1.795,6.243,2.583C128.958,60.401,133.401,61.354,137.899,61.613z"/>
</g>
</svg>
