<?xml version="1.0" encoding="utf-8"?>
<!-- Generator: Adobe Illustrator 16.0.3, SVG Export Plug-In . SVG Version: 6.00 Build 0)  -->
<!DOCTYPE svg PUBLIC "-//W3C//DTD SVG 1.1//EN" "http://www.w3.org/Graphics/SVG/1.1/DTD/svg11.dtd">
<svg version="1.1" xmlns="http://www.w3.org/2000/svg" xmlns:xlink="http://www.w3.org/1999/xlink" x="0px" y="0px" viewBox="0 0 60 60" enable-background="new 0 0 60 60" xml:space="preserve">
<g id="star_bottom" display="none">
	<polygon display="inline" fill="#DC9955" stroke="#000000" stroke-width="0.75" stroke-miterlimit="10" points="97.102,59.424 
		82.276,70.239 87.988,52.74 73.041,41.926 91.512,41.926 97.102,24.427 102.813,41.926 121.283,41.926 106.336,52.74 
		112.048,70.239 	"/>
</g>
<g id="star_top" display="none">
	<polygon display="inline" fill="#FFDD88" points="97.129,53.918 89.057,59.808 92.166,50.278 84.026,44.389 94.086,44.389 
		97.129,34.858 100.24,44.389 110.299,44.389 102.158,50.278 105.269,59.808 	"/>
	<g display="inline">
		<path fill="#FFC766" d="M-68.181,77.092c1.03-4.547,1.535-8.655,2.368-19.194c0.29-3.76,0.495-4.834,0.921-4.981
			c0.516-0.175,0.777,1.867,1.576,12.354c0.295,3.835,0.194,13.595-0.15,14.691l-0.165,0.543l-2.126-0.716
			c-1.166-0.394-2.299-0.718-2.512-0.718c-0.243,0-0.253-0.211-0.253-0.211S-68.512,78.549-68.181,77.092z"/>
		<path fill="#FFC766" d="M-55.298,80.361c-0.201,1.141-0.423,2.138-0.488,2.206c-0.121,0.119-4.01-1.585-4.404-1.931
			c-0.11-0.095,0.199-1.558,0.685-3.242c0.871-3.004,1.716-6.998,2.972-14.021c0.721-4.03,1.211-5.493,1.684-5.024
			c0.21,0.213,0.322,1.956,0.385,6.086C-54.367,70.669-54.701,77.018-55.298,80.361z"/>
		<path fill="#FFC766" d="M-47.264,81.047c-0.373,2.252-0.995,4.951-1.156,4.951c-0.274,0-4.28-2.271-4.28-2.426
			c0-0.096,0.46-1.459,1.009-3.018c0.985-2.77,1.995-6.455,3.316-12.118c0.96-4.107,1.537-5.384,1.951-4.306
			C-46.06,65.078-46.682,77.436-47.264,81.047z"/>
		<path fill="#FFC766" d="M-40.106,84.841c-0.265,1.509-0.667,3.354-0.904,4.143l-0.432,1.419l-1.958-1.345
			c-1.06-0.735-2.004-1.407-2.061-1.474c-0.066-0.068,0.327-1.26,0.872-2.67c1.311-3.393,1.859-5.141,2.771-8.854
			c0.694-2.843,1.624-6.024,1.902-6.504c0.313-0.545,0.7,0.123,0.776,1.333C-38.994,73.13-39.605,81.946-40.106,84.841z"/>
		<path fill="#FFC766" d="M-33.325,90.198c-0.526,1.903-1.802,5.194-2.013,5.194c-0.15,0-2.195-1.59-2.841-2.211
			c-0.123-0.115,0.497-1.634,1.383-3.393c0.887-1.75,2.182-4.613,2.883-6.369c2.027-5.092,2.729-6.17,2.729-4.203
			C-31.183,80.18-32.694,87.924-33.325,90.198z"/>
		<path fill="#FFC766" d="M-22.67,87.969c-0.083,0.365-0.924,2.543-1.867,4.846c-1.677,4.08-2.832,6.344-4.082,8.014l-0.632,0.842
			l-2.894-2.871l1.291-1.361c1.603-1.692,3.064-3.607,5.108-6.7c1.736-2.62,2.707-3.766,3.025-3.563
			C-22.61,87.244-22.589,87.595-22.67,87.969z"/>
	</g>
</g>
<g id="bot_playful_star" display="none">
	<g transform="translate(0,-952.36218)" display="inline">
		<path fill="#FFC766" d="M29.938,954.512c-0.525,0.026-0.979,0.373-1.143,0.873l-6.355,19.067H2.088
			c-0.699,0.002-1.265,0.571-1.263,1.271c0.002,0.4,0.192,0.777,0.514,1.014l16.532,12.088l-6.355,19.732
			c-0.216,0.664,0.148,1.378,0.814,1.596c0.386,0.126,0.81,0.058,1.139-0.183L30,997.881l16.531,12.089
			c0.564,0.412,1.357,0.29,1.77-0.273c0.24-0.329,0.309-0.751,0.184-1.14l-6.354-19.732l16.529-12.088
			c0.563-0.415,0.682-1.208,0.266-1.771c-0.236-0.322-0.611-0.513-1.012-0.514H37.559l-6.354-19.067
			C31.029,954.841,30.51,954.483,29.938,954.512z"/>
	</g>
</g>
<g id="playful_star" display="none">
	<g transform="translate(0,-952.36218)" display="inline">
		<path fill="#FFDD88" d="M29.96,964.494c-0.337,0.017-0.628,0.239-0.733,0.56l-4.078,12.234H12.092
			c-0.449,0.001-0.812,0.366-0.81,0.814c0.001,0.257,0.124,0.499,0.33,0.651l10.607,7.755l-4.078,12.66
			c-0.139,0.427,0.095,0.885,0.522,1.024c0.248,0.081,0.52,0.037,0.731-0.117L30,992.318l10.606,7.757
			c0.361,0.265,0.871,0.186,1.135-0.176c0.154-0.211,0.198-0.481,0.118-0.731l-4.076-12.66l10.605-7.755
			c0.36-0.267,0.437-0.775,0.17-1.137c-0.151-0.206-0.393-0.329-0.649-0.329H34.85l-4.077-12.234
			C30.66,964.704,30.327,964.475,29.96,964.494z"/>
	</g>
</g>
<g id="new_play">
	<path fill="#FFC766" d="M47.882,57.695c-2.779,2.244-18.01-9.59-18.01-9.59s-15.61,10.658-18.107,9.398
		c-2.499-1.256,3.554-20.09,3.554-20.09S-0.075,25.628,0.784,23.098c0.861-2.529,20.205-2.827,20.205-2.827
		s6.336-18.399,9.124-18.248s8.935,18.341,8.935,18.341s19.378,0.68,20.173,3.041c0.795,2.36-14.685,14.163-14.685,14.163
		S50.659,55.451,47.882,57.695z"/>
</g>
<g id="new_play_top">
	<path fill="#FFDD88" d="M42.17,48.85c-1.892,1.527-12.258-6.527-12.258-6.527s-10.624,7.254-12.324,6.396
		c-1.701-0.855,2.419-13.674,2.419-13.674s-10.477-8.02-9.892-9.742c0.586-1.721,13.752-1.924,13.752-1.924
		s4.312-12.522,6.209-12.419c1.898,0.103,6.081,12.483,6.081,12.483s13.188,0.462,13.729,2.07c0.54,1.606-9.994,9.638-9.994,9.638
		S44.061,47.322,42.17,48.85z"/>
</g>
</svg>
