<?xml version="1.0" encoding="utf-8"?>
<!-- Generator: Adobe Illustrator 16.0.3, SVG Export Plug-In . SVG Version: 6.00 Build 0)  -->
<!DOCTYPE svg PUBLIC "-//W3C//DTD SVG 1.1//EN" "http://www.w3.org/Graphics/SVG/1.1/DTD/svg11.dtd">
<svg version="1.1" id="all_in_one" xmlns="http://www.w3.org/2000/svg" xmlns:xlink="http://www.w3.org/1999/xlink" x="0px" y="0px"
	 viewBox="0 0 60 60" enable-background="new 0 0 60 60" xml:space="preserve">
<path fill="#FFC766" d="M47.882,57.695c-2.779,2.244-18.01-9.59-18.01-9.59s-15.61,10.658-18.107,9.398
	c-2.499-1.256,3.554-20.09,3.554-20.09S-0.075,25.628,0.784,23.098c0.861-2.529,20.205-2.827,20.205-2.827
	s6.336-18.399,9.124-18.248s8.935,18.341,8.935,18.341s19.378,0.68,20.173,3.041c0.795,2.36-14.685,14.163-14.685,14.163
	S50.659,55.451,47.882,57.695z"/>
<path fill="#FFEE8A" d="M42.17,48.85c-1.892,1.527-12.258-6.527-12.258-6.527s-10.624,7.254-12.324,6.396
	c-1.701-0.855,2.419-13.674,2.419-13.674s-10.477-8.02-9.892-9.742c0.586-1.721,13.752-1.924,13.752-1.924
	s4.312-12.522,6.209-12.419c1.898,0.103,6.081,12.483,6.081,12.483s13.188,0.462,13.729,2.07c0.54,1.606-9.994,9.638-9.994,9.638
	S44.061,47.322,42.17,48.85z"/>
</svg>
