<?xml version="1.0" encoding="utf-8"?>
<!-- Generator: Adobe Illustrator 16.0.3, SVG Export Plug-In . SVG Version: 6.00 Build 0)  -->
<!DOCTYPE svg PUBLIC "-//W3C//DTD SVG 1.1//EN" "http://www.w3.org/Graphics/SVG/1.1/DTD/svg11.dtd">
<svg version="1.1" xmlns="http://www.w3.org/2000/svg" xmlns:xlink="http://www.w3.org/1999/xlink" x="0px" y="0px" viewBox="0 0 40 40" enable-background="new 0 0 40 40" xml:space="preserve">
<g id="Layer_1">
	<g>
		<g>
			<path fill="#FBB03B" d="M19.473,11.771L19.473,11.771c0.359,0.192,0.813,0.167,1.151-0.058l6.843-4.598
				c0.312-0.208,0.497-0.556,0.497-0.929c0-0.375-0.186-0.722-0.497-0.93L20.624,0.66c-0.345-0.23-0.785-0.252-1.151-0.059
				c-0.367,0.194-0.592,0.574-0.592,0.989v3.515C9.816,5.684,2.768,13.17,2.768,22.297c0,9.502,7.729,17.232,17.232,17.232
				c9.504,0,17.232-7.73,17.232-17.232c0-4.603-1.793-8.932-5.046-12.185c-0.438-0.438-1.149-0.438-1.587,0
				c-0.438,0.437-0.438,1.148,0,1.585c2.832,2.832,4.392,6.596,4.392,10.602c0,8.266-6.726,14.99-14.991,14.99
				S5.009,30.564,5.009,22.299c0-7.879,6.062-14.373,13.872-14.951v3.433C18.881,11.197,19.105,11.575,19.473,11.771z M21.12,8.678
				V3.692l3.712,2.493L21.12,8.678z"/>
			<g>
				<path fill="#FBB03B" d="M19.507,11.678c0.515,0.239,0.951,0.074,1.395-0.281l1.335-0.906l2.666-1.817l1.325-0.921
					c0.427-0.311,0.918-0.606,1.29-0.93c0.133-0.165,0.24-0.359,0.239-0.59c0.007-0.054-0.016-0.27-0.054-0.342
					c-0.031-0.089-0.078-0.179-0.154-0.265c-0.127-0.151-0.363-0.284-0.596-0.432l-0.683-0.431l-5.456-3.451l-0.341-0.215
					L20.39,1.044l-0.011-0.007l-0.005-0.003c0.105,0.061,0.026,0.016,0.048,0.028l-0.023-0.01l-0.046-0.021l-0.184-0.083
					c-0.109,0.008-0.259-0.03-0.407,0.059l-0.054,0.02l-0.007,0.002c-0.052,0.032,0.066-0.042,0.052-0.033l-0.005,0.004l-0.02,0.015
					l-0.04,0.031l-0.16,0.123c-0.031,0.079-0.044,0.063-0.072,0.148c-0.071,0.138-0.05,0.245-0.049,0.563L19.5,5.105l0.016,0.555
					L18.92,5.724c-3.565,0.379-6.979,1.82-9.619,4.177c-2.627,2.348-4.544,5.5-5.281,8.955c-0.172,0.862-0.34,1.734-0.365,2.619
					l-0.041,0.662c-0.026,0.131,0.008,0.436,0.009,0.646c0.026,0.458,0.02,0.941,0.063,1.38c0.146,1.702,0.622,3.477,1.328,5.1
					c1.397,3.294,3.983,6.053,7.114,7.857c1.574,0.903,3.322,1.481,5.107,1.813c0.893,0.189,1.805,0.227,2.716,0.272
					c0.892-0.038,1.859-0.049,2.73-0.219c3.61-0.521,6.978-2.401,9.479-5.026c1.277-1.3,2.269-2.86,3.01-4.508
					c0.73-1.652,1.244-3.408,1.399-5.205c0.065-0.445,0.04-0.899,0.065-1.348c0.004-0.213,0.02-0.475,0.014-0.647l-0.048-0.694
					c-0.033-0.954-0.211-1.792-0.375-2.661c-0.391-1.748-1.112-3.401-2.024-4.919c-0.438-0.774-0.999-1.466-1.546-2.161
					l-0.908-0.972l-0.112-0.122l-0.028-0.03c0.112,0.102,0.012,0.013,0.027,0.028l-0.068-0.054c-0.141-0.118-0.044-0.003-0.07-0.036
					c-0.057-0.023-0.123-0.012-0.178,0.002c-0.109,0.029-0.194,0.146-0.188,0.254c0.004,0.055,0.013,0.111,0.045,0.151l0.369,0.4
					c0.627,0.634,1.284,1.451,1.835,2.283c2.188,3.286,3.027,7.45,2.353,11.325c-0.655,3.938-2.822,7.57-5.993,9.988
					c-3.125,2.432-7.28,3.647-11.159,3.231c-4.045-0.386-7.771-2.305-10.382-5.291c-2.63-2.964-4.027-6.901-3.866-10.841
					c0.121-3.835,1.774-7.643,4.461-10.327c2.68-2.71,6.334-4.352,10.078-4.589l0.141-0.009l-0.001,0.138l-0.015,2.321l-0.003,0.58
					l-0.002,0.29c0.002,0.09-0.007,0.208,0.003,0.275c0.01,0.207,0.068,0.364,0.148,0.508c0.056,0.067,0.106,0.14,0.165,0.205
					l0.213,0.156L19.507,11.678z M19.425,11.86l-0.257-0.184c-0.073-0.075-0.135-0.162-0.202-0.243
					c-0.113-0.194-0.176-0.405-0.186-0.589c-0.016-0.125-0.005-0.201-0.009-0.304l-0.002-0.29l-0.003-0.58l-0.015-2.321l0.139,0.129
					c-3.681,0.293-7.19,2.072-9.579,4.814c-2.423,2.725-3.725,6.301-3.613,9.909c0.092,3.502,1.519,6.973,3.905,9.502
					c2.358,2.543,5.716,4.191,9.084,4.471c3.534,0.305,7-0.722,9.757-2.829c2.743-2.087,4.717-5.221,5.326-8.612
					c0.655-3.439-0.026-7.085-1.916-10.029c-0.47-0.718-0.943-1.384-1.604-2.091l-0.23-0.261l-0.124-0.147
					c-0.063-0.081-0.133-0.158-0.184-0.248c-0.222-0.353-0.313-0.771-0.286-1.177c0.042-0.822,0.665-1.57,1.462-1.761
					c0.392-0.098,0.812-0.085,1.189,0.065c0.182,0.063,0.5,0.268,0.528,0.31l0.067,0.056l0.095,0.084l0.03,0.034l0.121,0.136
					l0.965,1.093c0.583,0.777,1.171,1.553,1.63,2.411c0.952,1.688,1.64,3.526,1.989,5.425c0.147,0.96,0.294,1.958,0.285,2.867
					l0.02,0.697c-0.001,0.291-0.029,0.493-0.042,0.744c-0.046,0.478-0.043,0.959-0.127,1.432c-0.513,3.804-2.301,7.38-4.956,10.087
					c-1.328,1.354-2.864,2.497-4.539,3.378c-1.676,0.896-3.505,1.435-5.376,1.762c-3.719,0.651-7.648-0.008-11.054-1.7
					c-3.376-1.747-6.278-4.555-7.945-8.055c-0.843-1.747-1.439-3.579-1.694-5.577c-0.068-0.482-0.075-0.932-0.11-1.4
					c-0.007-0.254-0.044-0.413-0.028-0.746l0.026-0.729c0.007-0.975,0.165-1.943,0.335-2.902c0.769-3.839,2.909-7.365,5.878-9.893
					C11.15,6.05,15,4.646,18.841,4.487l-0.58,0.618l0.093-3.227c0.012-0.211-0.005-0.672,0.2-1.011
					c0.064-0.169,0.265-0.372,0.398-0.499l0.167-0.113l0.042-0.028l0.021-0.014l0.005-0.003c-0.011,0.006,0.111-0.069,0.064-0.039
					l0.017-0.007l0.135-0.05c0.344-0.155,0.768-0.133,1.167,0.009l0.179,0.094l0.045,0.023l0.022,0.011l0.064,0.038l0.01,0.007
					l0.083,0.059l0.329,0.234l5.257,3.746l0.657,0.468c0.208,0.155,0.454,0.292,0.667,0.557c0.099,0.124,0.177,0.269,0.223,0.441
					c0.049,0.179,0.053,0.241,0.05,0.451c-0.006,0.314-0.172,0.624-0.393,0.852C27.31,7.47,26.86,7.712,26.408,8.021l-1.354,0.879
					l-2.689,1.782l-1.343,0.894c-0.214,0.143-0.446,0.323-0.742,0.388c-0.281,0.091-0.617-0.002-0.842-0.098L19.425,11.86z"/>
				<path fill="#FBB03B" d="M21.021,8.678c-0.277-0.416-0.432-0.831-0.556-1.247c-0.127-0.416-0.193-0.831-0.227-1.246
					c-0.041-0.416-0.019-0.831,0.119-1.247c0.127-0.416,0.312-0.831,0.402-1.247l0.157-0.719l0.405,0.419
					c0.53,0.547,1.244,0.821,2.005,1.025c0.766,0.196,1.413,0.568,2.084,0.906l1.274,0.641L25.41,7.046
					c-0.571,0.485-1.227,0.847-1.93,1.136c-0.354,0.142-0.718,0.269-1.096,0.374c-0.195,0.043-0.381,0.101-0.589,0.126
					c-0.204,0.03-0.4,0.072-0.62,0.079l-0.099,0.003L21.021,8.678z M21.064,8.595c0.09-0.201,0.203-0.366,0.308-0.544
					c0.102-0.182,0.226-0.333,0.339-0.497c0.241-0.311,0.496-0.599,0.761-0.873c0.534-0.542,1.116-1.012,1.782-1.357v1.722
					c-0.566-0.493-1.156-0.951-1.628-1.586c-0.477-0.626-1-1.184-1.707-1.467l0.563-0.3c0.091,0.416,0.275,0.831,0.402,1.247
					c0.138,0.416,0.159,0.831,0.119,1.247c-0.034,0.416-0.101,0.831-0.228,1.246c-0.124,0.416-0.278,0.831-0.556,1.247L21.064,8.595
					z"/>
			</g>
		</g>
	</g>
</g>
<g id="Layer_2" display="none">
	<g display="inline">
		<rect x="70.213" y="8.105" fill="#32D9D8" width="2.49" height="88.139"/>
		<path fill="#32D9D8" d="M73.568,5.879h-4.227c-0.457,0-0.817,0.357-0.817,0.804c0.002,0.452,0.364,0.813,0.817,0.815h0.282V7.486
			h3.54v0.012h0.41c0.449-0.002,0.813-0.363,0.813-0.815C74.387,6.236,74.024,5.879,73.568,5.879z"/>
		<path fill="#32D9D8" d="M72.896,96.73l-0.067-0.023h-2.826l-0.031,0.003c-0.203,0.047-0.357,0.229-0.357,0.449
			c0,0.216,0.154,0.397,0.356,0.447h2.867c0.206-0.05,0.358-0.231,0.358-0.447C73.197,96.962,73.071,96.801,72.896,96.73z"/>
		<path fill="#32D9D8" d="M83.831-23.727l2.649,12.113v0.051v2.76v0.01c0.005,2.219-0.647,4.316-2.074,5.876
			c-1.419,1.558-3.604,2.552-6.574,2.581h-0.004h-4.527v3.348h0.273c0.791,0.003,1.432,0.644,1.432,1.43
			c0,0.458-0.223,0.862-0.557,1.126c0.045,0.036,0.092,0.069,0.135,0.11c0.26,0.254,0.422,0.613,0.422,1.005
			c0,0.792-0.643,1.43-1.432,1.43h-0.257v88.15c0.294,0.191,0.493,0.518,0.493,0.899c0,0.489-0.336,0.902-0.789,1.026
			c0.01,0.068,0.021,0.134,0.021,0.203c0,0.901-0.734,1.631-1.638,1.631s-1.638-0.729-1.638-1.631c0-0.069,0.01-0.135,0.021-0.203
			C69.334,98.064,69,97.651,69,97.162c0-0.424,0.246-0.781,0.6-0.958V8.112h-0.258c-0.79,0-1.43-0.638-1.43-1.427
			c-0.002-0.395,0.162-0.754,0.42-1.008c0.041-0.041,0.088-0.074,0.131-0.11c-0.332-0.261-0.553-0.665-0.553-1.126
			c0.002-0.786,0.642-1.427,1.432-1.427h0.129v-3.351h-4.385l0,0c-2.971-0.025-5.154-1.019-6.578-2.581
			c-1.424-1.558-2.076-3.657-2.076-5.876v-0.012v-2.756v-0.053l2.992-12.066l-1.697,0.019l4.189-5.112l1.162,6.497l-1.389-0.847
			l-2.288,11.509v0.051v2.88c0,1.601,0.639,2.892,1.68,3.804s2.494,1.432,4.118,1.432h4.271v-25.82l-2.637,1.17l4.453-10.26
			l4.672,10.266l-2.658-1.176v25.82h4.417c1.621,0,3.072-0.52,4.113-1.432c1.042-0.912,1.684-2.203,1.684-3.804v-2.88v-0.051
			L81.405-23.42l-1.537,0.661l1.742-5.5l0.152-0.476l3.838,5.188L83.831-23.727z"/>
		<path fill="#32D9D8" d="M70.439,98.067c-0.037,0.105-0.057,0.208-0.057,0.324c0,0.56,0.457,1.018,1.019,1.018
			c0.568,0,1.026-0.458,1.026-1.018c0-0.116-0.022-0.219-0.059-0.324H70.439z"/>
		<path fill="#32D9D8" d="M81.809-24.099l2.326,12.485v0.051v2.88c0,1.768-0.729,3.247-1.895,4.265
			c-1.172,1.021-2.771,1.586-4.522,1.586h-5.03v-27.377l2.041,0.905l-3.43-7.542l-3.277,7.553l2.063-0.916v27.377h-4.885
			c-1.755,0-3.354-0.564-4.522-1.586c-1.167-1.018-1.897-2.497-1.894-4.265v-2.88v-0.051l2.597-12.268l1.032,0.631l-0.789-4.401
			l-2.861,3.49l1.283-0.017l-2.998,12.565v0.053v2.758v0.01c0,2.102,0.615,4.043,1.912,5.465c1.301,1.421,3.289,2.347,6.131,2.378
			h4.994v3.958h2.6V-0.95h5.137c2.844-0.031,4.832-0.957,6.131-2.378c1.302-1.422,1.913-3.363,1.913-5.465v-0.012v-0.004v-2.752
			v-0.053l-2.633-12.635l1.338,0.137l-2.62-3.545l-1.283,4.046L81.809-24.099z"/>
		<path fill="#32D9D8" d="M72.688,3.624h-2.6v0.007h-0.746c-0.449,0-0.815,0.363-0.815,0.811c0,0.226,0.091,0.43,0.239,0.582
			c0.146,0.148,0.346,0.237,0.568,0.24h4.242c0.229-0.003,0.424-0.092,0.57-0.24c0.15-0.152,0.24-0.356,0.24-0.582
			c0-0.447-0.363-0.811-0.813-0.811h-0.887V3.624z"/>
	</g>
</g>
</svg>
