<?xml version="1.0" encoding="utf-8"?>
<!-- Generator: Adobe Illustrator 16.0.3, SVG Export Plug-In . SVG Version: 6.00 Build 0)  -->
<!DOCTYPE svg PUBLIC "-//W3C//DTD SVG 1.1//EN" "http://www.w3.org/Graphics/SVG/1.1/DTD/svg11.dtd">
<svg version="1.1" xmlns="http://www.w3.org/2000/svg" xmlns:xlink="http://www.w3.org/1999/xlink" x="0px" y="0px" viewBox="0 0 140 140" enable-background="new 0 0 140 140" xml:space="preserve">
<g id="bg">
	<ellipse fill="#91D9ED" cx="70.08" cy="61.125" rx="65.08" ry="54.625"/>
	<rect y="118" fill="#3FA9F5" width="140" height="22"/>
	<ellipse fill="#3FA9F5" cx="70.25" cy="115.75" rx="70.25" ry="27.5"/>
	<path fill="#808080" d="M115,140H35.167c0,0-27.5-13.5-16.5-30S69,94,69,94s22-9.333,25-6.333S115,140,115,140z"/>
	<path fill="#666666" d="M45,141h47c0,0,3.667-51.5,0-56S34.833,98.334,34.833,98.334L45,141z"/>
</g>
<g id="adds">
	<ellipse fill="#39B54A" stroke="#000000" stroke-miterlimit="10" cx="69.335" cy="85.492" rx="2.135" ry="2.053"/>
	<path fill="#C1272D" d="M86.685,67.876l-6.589-10.063l-16.84-8.149l-1.102-8.569l1.885-7.429c0,0,3.489-6.078,3.654-8.46
		c0.058-0.845-1.876-4.217-3.158-4.127c-6.068,0.422-3.944,5.437-3.944,5.437S54,15.25,64.039,14.425
		c9.955-0.818,24.829,0.074,31.336,6.204c8.118,7.648,9.387,18.844,13.5,21.417c3.523,2.204-5.297,15.004-8.609,16.44
		c-4.5,1.951-4.155,4.418-6.29,6.719C91.841,67.505,86.685,67.876,86.685,67.876z"/>
</g>
<g id="siren">
	<path d="M88.042,68.08c-1.563,0-3.018-0.755-3.893-2.019c-1.336-1.932-1.594-3.718-1.895-5.785
		c-0.341-2.379-0.77-5.336-3.378-9.093c-0.185-0.265-0.119-0.628,0.146-0.813c0.265-0.184,0.627-0.119,0.813,0.146
		c2.767,3.983,3.215,7.091,3.574,9.589c0.29,2.003,0.518,3.584,1.699,5.291c0.655,0.949,1.752,1.515,2.933,1.515
		c0.5,0,0.981-0.099,1.434-0.294c0.694-0.288,1.229-0.83,1.508-1.531c0.271-0.696,0.26-1.453-0.031-2.131
		c-0.218-0.508-0.633-0.909-1.165-1.128c-0.48-0.19-1.058-0.185-1.662,0.016c-0.307,0.102-0.637-0.064-0.738-0.37
		c-0.103-0.306,0.064-0.636,0.369-0.738c0.867-0.288,1.72-0.285,2.467,0.011c0.824,0.339,1.46,0.96,1.802,1.751
		c0.412,0.96,0.428,2.035,0.043,3.022c-0.4,1-1.161,1.771-2.139,2.176C89.34,67.949,88.701,68.08,88.042,68.08z"/>
	<path d="M62.154,41.095c-0.018,0-0.035,0-0.053-0.003c-0.32-0.029-0.558-0.314-0.529-0.635c0.442-4.83,2.098-7.5,3.426-9.644
		c1.066-1.721,1.905-3.078,2.1-5.145c0.105-1.149-0.369-2.288-1.272-3.044c-0.383-0.321-0.815-0.557-1.288-0.697
		c-0.718-0.226-1.475-0.153-2.139,0.204c-0.654,0.357-1.134,0.946-1.348,1.651c-0.157,0.529-0.098,1.104,0.168,1.613
		c0.246,0.454,0.691,0.822,1.283,1.057c0.299,0.119,0.445,0.458,0.327,0.758c-0.118,0.3-0.458,0.447-0.758,0.327
		c-0.849-0.336-1.501-0.887-1.882-1.594c-0.414-0.789-0.501-1.673-0.255-2.498c0.302-1.003,0.979-1.834,1.909-2.343
		c0.949-0.507,2.027-0.611,3.038-0.293c0.618,0.186,1.19,0.494,1.696,0.919c1.196,1.004,1.824,2.517,1.684,4.047
		c-0.219,2.339-1.17,3.874-2.27,5.648c-1.266,2.043-2.841,4.582-3.257,9.137C62.707,40.868,62.453,41.095,62.154,41.095z"/>
	<circle fill="#3FA9F5" cx="57.666" cy="46.607" r="1.265"/>
	<circle fill="#3FA9F5" cx="50.807" cy="40.51" r="1.265"/>
	<circle fill="#3FA9F5" cx="54.6" cy="25.842" r="1.265"/>
	<linearGradient id="SVGID_1_" gradientUnits="userSpaceOnUse" x1="69.5083" y1="56.9097" x2="69.5083" y2="113.5903">
		<stop  offset="0.0054" style="stop-color:#D6958A"/>
		<stop  offset="0.1223" style="stop-color:#E1A38C"/>
		<stop  offset="0.2473" style="stop-color:#E9AD8D"/>
		<stop  offset="0.2854" style="stop-color:#DDAE88"/>
		<stop  offset="0.3546" style="stop-color:#BDAF7C"/>
		<stop  offset="0.4468" style="stop-color:#89B168"/>
		<stop  offset="0.5577" style="stop-color:#41B54D"/>
		<stop  offset="0.5699" style="stop-color:#39B54A"/>
		<stop  offset="0.7176" style="stop-color:#4A8265"/>
		<stop  offset="0.9088" style="stop-color:#5E4585"/>
		<stop  offset="1" style="stop-color:#662D91"/>
	</linearGradient>
	<path fill="url(#SVGID_1_)" d="M98.306,89.097c-6.273,0-11.402,4.91-11.752,11.097c2.27,1.868,5.017,3.076,7.956,3.483
		c-0.163-0.863-0.265-1.741-0.294-2.629l0.008,0.006c-0.002-0.061-0.009-0.121-0.009-0.182c0-2.261,1.832-4.094,4.091-4.094
		c2.263,0,4.095,1.833,4.095,4.094c0,2.095-1.572,3.818-3.604,4.061l0.002,0.008l0,0c-6.839,0.81-13.791-2.531-17.271-8.955
		c-0.858-1.585-1.44-3.247-1.769-4.93l-4.479-25.747l1.11-0.197l3.843,21.796c0.266,1.503,1.701,2.507,3.204,2.242
		c1.504-0.264,2.509-1.699,2.243-3.203l-4.314-24.467c-0.474-2.686-2.812-4.568-5.447-4.565V56.91H63.011v0.004
		c-2.638-0.003-4.976,1.881-5.448,4.565l-4.314,24.467c-0.264,1.504,0.741,2.939,2.244,3.203c1.504,0.265,2.939-0.739,3.205-2.242
		l3.843-21.796l1.196,0.211L59.26,91.059c-0.329,1.681-0.912,3.342-1.77,4.927c-3.48,6.426-10.434,9.765-17.271,8.955l0,0
		l0.001-0.01c-2.029-0.242-3.603-1.966-3.603-4.061c0-2.26,1.834-4.094,4.094-4.094s4.092,1.834,4.092,4.094
		c0,0.063-0.006,0.122-0.01,0.183l0.008-0.006c-0.028,0.887-0.131,1.766-0.293,2.628c2.94-0.406,5.688-1.615,7.956-3.482
		c-0.35-6.188-5.478-11.1-11.755-11.1c-6.505,0-11.775,5.272-11.775,11.775c0,5.013,3.133,9.289,7.546,10.99l0.009,0.016
		c8.75,3.384,19.045,1.783,26.424-4.992c2.885-2.647,5.016-5.812,6.388-9.217l0.396-0.052c1.371,3.426,3.51,6.607,6.409,9.269
		c7.378,6.775,17.676,8.375,26.423,4.992l0.01-0.016c4.412-1.701,7.546-5.978,7.546-10.99
		C110.083,94.367,104.811,89.097,98.306,89.097z M69.508,86.245c-0.428,0-0.775-0.348-0.775-0.777c0-0.427,0.346-0.776,0.775-0.776
		c0.428,0,0.775,0.348,0.775,0.776C70.283,85.896,69.936,86.245,69.508,86.245z"/>
	<linearGradient id="SVGID_2_" gradientUnits="userSpaceOnUse" x1="26.6157" y1="97.499" x2="26.6157" y2="124.8877">
		<stop  offset="0" style="stop-color:#39B54A"/>
		<stop  offset="0.08" style="stop-color:#43975A"/>
		<stop  offset="0.1868" style="stop-color:#4E776B"/>
		<stop  offset="0.3025" style="stop-color:#575C79"/>
		<stop  offset="0.4281" style="stop-color:#5D4783"/>
		<stop  offset="0.5685" style="stop-color:#62388B"/>
		<stop  offset="0.7359" style="stop-color:#653090"/>
		<stop  offset="1" style="stop-color:#662D91"/>
	</linearGradient>
	<path fill="url(#SVGID_2_)" d="M45.744,114.845c-2.414,0-4.846-0.332-7.234-1.004c-1.482,1.224-3.193,2.219-5.102,2.913
		c-6.863,2.498-14.285,0.384-18.865-4.759l0.002-0.001c-0.332-0.376-0.604-0.816-0.787-1.315c-0.773-2.126,0.324-4.474,2.447-5.247
		c2.125-0.773,4.474,0.323,5.246,2.445c0.535,1.475,0.173,3.055-0.809,4.144l0,0c-0.654,0.73-1.365,1.39-2.117,1.982
		c2.463,1.639,5.307,2.561,8.231,2.684c2.509-3.105,3.376-7.412,1.911-11.436c-2.223-6.111-8.98-9.263-15.091-7.038
		s-9.261,8.981-7.038,15.091c0.644,1.771,1.672,3.289,2.949,4.506l0.002,0.008c6.783,6.482,16.904,8.954,26.317,5.528
		c4.79-1.743,8.736-4.776,11.597-8.563C46.854,114.82,46.299,114.845,45.744,114.845z"/>
	<path fill="#662D91" d="M137.001,116.497c-1.964,0.713-3.956,1.069-5.908,1.093c-0.143,0.165-1.154,1.183-1.241,1.259
		c-1.554,1.435-3.24,2.658-5.024,3.663c4.321,0.253,8.943-0.893,13.173-3.791L137.001,116.497z"/>
	<linearGradient id="SVGID_3_" gradientUnits="userSpaceOnUse" x1="112.3984" y1="97.501" x2="112.3984" y2="124.8926">
		<stop  offset="0" style="stop-color:#39B54A"/>
		<stop  offset="0.08" style="stop-color:#43975A"/>
		<stop  offset="0.1868" style="stop-color:#4E776B"/>
		<stop  offset="0.3025" style="stop-color:#575C79"/>
		<stop  offset="0.4281" style="stop-color:#5D4783"/>
		<stop  offset="0.5685" style="stop-color:#62388B"/>
		<stop  offset="0.7359" style="stop-color:#653090"/>
		<stop  offset="1" style="stop-color:#662D91"/>
	</linearGradient>
	<path fill="url(#SVGID_3_)" d="M125.438,98.214c-6.112-2.224-12.869,0.928-15.093,7.038c-1.465,4.024-0.597,8.329,1.914,11.436
		c2.924-0.124,5.768-1.044,8.229-2.683c-0.751-0.595-1.461-1.253-2.116-1.982l0,0c-0.981-1.088-1.345-2.67-0.808-4.144
		c0.771-2.124,3.12-3.219,5.245-2.445c2.125,0.772,3.219,3.121,2.447,5.246c-0.184,0.499-0.455,0.94-0.788,1.315l0.002,0.002
		c-4.581,5.143-11.998,7.255-18.865,4.758c-1.907-0.694-3.619-1.689-5.101-2.912c-2.39,0.672-4.82,1.003-7.234,1.003
		c-0.555,0-1.109-0.024-1.661-0.06c2.858,3.787,6.807,6.819,11.596,8.563c9.412,3.427,19.535,0.955,26.317-5.527l0.002-0.008
		c1.278-1.215,2.306-2.735,2.949-4.506C134.698,107.196,131.547,100.44,125.438,98.214z"/>
	<path fill="#662D91" d="M7.924,117.588c-1.952-0.024-3.945-0.377-5.91-1.091l-0.999,2.224c4.229,2.898,8.851,4.044,13.172,3.791
		c-1.918-1.08-3.726-2.407-5.374-3.981C8.813,118.53,8.066,117.753,7.924,117.588z"/>
	<path d="M99.59,51.526c-0.726-1.534-1.226-2.376-3.827-3.221c-1.404-0.457-4.981-0.303-8.768-0.142
		c-3.06,0.131-6.222,0.267-7.933,0.048c-4.696-0.6-8.709-2.612-11.928-5.984c-0.222-0.233-0.592-0.242-0.824-0.02
		c-0.232,0.223-0.242,0.592-0.02,0.826c0.031,0.033,0.066,0.065,0.098,0.101c-1.148,1.245-1.854,2.908-1.854,4.736
		c0,0.972,0.199,1.896,0.557,2.738c-0.006-0.01-0.012-0.017-0.018-0.026c-1.201-1.797-1.629-3.956-1.207-6.08
		c0.423-2.125,1.646-3.958,3.451-5.165c0.979-0.674,2.056-1.115,3.199-1.312c1.787-0.306,3.752-0.229,5.647-0.156l0.096,0.003
		c3.112,0.122,6.333,0.248,8.714-1.334c1.137-0.76,1.822-1.82,2.037-3.146c0.345-2.101-1.084-4.09-3.186-4.437
		c-0.842-0.135-1.69,0.06-2.393,0.562c-0.66,0.478-1.111,1.182-1.272,1.994l-0.016,0.096c-0.118,0.705,0.049,1.415,0.468,1.997
		c0.42,0.583,1.041,0.968,1.751,1.085c0.316,0.051,0.619-0.164,0.671-0.481c0.053-0.317-0.164-0.619-0.481-0.671
		c-0.401-0.067-0.755-0.285-0.992-0.615c-0.236-0.329-0.33-0.728-0.267-1.114l0.014-0.078c0.102-0.512,0.391-0.961,0.808-1.263
		c0.445-0.319,0.986-0.445,1.521-0.358c1.465,0.242,2.462,1.63,2.221,3.096c-0.161,0.995-0.679,1.792-1.534,2.363
		c-2.065,1.373-5.091,1.253-8.021,1.14l-0.094-0.003c-1.958-0.075-3.98-0.153-5.891,0.174c-1.313,0.225-2.544,0.73-3.656,1.496
		c-2.059,1.375-3.459,3.472-3.941,5.903c-0.486,2.431,0.006,4.901,1.38,6.958c1.29,1.932,4.001,6.337,6.547,6.528
		c0.286,0.035,0.577,0.056,0.874,0.056c3.372,0,6.185-5.348,6.841-8.527c0.184,0.027,0.366,0.058,0.551,0.082
		c1.81,0.232,5.021,0.094,8.13-0.04c3.517-0.15,7.153-0.306,8.357,0.086c2.243,0.729,2.522,1.318,3.133,2.61
		c0.43,0.903,0.481,1.924,0.141,2.877c-0.337,0.947-1.022,1.706-1.929,2.133c-0.693,0.332-1.476,0.372-2.203,0.111
		c-0.726-0.259-1.312-0.786-1.642-1.476c-0.252-0.538-0.283-1.138-0.091-1.686c0.198-0.554,0.602-0.998,1.135-1.252
		c0.29-0.138,0.414-0.488,0.277-0.778c-0.139-0.291-0.486-0.416-0.779-0.277c-0.813,0.387-1.429,1.067-1.733,1.917
		c-0.295,0.841-0.248,1.753,0.136,2.575c0.471,0.976,1.289,1.713,2.304,2.076c0.446,0.16,0.908,0.239,1.367,0.239
		c0.594,0,1.185-0.132,1.731-0.396c1.187-0.561,2.085-1.554,2.527-2.796C100.222,54.048,100.156,52.708,99.59,51.526z"/>
</g>
<g id="face">
	<rect x="66" y="51" fill="#D6958A" width="8" height="8"/>
	<path fill="#E9AD8D" d="M70.647,57.76c0.286,0.035,0.821,0.04,1.117,0.04c3.618,0,9.009-9.37,7.298-9.588
		c-4.696-0.6-8.709-2.612-11.928-5.984c-0.222-0.233-0.592-0.242-0.824-0.02c-0.232,0.223-0.242,0.592-0.02,0.826
		c0.031,0.033,0.066,0.065,0.098,0.101c-1.148,1.245-1.854,2.908-1.854,4.736c0,0.972,0.199,1.896,0.557,2.738
		c-0.006-0.01-0.012-0.017-0.018-0.026C65.074,50.582,67.344,57.453,70.647,57.76z"/>
	<ellipse fill="#1A1A1A" cx="71.986" cy="54.333" rx="0.986" ry="1.667"/>
	
		<ellipse transform="matrix(0.9119 0.4105 -0.4105 0.9119 25.875 -24.3767)" fill="#FFFFFF" cx="69.704" cy="48.067" rx="1.36" ry="0.72"/>
	<path fill="#FFFFFF" d="M76.774,48.819c0.028,0.265-0.489,0.543-1.163,0.621c-0.67,0.078-1.24-0.071-1.272-0.334
		c-0.029-0.263,0.486-0.542,1.16-0.62C76.173,48.406,76.74,48.556,76.774,48.819z"/>
	
		<ellipse transform="matrix(0.9118 0.4105 -0.4105 0.9118 25.9283 -24.5345)" fill="#C1272D" cx="70.092" cy="48.106" rx="0.818" ry="0.433"/>
	<ellipse fill="#C1272D" cx="75.854" cy="48.87" rx="0.604" ry="0.307"/>
	<g>
		<path fill="#D6958A" d="M71.544,50.892c0,0,0.507-0.079,1.011-0.112c0.126-0.015,0.253-0.036,0.371-0.037
			c0.117,0.007,0.224,0.049,0.316,0.082c0.183,0.08,0.302,0.193,0.302,0.193l-0.004,0.05c0,0-0.131,0.098-0.323,0.154
			c-0.095,0.021-0.207,0.049-0.324,0.042c-0.116-0.016-0.239-0.053-0.363-0.083c-0.496-0.096-0.989-0.237-0.989-0.237L71.544,50.892
			z"/>
	</g>
</g>
</svg>
