<?xml version="1.0" encoding="utf-8"?>
<!-- Generator: Adobe Illustrator 16.0.3, SVG Export Plug-In . SVG Version: 6.00 Build 0)  -->
<!DOCTYPE svg PUBLIC "-//W3C//DTD SVG 1.1//EN" "http://www.w3.org/Graphics/SVG/1.1/DTD/svg11.dtd">
<svg version="1.1" xmlns="http://www.w3.org/2000/svg" xmlns:xlink="http://www.w3.org/1999/xlink" x="0px" y="0px" viewBox="0 0 24 24" enable-background="new 0 0 24 24" xml:space="preserve">
<g id="bg" display="none">
	<rect display="inline" fill="#009183" width="24" height="24"/>
</g>
<g id="sound">
	<polygon fill="none" stroke="#FAFFFF" stroke-width="2" stroke-linecap="round" stroke-linejoin="round" points="11,5 6,9 2,9 
		2,15 6,15 11,19 	"/>
	<g>
		<path fill="#FAFFFF" d="M14.084,8.208c0,0,0.43,0.35,0.849,1.006c0.218,0.325,0.429,0.724,0.604,1.19
			c0.094,0.227,0.161,0.484,0.216,0.752c0.075,0.25,0.063,0.584,0.08,0.88v0.007l-0.007,0.069l-0.002,0.011l-0.004,0.023
			l-0.009,0.045l-0.017,0.09l-0.033,0.182l-0.076,0.358c-0.05,0.237-0.106,0.467-0.208,0.708c-0.193,0.465-0.374,0.906-0.589,1.226
			c-0.397,0.661-0.804,1.036-0.804,1.036s-0.068-0.55-0.018-1.296c0.026-0.38,0.04-0.778,0.101-1.201
			c0.04-0.199,0.05-0.442,0.078-0.685l0.044-0.363l0.046-0.301c-0.018-0.194,0.015-0.358-0.021-0.583
			c-0.021-0.211-0.032-0.424-0.065-0.642c-0.046-0.448-0.088-0.865-0.125-1.224C14.054,8.759,14.084,8.208,14.084,8.208z"/>
	</g>
	<g>
		<path fill="#FAFFFF" d="M16.667,6.708c0,0,0.58,0.486,1.216,1.387c0.326,0.447,0.663,0.993,0.957,1.636
			c0.155,0.313,0.288,0.661,0.387,1.042c0.136,0.347,0.152,0.818,0.188,1.25c-0.076,0.498-0.082,0.716-0.231,1.155
			c-0.114,0.399-0.254,0.759-0.402,1.061c-0.292,0.636-0.618,1.186-0.936,1.637c-0.616,0.91-1.179,1.416-1.179,1.416
			s0.118-0.746,0.396-1.776c0.137-0.507,0.297-1.098,0.468-1.731c0.098-0.318,0.161-0.618,0.228-0.897
			c0.082-0.227,0.119-0.726,0.158-0.929c-0.04-0.275-0.012-0.526-0.104-0.849l-0.091-0.46c-0.044-0.156-0.087-0.311-0.129-0.463
			c-0.151-0.615-0.343-1.202-0.482-1.715C16.813,7.449,16.667,6.708,16.667,6.708z"/>
	</g>
	<g>
		<path fill="#FAFFFF" d="M19.875,5.437c0,0,0.599,0.672,1.23,1.838c0.164,0.288,0.33,0.607,0.478,0.959
			c0.162,0.344,0.32,0.717,0.448,1.121c0.15,0.391,0.255,0.826,0.344,1.276c0.053,0.218,0.095,0.45,0.095,0.705
			c0.008,0.268,0.03,0.451,0.02,0.791c-0.079,0.433-0.104,0.833-0.254,1.297c-0.119,0.455-0.258,0.886-0.414,1.262
			c-0.301,0.779-0.641,1.468-0.969,2.042c-0.64,1.154-1.228,1.835-1.228,1.835s0.128-0.889,0.425-2.146
			c0.146-0.622,0.318-1.348,0.501-2.126c0.104-0.39,0.175-0.768,0.255-1.138c0.097-0.352,0.131-0.818,0.198-1.234
			c-0.01-0.09-0.014-0.338-0.018-0.499c0.006-0.177-0.008-0.368-0.047-0.566c-0.054-0.387-0.1-0.773-0.189-1.157
			c-0.131-0.765-0.314-1.489-0.446-2.118C20.019,6.323,19.875,5.437,19.875,5.437z"/>
	</g>
</g>
</svg>
